<svg width="181" height="181" viewBox="0 0 181 181" fill="none" xmlns="http://www.w3.org/2000/svg">
<g clip-path="url(#clip0_2884_163235)">
<path d="M137.491 11.1641H59.0003C56.545 11.1641 54.5547 13.148 54.5547 15.5954V136.533C54.5547 138.981 56.545 140.965 59.0003 140.965H156.618C159.073 140.965 161.064 138.981 161.064 136.533V34.842L137.491 11.1641Z" fill="#85A5FF"/>
<path d="M137.49 10.9805L137.527 30.421C137.527 32.8683 139.518 34.8523 141.973 34.8523H161.063" fill="#D6E4FF"/>
<path d="M101.932 31.6758H23.6214C21.1661 31.6758 19.1758 33.6597 19.1758 36.1071V157.045C19.1758 159.492 21.1661 161.476 23.6214 161.476H121.424C123.88 161.476 125.87 159.492 125.87 157.045V57.5676H108.786C106.332 57.5676 101.932 55.5846 101.932 53.1363V31.6758Z" fill="#D6E4FF"/>
<path d="M51.5052 43.4805H33.8922C32.2086 43.4805 30.8438 44.8453 30.8438 46.5289V64.0657C30.8438 65.7493 32.2086 67.1141 33.8922 67.1141H51.5052C53.1887 67.1141 54.5536 65.7493 54.5536 64.0657V46.5289C54.5536 44.8453 53.1887 43.4805 51.5052 43.4805Z" fill="#85A5FF"/>
<path d="M112.721 78.9297H31.9507C31.3393 78.9297 30.8438 79.4253 30.8438 80.0366V83.7312C30.8438 84.3425 31.3393 84.8381 31.9507 84.8381H112.721C113.332 84.8381 113.828 84.3425 113.828 83.7312V80.0366C113.828 79.4253 113.332 78.9297 112.721 78.9297Z" fill="#85A5FF"/>
<path d="M112.707 96.668H31.937C31.3257 96.668 30.8301 97.1636 30.8301 97.7749V101.469C30.8301 102.081 31.3257 102.576 31.937 102.576H112.707C113.319 102.576 113.814 102.081 113.814 101.469V97.7749C113.814 97.1636 113.319 96.668 112.707 96.668Z" fill="#85A5FF"/>
<path d="M112.877 114.391H32.107C31.4956 114.391 31 114.886 31 115.498V119.192C31 119.803 31.4956 120.299 32.107 120.299H112.877C113.489 120.299 113.984 119.803 113.984 119.192V115.498C113.984 114.886 113.489 114.391 112.877 114.391Z" fill="#85A5FF"/>
<path d="M101.932 31.6758V53.1363C101.932 55.5836 103.922 57.5676 106.377 57.5676H125.869" fill="white"/>
<path fill-rule="evenodd" clip-rule="evenodd" d="M133.186 103.773C113.773 103.773 98.0352 119.511 98.0352 138.924C98.0352 158.337 113.773 174.075 133.186 174.075C152.599 174.075 168.337 158.337 168.337 138.924C168.337 119.511 152.599 103.773 133.186 103.773Z" fill="#597EF7"/>
<path fill-rule="evenodd" clip-rule="evenodd" d="M141.486 125.134C143.335 126.794 144.283 129.069 144.283 131.914C144.283 134.238 143.667 136.182 142.529 137.699C142.102 138.22 140.774 139.453 138.499 141.397C137.645 142.156 136.981 142.962 136.555 143.815C136.033 144.763 135.796 145.807 135.796 146.992V148.117C135.796 148.587 135.415 148.968 134.945 148.968H131.574C131.104 148.968 130.723 148.587 130.723 148.117V146.992C130.723 145.238 131.007 143.72 131.624 142.488C132.287 141.16 134.089 139.216 137.029 136.608L137.835 135.707C138.688 134.617 139.115 133.479 139.115 132.246C139.115 130.587 138.641 129.306 137.74 128.358C136.792 127.41 135.464 126.936 133.757 126.936C131.624 126.936 130.059 127.6 129.111 128.927C128.369 129.916 127.949 131.299 127.852 133.013C127.827 133.462 127.452 133.811 127.003 133.811H123.678C123.192 133.811 122.802 133.405 122.827 132.92C122.987 129.882 123.979 127.473 125.839 125.656C127.83 123.617 130.58 122.621 134.042 122.621C137.124 122.621 139.589 123.427 141.486 125.134Z" fill="white"/>
<path fill-rule="evenodd" clip-rule="evenodd" d="M133.674 156.689H132.418C131.378 156.689 130.535 155.846 130.535 154.806V153.551C130.535 152.511 131.378 151.668 132.418 151.668H133.674C134.714 151.668 135.557 152.511 135.557 153.551V154.806C135.557 155.846 134.714 156.689 133.674 156.689Z" fill="white"/>
</g>
<defs>
<clipPath id="clip0_2884_163235">
<rect width="180" height="180" fill="white" transform="translate(0.119141 0.585938)"/>
</clipPath>
</defs>
</svg>
