<svg width="127" height="136" viewBox="0 0 127 136" fill="none" xmlns="http://www.w3.org/2000/svg">
<path d="M94.7026 0.5H15.2679C13.1128 0.5 11.3657 2.24576 11.3657 4.39927V115.33H82.3279C82.3279 127.239 92.519 135.561 104.456 135.5C116.189 135.441 125.786 125.503 125.786 113.78V31.4082H105.074C101.77 31.4082 94.7026 24.1816 94.7026 20.8818V0.5Z" fill="#ADC6FF"/>
<path d="M82.4365 114.921H0.938965C0.938965 125.544 8.69358 133.225 18.8675 134.927L22.4494 135.226L104.11 135.063C92.2311 135.063 82.1337 125.973 82.4365 114.921Z" fill="#597EF7"/>
<path d="M46.6093 10.9268H28.8054C27.9632 10.9268 27.2805 11.6095 27.2805 12.4517V30.2555C27.2805 31.0977 27.9632 31.7804 28.8054 31.7804H46.6093C47.4514 31.7804 48.1342 31.0977 48.1342 30.2555V12.4517C48.1342 11.6095 47.4514 10.9268 46.6093 10.9268Z" fill="#597EF7"/>
<path d="M103.682 41.9329H28.531C27.6888 41.9329 27.0061 42.6156 27.0061 43.4578V45.6214C27.0061 46.4635 27.6888 47.1463 28.531 47.1463H103.682C104.525 47.1463 105.207 46.4635 105.207 45.6214V43.4578C105.207 42.6156 104.525 41.9329 103.682 41.9329Z" fill="#597EF7"/>
<path d="M103.682 57.573H28.531C27.6888 57.573 27.0061 58.2917 27.0061 59.1782V61.4556C27.0061 62.3421 27.6888 63.0608 28.531 63.0608H103.682C104.525 63.0608 105.207 62.3421 105.207 61.4556V59.1782C105.207 58.2917 104.525 57.573 103.682 57.573Z" fill="#597EF7"/>
<path d="M103.682 73.2134H28.531C27.6888 73.2134 27.0061 73.8961 27.0061 74.7383V76.9019C27.0061 77.7441 27.6888 78.4268 28.531 78.4268H103.682C104.525 78.4268 105.207 77.7441 105.207 76.9019V74.7383C105.207 73.8961 104.525 73.2134 103.682 73.2134Z" fill="#597EF7"/>
<path opacity="0.6" d="M94.7805 26.2927V30.8239C94.7805 31.722 95.145 32.5796 95.7869 33.1906C96.4287 33.8016 97.2897 34.1108 98.163 34.0438L126.061 31.564L94.7805 26.2927Z" fill="#597EF7"/>
<path d="M110.968 16.1402L94.7805 0.5L94.8229 30.4754C94.8229 31.1962 95.4061 31.7805 96.1255 31.7805H126.061L110.968 16.1402Z" fill="#D6E4FF"/>
</svg>
