<svg width="61" height="60" viewBox="0 0 61 60" fill="none" xmlns="http://www.w3.org/2000/svg">
<path d="M50.6704 20.3752C50.6704 20.3752 39.196 23.642 34.2998 13.193C29.4037 2.74396 10.9587 8.07102 12.3017 20.4147C13.6446 32.7583 3.12911 31.3934 4.44185 39.3129C5.93386 48.3139 19.3898 41.9944 21.968 47.5162C27.6582 59.7028 36.7294 63.0771 40.0128 56.1135C45.7762 43.89 42.6084 40.5297 49.9753 37.335C57.3422 34.1403 60.4407 18.6509 50.6704 20.3752Z" fill="#D6E4FF"/>
<path d="M28.5762 12.4184C28.4774 12.3809 28.3969 12.3064 28.3518 12.2108C28.3067 12.1152 28.3005 12.0058 28.3344 11.9057L29.5373 8.10887C29.553 8.05576 29.5793 8.00635 29.6145 7.96359C29.6497 7.92083 29.6932 7.88559 29.7423 7.85999C29.7914 7.83438 29.8452 7.81892 29.9004 7.81454C29.9556 7.81015 30.0111 7.81693 30.0637 7.83446L30.3637 7.94197C30.4153 7.96173 30.4624 7.99173 30.5022 8.03017C30.542 8.06861 30.5735 8.11469 30.595 8.16565C30.6165 8.21661 30.6275 8.27139 30.6272 8.32669C30.627 8.38199 30.6156 8.43668 30.5937 8.48745L29.0907 12.1767C29.0526 12.2755 28.9778 12.3558 28.882 12.4008C28.7861 12.4458 28.6766 12.4521 28.5762 12.4184V12.4184Z" fill="#2F54EB"/>
<path d="M26.6698 12.2808C26.601 12.2831 26.5342 12.258 26.4839 12.211C26.4337 12.164 26.4041 12.099 26.4018 12.0302L26.266 9.44054C26.2617 9.36677 26.2868 9.29428 26.3358 9.23899C26.3848 9.18369 26.4538 9.15011 26.5276 9.14561L26.7377 9.137C26.7737 9.13586 26.8095 9.14219 26.8429 9.15558C26.8763 9.16898 26.9065 9.18915 26.9317 9.21483C26.9569 9.24051 26.9765 9.27114 26.9893 9.30478C27.0021 9.33841 27.0078 9.37434 27.0059 9.41028L26.9316 12.0085C26.9302 12.0785 26.9024 12.1453 26.8539 12.1958C26.8054 12.2462 26.7397 12.2766 26.6698 12.2808V12.2808Z" fill="#2F54EB"/>
<path d="M25.298 13.4016C25.12 13.534 24.8492 13.4621 24.6841 13.2386L21.752 9.27053C21.5769 9.0335 21.5883 8.7189 21.777 8.57848L22.0402 8.38275C22.229 8.24231 22.5192 8.33251 22.6786 8.58133L25.3475 12.7451C25.4978 12.9796 25.4759 13.2692 25.298 13.4016Z" fill="#2F54EB"/>
<path d="M38.1409 14.8631L15.9019 19.5205C15.2142 19.6645 14.882 20.8568 15.1598 22.1835L20.7776 49.0085C21.0554 50.3352 21.8382 51.294 22.5259 51.1499L44.7649 46.4926C45.4526 46.3486 45.7848 45.1563 45.507 43.8296L39.8892 17.0046C39.6114 15.6779 38.8286 14.7191 38.1409 14.8631Z" fill="#597EF7"/>
<path d="M37.4812 16.5307L34.8871 17.074C34.4745 17.1604 34.2101 17.565 34.2965 17.9776L34.8397 20.5717C34.9262 20.9843 35.3307 21.2487 35.7433 21.1623L38.3374 20.6191C38.75 20.5327 39.0145 20.1281 38.9281 19.7155L38.3848 17.1214C38.2984 16.7088 37.8938 16.4443 37.4812 16.5307Z" fill="white"/>
<path d="M27.2723 27.3477L18.6436 29.1547C18.6189 29.1599 18.6031 29.1841 18.6082 29.2088L18.8754 30.4847C18.8806 30.5094 18.9049 30.5252 18.9296 30.52L27.5582 28.713C27.5829 28.7078 27.5988 28.6836 27.5936 28.6589L27.3264 27.383C27.3212 27.3583 27.297 27.3425 27.2723 27.3477Z" fill="white"/>
<path d="M28.739 33.4609L20.1103 35.268C20.0856 35.2731 20.0697 35.2974 20.0749 35.3221L20.3421 36.5979C20.3473 36.6227 20.3715 36.6385 20.3962 36.6333L29.0249 34.8263C29.0496 34.8211 29.0655 34.7969 29.0603 34.7722L28.7931 33.4963C28.7879 33.4716 28.7637 33.4558 28.739 33.4609Z" fill="white"/>
<path d="M30.2055 39.5742L21.5769 41.3813C21.5521 41.3864 21.5363 41.4107 21.5415 41.4354L21.8087 42.7112C21.8138 42.7359 21.8381 42.7518 21.8628 42.7466L30.4914 40.9396C30.5162 40.9344 30.532 40.9102 30.5268 40.8855L30.2596 39.6096C30.2545 39.5849 30.2302 39.569 30.2055 39.5742Z" fill="white"/>
<path d="M31.5101 29.2125L19.1955 31.7914C19.1708 31.7966 19.155 31.8208 19.1601 31.8455L19.4273 33.1214C19.4325 33.1461 19.4567 33.1619 19.4814 33.1568L31.796 30.5778C31.8207 30.5727 31.8366 30.5484 31.8314 30.5237L31.5642 29.2479C31.559 29.2231 31.5348 29.2073 31.5101 29.2125Z" fill="white"/>
<path d="M32.9767 35.3258L20.6622 37.9047C20.6375 37.9099 20.6216 37.9341 20.6268 37.9588L20.894 39.2347C20.8992 39.2594 20.9234 39.2752 20.9481 39.27L33.2627 36.6911C33.2874 36.6859 33.3032 36.6617 33.2981 36.637L33.0309 35.3611C33.0257 35.3364 33.0015 35.3206 32.9767 35.3258Z" fill="white"/>
<path d="M34.4433 41.439L22.1287 44.018C22.104 44.0231 22.0882 44.0474 22.0934 44.0721L22.3605 45.3479C22.3657 45.3727 22.39 45.3885 22.4147 45.3833L34.7292 42.8044C34.7539 42.7992 34.7698 42.775 34.7646 42.7503L34.4974 41.4744C34.4922 41.4497 34.468 41.4339 34.4433 41.439Z" fill="white"/>
</svg>
