<svg width="46" height="46" viewBox="0 0 46 46" fill="none" xmlns="http://www.w3.org/2000/svg">
<path d="M11.6036 8.22594C11.6036 8.22594 18.4268 13.4036 28.7996 3.72222C38.0118 -4.87578 45.5336 8.68989 45.5863 15.1863C45.6545 23.6018 36.3741 30.3352 40.8778 35.8625C45.3815 41.3898 31.9463 50.5173 24.7053 42.6181C15.6978 32.7918 13.2576 40.7757 8.12338 40.7757C4.43851 40.7757 -3.12695 31.6197 1.98193 24.8079C6.28093 19.0759 3.93634 17.1735 2.80093 15.1863C1.16314 12.3203 5.05273 4.54107 11.6036 8.22594Z" fill="#F0F5FF"/>
<path d="M42.0311 4.69649C42.0311 4.82387 42.0255 4.94936 42.0144 5.07365C41.9154 6.19654 41.3805 7.23598 40.5244 7.96936C39.6684 8.70273 38.5592 9.07171 37.4344 8.99726C36.3096 8.92281 35.2587 8.41086 34.5067 7.57105C33.7548 6.73125 33.3616 5.63038 33.4114 4.50423C33.4612 3.37809 33.9501 2.31622 34.7732 1.54608C35.5963 0.775932 36.6883 0.358749 37.8153 0.383886C38.9423 0.409022 40.0146 0.87448 40.8026 1.68056C41.5906 2.48664 42.0315 3.56925 42.0311 4.69649Z" fill="#ADC6FF"/>
<path d="M38.2634 5.02609C37.9851 5.24248 37.5963 5.67343 37.7137 6.63235C37.5833 7.00456 37.1196 7.71556 37.1196 8.05558C37.1196 8.3956 36.5631 8.45758 36.5013 8.36458C36.4395 8.27158 36.4086 7.09714 36.0685 6.88075C35.7285 6.66436 35.7903 5.67514 35.7903 5.67514C35.7903 5.67514 35.914 5.30416 35.5121 5.05687C35.1102 4.80958 34.8302 4.22221 35.1869 3.88216C35.543 3.54211 34.5847 3.32572 34.461 3.07843C34.4085 2.97343 34.2069 2.73838 33.993 2.50405C34.4555 1.72074 35.153 1.10293 35.9863 0.738281C36.3023 1.06828 36.5755 1.49071 36.5013 1.93462C36.5137 2.15101 37.4528 2.49106 36.9929 2.95462C36.5323 3.41833 35.9072 4.06762 36.9929 4.28389C38.0779 4.50061 38.5416 4.80961 38.2634 5.02609Z" fill="#2F54EB"/>
<path d="M40.7328 1.61014C40.5015 2.09794 39.9216 2.49115 39.5928 2.49115C39.2218 2.08915 38.4181 2.64574 38.3426 1.99654C38.2987 1.61818 38.7303 1.03081 39.0981 0.605469C39.7115 0.813554 40.2701 1.15692 40.7328 1.61014Z" fill="#2F54EB"/>
<path d="M42.0145 5.074C41.9224 6.14143 41.4351 7.13603 40.6481 7.86298C40.5053 7.72633 40.3847 7.56622 40.4273 7.43824C40.5201 7.16002 40.8972 6.57265 40.8324 6.2017C40.7718 5.85547 41.0914 4.80814 42.0145 5.074Z" fill="#2F54EB"/>
<path d="M34.9944 26.5033C34.8564 27.355 34.6278 28.1895 34.3127 28.9927C32.2593 34.2526 26.7509 37.5477 20.9539 36.6007C17.7535 36.0768 14.8921 34.3035 12.9987 31.6707C11.1052 29.0378 10.3347 25.7609 10.8565 22.5601C10.883 22.3977 10.914 22.234 10.9462 22.0746C12.2541 15.676 18.3937 11.4004 24.897 12.4626C26.8376 12.7764 28.6731 13.556 30.2463 14.7348C30.7632 15.1208 31.2481 15.5477 31.6965 16.0116C33.0278 17.381 34.0197 19.0434 34.5924 20.8654C35.1651 22.6874 35.3028 24.6183 34.9944 26.5032V26.5033Z" fill="#85A5FF"/>
<path d="M34.3128 28.9925C31.9839 30.4918 29.2338 31.8785 26.2019 33.0253C23.1145 34.1923 20.0828 34.9808 17.3042 35.3937C10.7746 36.3672 5.6466 35.2794 4.49118 32.2232C3.40914 29.3686 6.07053 25.5021 10.9463 22.0745C10.914 22.2339 10.8831 22.3976 10.8565 22.56C10.7591 23.1544 10.7062 23.7553 10.6984 24.3576C7.88916 26.5266 6.42723 28.6509 7.00353 30.1746C7.56384 31.6561 9.94281 32.2866 13.3271 32.1079C16.6357 31.9336 20.9051 30.9806 25.3739 29.2911C29.2389 27.8282 32.6282 26.0499 35.1519 24.2637C38.5305 21.8752 40.3629 19.4717 39.7305 17.795C39.0802 16.0737 35.9771 15.5 31.6965 16.0116C31.2482 15.5477 30.7632 15.1208 30.2463 14.7348C36.2382 14.0423 40.8567 15.174 41.9453 18.0526C43.1115 21.1314 39.931 25.382 34.3128 28.9925Z" fill="#2F54EB"/>
</svg>
