<svg width="60" height="52" viewBox="0 0 60 52" fill="none" xmlns="http://www.w3.org/2000/svg">
<path d="M40.8949 2.85536C40.8949 2.85536 32.7823 13.1313 19.8022 7.00176C6.82213 0.872265 -6.15801 17.458 5.01932 27.5536C16.1966 37.6492 5.2588 43.1968 12.8522 49.384C21.4827 56.4162 28.9965 42.1562 35.8471 45.4013C50.9667 52.5632 62.1678 49.728 59.644 41.4351C55.2136 26.8781 49.5483 25.9311 53.875 18.3594C58.2017 10.7876 48.6526 -4.95586 40.8949 2.85536Z" fill="#D6E4FF"/>
<path d="M36.4781 31.2764L35.8372 34.7173L32.7845 51.0743L27.2855 50.0475L30.8114 31.1524L30.9791 30.252L36.4781 31.2764Z" fill="#597EF7"/>
<path d="M50.0208 23.0468L48.1247 33.2124C48.1191 33.2422 48.1077 33.2706 48.0912 33.296C48.0747 33.3214 48.0533 33.3433 48.0283 33.3604C48.0033 33.3775 47.9751 33.3896 47.9455 33.3958C47.9158 33.4021 47.8852 33.4024 47.8554 33.3969L21.2161 28.4284L24.3515 11.6172L44.5804 15.3901C48.2468 16.0738 50.6821 19.5011 50.0208 23.0468Z" fill="#85A5FF"/>
<path d="M30.0414 19.6355L28.1601 29.7222L14.177 27.1142L16.0583 17.0275C16.7509 13.3137 20.4428 10.8869 24.3041 11.607C28.1653 12.3272 30.7341 15.9216 30.0414 19.6355Z" fill="#597EF7"/>
<path d="M36.5512 24.3516C35.5207 24.1595 34.8409 23.158 35.0349 22.118C35.229 21.078 36.224 20.3887 37.2544 20.581C37.5829 20.6427 37.8892 20.7903 38.1421 21.0088C38.395 21.2273 38.5856 21.5089 38.6944 21.8249L51.7106 24.2526L51.359 26.1379L38.3428 23.7103C38.1274 23.9659 37.8481 24.1599 37.5334 24.2725C37.2188 24.3852 36.8798 24.4125 36.5512 24.3516V24.3516Z" fill="#2F54EB"/>
<path d="M29.5776 19.8212L27.7446 29.6487L14.572 27.1919L16.4051 17.3644C17.0799 13.7461 20.5759 11.3627 24.2134 12.0411C27.8509 12.7196 30.2524 16.2029 29.5776 19.8212Z" fill="#2F54EB"/>
<path d="M36.9203 23.3984C37.4499 23.3984 37.8792 22.969 37.8792 22.4394C37.8792 21.9098 37.4499 21.4805 36.9203 21.4805C36.3906 21.4805 35.9613 21.9098 35.9613 22.4394C35.9613 22.969 36.3906 23.3984 36.9203 23.3984Z" fill="white"/>
<path d="M51.8611 24.2444L50.7113 30.409C50.7063 30.4356 50.691 30.4591 50.6687 30.4743C50.6465 30.4896 50.619 30.4954 50.5925 30.4905L47.5701 29.9267C47.5648 29.9258 47.5602 29.9227 47.5572 29.9183C47.5542 29.9139 47.553 29.9085 47.554 29.9033L48.7188 23.6583C48.7197 23.6531 48.7228 23.6484 48.7272 23.6454C48.7316 23.6424 48.737 23.6412 48.7422 23.6422L51.845 24.2209C51.8502 24.2219 51.8549 24.2249 51.8579 24.2293C51.8609 24.2337 51.862 24.2391 51.8611 24.2444V24.2444Z" fill="#597EF7"/>
<path d="M28.1736 29.7287C28.0281 30.0971 25.3665 41.0718 16.7535 39.4654C7.30891 37.8664 14.1404 27.1113 14.1404 27.1113L28.1736 29.7287Z" fill="#85A5FF"/>
<path d="M37.4188 22.0967C37.4066 22.0864 37.3972 22.0731 37.3916 22.0582C37.3859 22.0432 37.3842 22.0271 37.3865 22.0113C37.3888 21.9955 37.3951 21.9806 37.4048 21.9679C37.4145 21.9552 37.4273 21.9453 37.4419 21.9389C37.6082 21.8666 37.6985 21.8262 37.6987 21.8261C37.71 21.8206 37.7224 21.8173 37.735 21.8166C37.7475 21.816 37.7601 21.8178 37.772 21.8221C37.7839 21.8264 37.7947 21.833 37.804 21.8416C37.8132 21.8502 37.8206 21.8606 37.8258 21.8721C37.8309 21.8836 37.8337 21.896 37.8339 21.9086C37.8341 21.9212 37.8318 21.9338 37.8271 21.9455C37.8224 21.9572 37.8154 21.9678 37.8065 21.9767C37.7976 21.9856 37.7869 21.9927 37.7752 21.9974C37.7752 21.9974 37.6843 22.038 37.5166 22.1109C37.5006 22.1179 37.483 22.1203 37.4657 22.1177C37.4484 22.1152 37.4321 22.1079 37.4188 22.0967Z" fill="white"/>
<path d="M21.5514 26.2046C21.5377 26.1931 21.5276 26.1779 21.5223 26.1609C21.517 26.1438 21.5167 26.1256 21.5213 26.1084C21.526 26.0911 21.5355 26.0756 21.5487 26.0635C21.5619 26.0515 21.5783 26.0435 21.5959 26.0404C21.7818 26.0082 21.9623 25.9729 22.1326 25.9356C22.1569 25.9303 22.1823 25.9348 22.2033 25.9483C22.2242 25.9617 22.239 25.9829 22.2443 26.0072C22.2497 26.0315 22.2451 26.057 22.2317 26.0779C22.2183 26.0989 22.1971 26.1137 22.1727 26.119C21.9999 26.1569 21.8166 26.1927 21.628 26.2254C21.6145 26.2278 21.6006 26.2271 21.5874 26.2235C21.5741 26.2199 21.5618 26.2135 21.5514 26.2046V26.2046ZM22.6268 25.9665C22.6137 25.9555 22.6039 25.9411 22.5985 25.925C22.593 25.9088 22.592 25.8915 22.5956 25.8748C22.5993 25.8581 22.6074 25.8428 22.6191 25.8304C22.6308 25.818 22.6456 25.809 22.6621 25.8044C22.846 25.7529 23.0201 25.6972 23.1797 25.6388C23.1912 25.6346 23.2035 25.6326 23.2159 25.6332C23.2282 25.6337 23.2403 25.6366 23.2514 25.6418C23.2626 25.647 23.2727 25.6543 23.281 25.6634C23.2894 25.6725 23.2958 25.6831 23.3001 25.6947C23.3043 25.7062 23.3062 25.7185 23.3057 25.7309C23.3052 25.7432 23.3023 25.7553 23.2971 25.7664C23.2919 25.7776 23.2846 25.7877 23.2755 25.796C23.2664 25.8044 23.2558 25.8108 23.2442 25.8151C23.0801 25.8752 22.9013 25.9324 22.7126 25.9852C22.6979 25.9893 22.6823 25.9897 22.6674 25.9865C22.6524 25.9832 22.6385 25.9764 22.6268 25.9665L22.6268 25.9665ZM23.189 25.2702L23.1878 25.2692C23.0422 25.1476 22.9253 24.9952 22.8454 24.8231C22.8402 24.812 22.8373 24.7999 22.8368 24.7875C22.8363 24.7752 22.8382 24.7629 22.8425 24.7514C22.8467 24.7398 22.8532 24.7292 22.8616 24.7201C22.8699 24.711 22.88 24.7037 22.8912 24.6985C22.9024 24.6934 22.9145 24.6904 22.9268 24.6899C22.9391 24.6894 22.9514 24.6914 22.963 24.6956C22.9745 24.6999 22.9852 24.7064 22.9942 24.7147C23.0033 24.7231 23.0106 24.7331 23.0158 24.7443C23.0843 24.8915 23.1844 25.0217 23.3091 25.1257C23.3148 25.1305 23.3209 25.1357 23.3268 25.1407L23.3282 25.1418C23.3377 25.1497 23.3455 25.1593 23.3513 25.1702C23.357 25.1811 23.3606 25.1931 23.3617 25.2053C23.3629 25.2176 23.3616 25.23 23.358 25.2418C23.3544 25.2535 23.3485 25.2645 23.3406 25.274C23.3327 25.2835 23.3231 25.2913 23.3122 25.2971C23.3013 25.3029 23.2894 25.3064 23.2771 25.3076C23.2648 25.3087 23.2524 25.3075 23.2406 25.3038C23.2289 25.3002 23.2179 25.2943 23.2084 25.2864C23.2019 25.2811 23.1955 25.2757 23.189 25.2703L23.189 25.2702ZM23.6574 25.582C23.6447 25.5635 23.6373 25.5419 23.6357 25.5196C23.6342 25.4972 23.6386 25.4749 23.6486 25.4548C23.6585 25.4348 23.6737 25.4177 23.6924 25.4055C23.7112 25.3932 23.7328 25.3862 23.7552 25.3851C23.8859 25.316 24.0107 25.2362 24.1283 25.1467C24.138 25.139 24.1492 25.1333 24.1611 25.13C24.1731 25.1266 24.1856 25.1257 24.1979 25.1272C24.2102 25.1287 24.2221 25.1326 24.2329 25.1387C24.2437 25.1449 24.2532 25.1531 24.2607 25.1629C24.2683 25.1727 24.2739 25.184 24.2771 25.1959C24.2804 25.2079 24.2812 25.2204 24.2795 25.2327C24.2779 25.245 24.2738 25.2569 24.2676 25.2676C24.2613 25.2783 24.253 25.2877 24.2431 25.2952C24.1652 25.355 24.0839 25.4105 23.9998 25.4613C24.0912 25.4858 24.1883 25.5067 24.2903 25.5238C24.3142 25.5287 24.3353 25.5426 24.3491 25.5627C24.3629 25.5827 24.3683 25.6074 24.3643 25.6314C24.3603 25.6554 24.3471 25.6769 24.3275 25.6914C24.3079 25.7058 24.2834 25.7121 24.2593 25.7089C24.0938 25.6819 23.9308 25.6415 23.7719 25.5879L23.7602 25.5938C23.7438 25.6021 23.7253 25.6054 23.7071 25.6033C23.6888 25.6011 23.6716 25.5937 23.6575 25.5819L23.6574 25.582ZM22.727 24.3254C22.7096 24.3107 22.6981 24.2902 22.6948 24.2677C22.6611 24.0753 22.6618 23.8784 22.6967 23.6863C22.6989 23.6738 22.7035 23.6619 22.7103 23.6513C22.7171 23.6407 22.726 23.6315 22.7365 23.6244C22.7469 23.6173 22.7587 23.6124 22.7711 23.6099C22.7835 23.6075 22.7962 23.6076 22.8086 23.6102C22.8209 23.6128 22.8327 23.6178 22.843 23.6251C22.8534 23.6323 22.8622 23.6416 22.8689 23.6523C22.8756 23.663 22.88 23.6749 22.882 23.6874C22.8839 23.6999 22.8834 23.7126 22.8803 23.7249C22.85 23.8951 22.85 24.0693 22.8803 24.2396C22.8831 24.2584 22.8802 24.2777 22.8718 24.2949C22.8634 24.312 22.8499 24.3262 22.8333 24.3355C22.8166 24.3448 22.7975 24.3488 22.7785 24.347C22.7595 24.3452 22.7415 24.3376 22.7269 24.3253L22.727 24.3254ZM24.7622 25.7449C24.7471 25.7323 24.7365 25.7152 24.7316 25.6962C24.7268 25.6772 24.728 25.6571 24.7352 25.6388C24.7424 25.6206 24.7551 25.605 24.7716 25.5943C24.788 25.5836 24.8074 25.5784 24.827 25.5793C24.9966 25.5873 25.1796 25.5882 25.3709 25.5818C25.3832 25.5814 25.3955 25.5834 25.4071 25.5877C25.4186 25.592 25.4292 25.5986 25.4382 25.607C25.4472 25.6154 25.4544 25.6256 25.4595 25.6368C25.4646 25.648 25.4675 25.6601 25.4679 25.6724C25.4683 25.6848 25.4663 25.6971 25.4619 25.7086C25.4576 25.7201 25.451 25.7307 25.4426 25.7397C25.4342 25.7487 25.4241 25.756 25.4128 25.7611C25.4016 25.7661 25.3895 25.769 25.3772 25.7694C25.1808 25.776 24.9928 25.7751 24.8182 25.7668C24.7977 25.7658 24.778 25.758 24.7624 25.7447L24.7622 25.7449ZM24.5003 24.8932C24.4831 24.8787 24.4717 24.8584 24.4682 24.8362C24.4647 24.8139 24.4693 24.7911 24.4812 24.772C24.5719 24.633 24.6175 24.4694 24.6117 24.3036C24.6106 24.2788 24.6194 24.2546 24.6362 24.2363C24.6529 24.2179 24.6763 24.207 24.7011 24.2058C24.7259 24.2047 24.7501 24.2134 24.7685 24.23C24.7869 24.2467 24.7979 24.27 24.7992 24.2948C24.807 24.4986 24.7516 24.6999 24.6407 24.8711C24.6342 24.8816 24.6257 24.8907 24.6156 24.8979C24.6056 24.9051 24.5943 24.9102 24.5823 24.913C24.5703 24.9158 24.5578 24.9162 24.5457 24.9142C24.5335 24.9122 24.5219 24.9078 24.5114 24.9013C24.5075 24.8989 24.5038 24.8962 24.5003 24.8932ZM23.0249 23.3336C23.0134 23.3239 23.0043 23.3115 22.9986 23.2975C22.9929 23.2835 22.9906 23.2684 22.992 23.2533C22.9933 23.2383 22.9983 23.2238 23.0065 23.2111C23.0147 23.1983 23.0259 23.1878 23.039 23.1803C23.2024 23.0873 23.4097 23.0611 23.6387 23.105C23.6632 23.1097 23.6848 23.1239 23.6988 23.1445C23.7127 23.1651 23.718 23.1904 23.7133 23.2149C23.7086 23.2393 23.6944 23.2609 23.6738 23.2749C23.6532 23.2889 23.6279 23.2941 23.6034 23.2894C23.419 23.2541 23.256 23.2728 23.1319 23.3435C23.1152 23.353 23.096 23.3572 23.0769 23.3554C23.0577 23.3536 23.0396 23.346 23.0249 23.3336V23.3336ZM25.8643 25.7119C25.8502 25.7 25.8399 25.6841 25.8347 25.6663C25.8296 25.6486 25.8298 25.6297 25.8353 25.612C25.8409 25.5944 25.8515 25.5787 25.8659 25.5671C25.8803 25.5555 25.8979 25.5484 25.9163 25.5467C26.0897 25.5309 26.2728 25.5097 26.4604 25.4841C26.485 25.4807 26.51 25.4873 26.5299 25.5023C26.5497 25.5174 26.5627 25.5397 26.5661 25.5644C26.5694 25.589 26.5629 25.614 26.5478 25.6339C26.5328 25.6537 26.5104 25.6667 26.4858 25.6701C26.2954 25.6961 26.1097 25.7174 25.9334 25.7336C25.9211 25.7348 25.9086 25.7334 25.8967 25.7297C25.8848 25.726 25.8738 25.7199 25.8643 25.7119V25.7119ZM24.4615 23.8591C24.4551 23.8538 24.4495 23.8476 24.4448 23.8407C24.3452 23.7002 24.2198 23.58 24.0752 23.4864C24.0649 23.4796 24.056 23.4709 24.0491 23.4607C24.0421 23.4505 24.0373 23.4391 24.0348 23.427C24.0323 23.4149 24.0322 23.4025 24.0345 23.3904C24.0368 23.3783 24.0414 23.3667 24.0482 23.3564C24.055 23.3461 24.0637 23.3372 24.0739 23.3303C24.0841 23.3234 24.0955 23.3185 24.1076 23.316C24.1197 23.3135 24.1321 23.3134 24.1442 23.3157C24.1563 23.318 24.1679 23.3227 24.1782 23.3294C24.343 23.4362 24.4859 23.5735 24.5992 23.7339C24.6122 23.7526 24.618 23.7753 24.6154 23.798C24.6128 23.8206 24.6021 23.8415 24.5853 23.8568C24.5684 23.8722 24.5466 23.8808 24.5238 23.8812C24.5011 23.8816 24.4789 23.8738 24.4615 23.8591L24.4615 23.8591ZM26.9577 25.5641C26.9441 25.5526 26.934 25.5374 26.9287 25.5204C26.9234 25.5033 26.9231 25.4851 26.9278 25.4678C26.9325 25.4506 26.942 25.435 26.9552 25.423C26.9684 25.411 26.9848 25.403 27.0024 25.4C27.1764 25.3699 27.3579 25.3359 27.5422 25.2988C27.5544 25.2961 27.567 25.2959 27.5792 25.2982C27.5914 25.3005 27.6031 25.3051 27.6135 25.3119C27.6239 25.3188 27.6329 25.3276 27.6398 25.3379C27.6468 25.3482 27.6517 25.3598 27.6541 25.3719C27.6566 25.3841 27.6566 25.3967 27.6542 25.4089C27.6517 25.4211 27.6469 25.4327 27.6399 25.443C27.633 25.4533 27.624 25.4622 27.6136 25.469C27.6032 25.4758 27.5916 25.4805 27.5794 25.4828C27.3933 25.5203 27.2099 25.5547 27.0343 25.5849C27.0208 25.5873 27.007 25.5866 26.9938 25.5831C26.9806 25.5795 26.9683 25.5731 26.9579 25.5642L26.9577 25.5641ZM28.0398 25.3468C28.0265 25.3355 28.0166 25.3208 28.0112 25.3042C28.0058 25.2876 28.0051 25.2698 28.0092 25.2528C28.0134 25.2359 28.0222 25.2204 28.0346 25.2082C28.047 25.1959 28.0627 25.1874 28.0797 25.1835C28.2532 25.1442 28.4333 25.1015 28.6148 25.0564C28.639 25.0504 28.6645 25.0543 28.6859 25.0671C28.7072 25.08 28.7225 25.1008 28.7285 25.1249C28.7345 25.1491 28.7307 25.1747 28.7178 25.196C28.705 25.2173 28.6842 25.2327 28.66 25.2387C28.4772 25.284 28.2959 25.327 28.1212 25.3666C28.107 25.3698 28.0923 25.3697 28.0783 25.3663C28.0642 25.3629 28.0511 25.3562 28.04 25.3469L28.0398 25.3468ZM29.1113 25.0816C29.0982 25.0706 29.0884 25.0561 29.0829 25.0399C29.0774 25.0236 29.0765 25.0062 29.0803 24.9894C29.0841 24.9727 29.0923 24.9573 29.1042 24.9449C29.1161 24.9326 29.1311 24.9237 29.1477 24.9193C29.3203 24.8733 29.499 24.8241 29.6786 24.7734C29.7025 24.7666 29.7282 24.7696 29.7499 24.7818C29.7717 24.7939 29.7877 24.8142 29.7945 24.8382C29.8012 24.8621 29.7982 24.8878 29.7861 24.9095C29.7739 24.9313 29.7536 24.9473 29.7297 24.9541C29.5491 25.005 29.3698 25.0545 29.1961 25.1008C29.1815 25.1046 29.1661 25.1049 29.1514 25.1016C29.1367 25.0983 29.1229 25.0915 29.1114 25.0817L29.1113 25.0816ZM30.1734 24.7812C30.1605 24.7703 30.1508 24.7561 30.1453 24.7401C30.1398 24.7241 30.1387 24.7069 30.1421 24.6903C30.1456 24.6738 30.1535 24.6584 30.1649 24.646C30.1764 24.6335 30.191 24.6244 30.2072 24.6196C30.3808 24.5678 30.5584 24.5137 30.7352 24.4586C30.759 24.4512 30.7847 24.4536 30.8068 24.4651C30.8288 24.4767 30.8453 24.4966 30.8527 24.5203C30.8601 24.5441 30.8578 24.5698 30.8462 24.5919C30.8347 24.6139 30.8148 24.6305 30.791 24.6379C30.6135 24.6932 30.4351 24.7476 30.2608 24.7996C30.2459 24.804 30.2301 24.8046 30.2149 24.8015C30.1997 24.7983 30.1855 24.7913 30.1736 24.7813L30.1734 24.7812ZM31.2283 24.453C31.2155 24.4422 31.2058 24.4281 31.2003 24.4124C31.1948 24.3966 31.1936 24.3796 31.1968 24.3632C31.2 24.3468 31.2076 24.3315 31.2187 24.319C31.2298 24.3065 31.244 24.2971 31.26 24.292C31.4312 24.2366 31.6072 24.1785 31.7833 24.1195C31.8069 24.1116 31.8327 24.1134 31.855 24.1245C31.8773 24.1356 31.8942 24.1551 31.9021 24.1787C31.9101 24.2023 31.9083 24.2281 31.8972 24.2504C31.8861 24.2727 31.8666 24.2897 31.8429 24.2976C31.6662 24.3568 31.4895 24.415 31.3178 24.4706C31.3026 24.4754 31.2865 24.4764 31.2709 24.4733C31.2553 24.4702 31.2407 24.4632 31.2285 24.4529L31.2283 24.453ZM32.275 24.1023C32.2623 24.0916 32.2528 24.0778 32.2472 24.0622C32.2416 24.0465 32.2403 24.0297 32.2434 24.0134C32.2464 23.9972 32.2537 23.982 32.2645 23.9694C32.2753 23.9568 32.2893 23.9474 32.3049 23.942C32.4801 23.8814 32.6535 23.8206 32.8251 23.7596C32.8368 23.7553 32.8491 23.7533 32.8616 23.7538C32.874 23.7544 32.8862 23.7573 32.8975 23.7626C32.9087 23.7678 32.9188 23.7753 32.9272 23.7845C32.9355 23.7937 32.942 23.8045 32.9462 23.8162C32.9503 23.8279 32.9521 23.8403 32.9514 23.8527C32.9508 23.8651 32.9476 23.8773 32.9422 23.8885C32.9368 23.8997 32.9292 23.9097 32.9199 23.9179C32.9106 23.9262 32.8998 23.9325 32.888 23.9365C32.716 23.9976 32.5421 24.0586 32.3663 24.1194C32.3509 24.1247 32.3345 24.1259 32.3185 24.1229C32.3025 24.1199 32.2876 24.1129 32.2752 24.1024L32.275 24.1023ZM33.3153 23.7327C33.3027 23.722 33.2932 23.7083 33.2876 23.6928C33.282 23.6774 33.2806 23.6607 33.2834 23.6445C33.2863 23.6283 33.2934 23.6132 33.304 23.6006C33.3146 23.588 33.3283 23.5784 33.3437 23.5728C33.5191 23.5088 33.6915 23.4452 33.8609 23.3818C33.8725 23.3775 33.8848 23.3754 33.8972 23.3758C33.9095 23.3762 33.9217 23.379 33.9329 23.3841C33.9442 23.3892 33.9543 23.3965 33.9628 23.4055C33.9712 23.4146 33.9778 23.4252 33.9821 23.4368C33.9864 23.4483 33.9884 23.4607 33.988 23.473C33.9875 23.4854 33.9846 23.4975 33.9795 23.5087C33.9743 23.52 33.967 23.5301 33.958 23.5385C33.9489 23.5469 33.9382 23.5534 33.9266 23.5577C33.7569 23.6211 33.5841 23.6849 33.4082 23.749C33.3927 23.7546 33.3759 23.7561 33.3597 23.7532C33.3434 23.7503 33.3282 23.7431 33.3156 23.7325L33.3153 23.7327ZM34.3497 23.3463C34.3372 23.3357 34.3277 23.3221 34.3221 23.3068C34.3165 23.2915 34.315 23.2749 34.3177 23.2589C34.3205 23.2428 34.3274 23.2277 34.3377 23.2151C34.3481 23.2024 34.3615 23.1927 34.3768 23.1869C34.5531 23.1195 34.7246 23.0532 34.8913 22.9882C34.9145 22.9791 34.9403 22.9797 34.9631 22.9897C34.9859 22.9997 35.0038 23.0183 35.0129 23.0415C35.0219 23.0647 35.0214 23.0905 35.0114 23.1133C35.0014 23.1361 34.9827 23.154 34.9596 23.1631C34.7926 23.2282 34.6207 23.2946 34.4438 23.3623C34.4281 23.3682 34.4112 23.3699 34.3947 23.367C34.3782 23.3642 34.3627 23.357 34.3499 23.3462L34.3497 23.3463ZM35.3786 22.9447C35.3663 22.9342 35.3568 22.9207 35.3512 22.9055C35.3456 22.8903 35.344 22.8739 35.3466 22.8579C35.3493 22.842 35.356 22.8269 35.3661 22.8143C35.3763 22.8016 35.3895 22.7919 35.4046 22.7859C35.5833 22.7146 35.7539 22.646 35.9165 22.5799C35.9279 22.5749 35.9403 22.5724 35.9528 22.5723C35.9652 22.5722 35.9776 22.5746 35.9891 22.5793C36.0007 22.584 36.0112 22.591 36.02 22.5999C36.0288 22.6087 36.0357 22.6192 36.0404 22.6308C36.0451 22.6423 36.0475 22.6547 36.0473 22.6672C36.0472 22.6797 36.0445 22.692 36.0396 22.7035C36.0346 22.7149 36.0274 22.7252 36.0184 22.7339C36.0094 22.7425 35.9988 22.7493 35.9871 22.7537C35.8246 22.8198 35.6535 22.8887 35.474 22.9602C35.4582 22.9664 35.441 22.9683 35.4243 22.9655C35.4075 22.9628 35.3918 22.9556 35.3789 22.9446L35.3786 22.9447ZM36.4023 22.5285C36.39 22.5181 36.3806 22.5047 36.375 22.4897C36.3693 22.4746 36.3677 22.4583 36.3702 22.4424C36.3726 22.4265 36.3792 22.4115 36.3891 22.3988C36.3991 22.3862 36.4121 22.3763 36.427 22.3701C36.6149 22.2922 36.7854 22.2206 36.9362 22.1567C36.9476 22.1518 36.9598 22.1492 36.9721 22.149C36.9845 22.1489 36.9968 22.1512 37.0083 22.1558C37.0198 22.1604 37.0302 22.1672 37.039 22.1759C37.0479 22.1845 37.0549 22.1949 37.0597 22.2063C37.0646 22.2176 37.0671 22.2299 37.0672 22.2423C37.0673 22.2546 37.0649 22.2669 37.0602 22.2783C37.0555 22.2898 37.0487 22.3002 37.0399 22.309C37.0312 22.3178 37.0209 22.3248 37.0095 22.3295C36.8583 22.3936 36.6873 22.4655 36.4989 22.5436C36.483 22.5501 36.4656 22.5522 36.4486 22.5495C36.4316 22.5468 36.4157 22.5395 36.4026 22.5284L36.4023 22.5285Z" fill="white"/>
<path d="M20.7398 26.3248C20.7258 26.313 20.7156 26.2974 20.7104 26.2799C20.7051 26.2624 20.7051 26.2438 20.7103 26.2263C20.7155 26.2088 20.7257 26.1932 20.7397 26.1814C20.7536 26.1696 20.7707 26.1621 20.7889 26.1599C20.8835 26.1483 20.9761 26.1362 21.0666 26.1236C21.0789 26.1217 21.0915 26.1223 21.1036 26.1252C21.1157 26.1282 21.1271 26.1336 21.1371 26.141C21.1471 26.1485 21.1555 26.1578 21.1619 26.1685C21.1682 26.1793 21.1724 26.1911 21.1741 26.2035C21.1758 26.2158 21.1751 26.2284 21.1719 26.2404C21.1687 26.2525 21.1631 26.2638 21.1555 26.2737C21.1479 26.2835 21.1384 26.2918 21.1276 26.298C21.1167 26.3041 21.1048 26.3081 21.0924 26.3096C21.0009 26.3222 20.9074 26.3345 20.8118 26.3462C20.7989 26.3478 20.7859 26.3467 20.7735 26.343C20.7611 26.3393 20.7496 26.3331 20.7398 26.3248V26.3248Z" fill="white"/>
<path d="M25.5978 19.6541C25.5856 19.6438 25.5762 19.6305 25.5706 19.6156C25.5649 19.6007 25.5632 19.5846 25.5655 19.5688C25.5678 19.553 25.5741 19.538 25.5838 19.5253C25.5935 19.5127 25.6063 19.5027 25.6209 19.4963C25.779 19.4274 25.8717 19.3816 25.8726 19.3812C25.8949 19.3703 25.9206 19.3686 25.9441 19.3766C25.9676 19.3846 25.987 19.4016 25.998 19.4238C26.009 19.446 26.0108 19.4717 26.0029 19.4953C25.9951 19.5188 25.9782 19.5383 25.956 19.5494C25.9521 19.5513 25.8587 19.5975 25.6958 19.6684C25.6798 19.6754 25.6621 19.6778 25.6448 19.6752C25.6274 19.6727 25.6111 19.6654 25.5978 19.6541Z" fill="white"/>
<path d="M19.22 20.1675C19.2061 20.1558 19.1959 20.1402 19.1907 20.1227C19.1854 20.1053 19.1854 20.0867 19.1906 20.0692C19.1957 20.0517 19.2059 20.0361 19.2198 20.0243C19.2336 20.0125 19.2507 20.005 19.2687 20.0027C19.465 19.9777 19.6549 19.9499 19.8332 19.9203C19.8454 19.9182 19.8579 19.9184 19.87 19.9211C19.8822 19.9238 19.8936 19.9289 19.9038 19.9361C19.9139 19.9432 19.9226 19.9524 19.9292 19.9629C19.9358 19.9734 19.9402 19.9851 19.9422 19.9974C19.9443 20.0096 19.9439 20.0222 19.941 20.0343C19.9382 20.0464 19.9329 20.0578 19.9257 20.0678C19.9184 20.0779 19.9091 20.0864 19.8985 20.0929C19.8879 20.0993 19.8761 20.1036 19.8639 20.1055C19.6833 20.1355 19.4911 20.1636 19.2925 20.1889C19.2796 20.1905 19.2665 20.1895 19.254 20.1858C19.2415 20.1822 19.23 20.1759 19.22 20.1675V20.1675ZM20.3516 19.9771C20.3383 19.9658 20.3283 19.951 20.3229 19.9343C20.3175 19.9176 20.3169 19.8998 20.3211 19.8828C20.3253 19.8658 20.3342 19.8503 20.3468 19.8381C20.3593 19.8259 20.375 19.8174 20.3922 19.8137C20.5893 19.7705 20.7741 19.7233 20.9413 19.6734C20.9531 19.6699 20.9655 19.6687 20.9778 19.67C20.99 19.6713 21.0019 19.6749 21.0128 19.6808C21.0236 19.6867 21.0332 19.6946 21.041 19.7042C21.0488 19.7137 21.0546 19.7247 21.0581 19.7365C21.0616 19.7484 21.0628 19.7607 21.0615 19.773C21.0603 19.7853 21.0566 19.7972 21.0507 19.808C21.0449 19.8189 21.0369 19.8284 21.0274 19.8362C21.0178 19.844 21.0068 19.8498 20.995 19.8533C20.8233 19.9046 20.634 19.953 20.4323 19.9971C20.4182 20.0002 20.4036 19.9999 20.3896 19.9965C20.3757 19.993 20.3627 19.9864 20.3516 19.9771V19.9771ZM21.178 20.0039C21.1598 19.9885 21.1481 19.9667 21.1454 19.943C21.1428 19.9193 21.1492 19.8954 21.1635 19.8763C21.1777 19.8571 21.1988 19.8442 21.2223 19.84C21.2457 19.8358 21.27 19.8407 21.29 19.8537C21.4437 19.9528 21.6103 20.0303 21.7851 20.084C21.8088 20.0915 21.8286 20.1081 21.8402 20.1301C21.8517 20.1522 21.854 20.1779 21.8466 20.2017C21.8391 20.2255 21.8225 20.2453 21.8005 20.2568C21.7784 20.2684 21.7526 20.2707 21.7289 20.2632C21.5377 20.2043 21.3554 20.1194 21.1873 20.0109C21.1841 20.0088 21.1809 20.0064 21.178 20.0039V20.0039ZM20.7542 19.6212C20.7496 19.6174 20.7454 19.6131 20.7417 19.6084C20.6166 19.452 20.5136 19.2791 20.4358 19.0946C20.4262 19.0717 20.426 19.046 20.4353 19.0231C20.4446 19.0001 20.4626 18.9818 20.4854 18.972C20.5082 18.9623 20.5339 18.9619 20.5569 18.971C20.5799 18.9802 20.5984 18.998 20.6084 19.0207C20.6794 19.1894 20.7734 19.3474 20.8876 19.4904C20.9023 19.5085 20.9097 19.5315 20.9083 19.5548C20.907 19.5781 20.897 19.6001 20.8803 19.6164C20.8637 19.6328 20.8415 19.6423 20.8182 19.6432C20.7949 19.6441 20.7721 19.6362 20.7542 19.6212V19.6212ZM22.2586 20.3572C22.2433 20.3443 22.2325 20.3268 22.2278 20.3073C22.2231 20.2878 22.2248 20.2673 22.2326 20.2489C22.2404 20.2304 22.2539 20.2149 22.2712 20.2047C22.2884 20.1944 22.3085 20.19 22.3284 20.192C22.5145 20.2098 22.7017 20.2142 22.8884 20.2051C22.9007 20.2045 22.913 20.2064 22.9246 20.2106C22.9362 20.2148 22.9468 20.2212 22.9559 20.2295C22.965 20.2378 22.9724 20.2479 22.9776 20.259C22.9829 20.2702 22.9858 20.2823 22.9864 20.2946C22.987 20.3069 22.9851 20.3192 22.9809 20.3308C22.9767 20.3424 22.9702 20.353 22.9619 20.3621C22.9536 20.3712 22.9436 20.3786 22.9324 20.3838C22.9213 20.3891 22.9092 20.3921 22.8969 20.3926C22.7011 20.4021 22.5049 20.3975 22.3098 20.3787C22.2909 20.3769 22.273 20.3693 22.2585 20.3571L22.2586 20.3572ZM21.4472 19.6406C21.435 19.6304 21.4256 19.6172 21.42 19.6023C21.4143 19.5874 21.4126 19.5713 21.4149 19.5555C21.4171 19.5398 21.4234 19.5248 21.433 19.5121C21.4427 19.4995 21.4554 19.4894 21.47 19.483C21.639 19.4123 21.7981 19.3199 21.9433 19.2082C21.9627 19.1926 21.9875 19.1853 22.0123 19.188C22.037 19.1906 22.0597 19.203 22.0753 19.2224C22.091 19.2418 22.0983 19.2665 22.0956 19.2913C22.0929 19.3161 22.0806 19.3387 22.0612 19.3544C21.9031 19.4765 21.7297 19.5775 21.5456 19.6548C21.5294 19.6619 21.5117 19.6644 21.4942 19.6618C21.4768 19.6593 21.4604 19.6519 21.447 19.6405L21.4472 19.6406ZM20.3094 18.5784C20.2904 18.5623 20.2786 18.5395 20.2764 18.5147C20.2569 18.289 20.3046 18.1062 20.4187 17.9711C20.4368 17.9496 20.4565 17.9295 20.4777 17.9109C20.4963 17.8944 20.5208 17.8861 20.5457 17.8877C20.5705 17.8893 20.5937 17.9007 20.6101 17.9194C20.6266 17.9381 20.6349 17.9626 20.6333 17.9874C20.6317 18.0122 20.6203 18.0354 20.6016 18.0519C20.5875 18.0643 20.5742 18.0778 20.5621 18.0922C20.4815 18.1877 20.4483 18.3244 20.4634 18.4986C20.465 18.5171 20.4611 18.5357 20.4521 18.552C20.4432 18.5683 20.4296 18.5815 20.4131 18.5901C20.3966 18.5986 20.3779 18.6021 20.3594 18.6C20.341 18.5979 20.3235 18.5904 20.3093 18.5785L20.3094 18.5784ZM23.4033 20.3128C23.3895 20.3012 23.3794 20.2859 23.3741 20.2686C23.3688 20.2514 23.3686 20.233 23.3735 20.2156C23.3784 20.1983 23.3882 20.1827 23.4017 20.1708C23.4152 20.1589 23.4319 20.1511 23.4497 20.1484C23.6281 20.1212 23.8152 20.0846 24.0059 20.0396C24.03 20.034 24.0554 20.0383 24.0764 20.0514C24.0975 20.0645 24.1125 20.0853 24.1182 20.1095C24.1239 20.1336 24.1198 20.159 24.1069 20.1801C24.0939 20.2012 24.0731 20.2164 24.0491 20.2222C23.8535 20.2685 23.6613 20.306 23.4779 20.3339C23.4647 20.336 23.4511 20.3351 23.4382 20.3315C23.4253 20.3278 23.4134 20.3214 23.4031 20.3127L23.4033 20.3128ZM21.0189 17.9055C21.0039 17.8928 20.9932 17.8757 20.9884 17.8566C20.9836 17.8375 20.985 17.8173 20.9923 17.799C20.9995 17.7807 21.0124 17.7652 21.029 17.7546C21.0456 17.744 21.0652 17.7389 21.0848 17.7401C21.2877 17.754 21.4864 17.8041 21.6716 17.888C21.6938 17.8985 21.711 17.9172 21.7195 17.9402C21.728 17.9632 21.7273 17.9886 21.7173 18.011C21.7074 18.0334 21.689 18.051 21.6663 18.06C21.6435 18.0691 21.6181 18.0689 21.5955 18.0595C21.4309 17.9852 21.2545 17.9405 21.0743 17.9275C21.0539 17.9263 21.0344 17.9185 21.0189 17.9053L21.0189 17.9055ZM22.2467 18.884C22.2347 18.8739 22.2255 18.861 22.2198 18.8464C22.2141 18.8317 22.2121 18.8159 22.2141 18.8004C22.2375 18.6172 22.1303 18.4598 22.0363 18.3601C22.0277 18.3511 22.0209 18.3405 22.0164 18.329C22.012 18.3174 22.0098 18.3051 22.0101 18.2927C22.0104 18.2803 22.0132 18.268 22.0182 18.2567C22.0233 18.2454 22.0305 18.2351 22.0396 18.2266C22.0486 18.2181 22.0592 18.2115 22.0709 18.2071C22.0825 18.2028 22.0948 18.2007 22.1072 18.2012C22.1196 18.2016 22.1318 18.2045 22.1431 18.2097C22.1544 18.2149 22.1645 18.2222 22.1729 18.2313C22.3475 18.4166 22.426 18.6217 22.4003 18.8241C22.3982 18.8409 22.3916 18.8567 22.3812 18.87C22.3708 18.8833 22.357 18.8936 22.3413 18.8997C22.3256 18.9059 22.3085 18.9076 22.2918 18.9049C22.2752 18.9021 22.2596 18.8949 22.2467 18.884L22.2467 18.884ZM24.5213 20.0516C24.5084 20.0407 24.4987 20.0266 24.4932 20.0107C24.4876 19.9947 24.4865 19.9776 24.4899 19.9611C24.4933 19.9446 24.501 19.9293 24.5124 19.9168C24.5237 19.9043 24.5382 19.8951 24.5543 19.8902C24.7321 19.8357 24.9135 19.7742 25.0935 19.7076C25.1051 19.7033 25.1174 19.7012 25.1298 19.7016C25.1422 19.702 25.1543 19.7049 25.1656 19.71C25.1769 19.7151 25.187 19.7225 25.1955 19.7315C25.2039 19.7406 25.2104 19.7512 25.2147 19.7629C25.219 19.7745 25.221 19.7868 25.2205 19.7992C25.22 19.8116 25.2171 19.8237 25.2118 19.8349C25.2066 19.8462 25.1992 19.8563 25.1901 19.8646C25.181 19.873 25.1703 19.8795 25.1586 19.8837C24.9753 19.9515 24.7905 20.0141 24.6094 20.0697C24.5943 20.0743 24.5783 20.0751 24.5629 20.0719C24.5474 20.0688 24.533 20.0618 24.521 20.0516L24.5213 20.0516Z" fill="white"/>
<path d="M18.3652 20.2575C18.351 20.2455 18.3407 20.2297 18.3356 20.2118C18.3304 20.194 18.3307 20.1751 18.3362 20.1574C18.3418 20.1397 18.3526 20.1241 18.367 20.1125C18.3815 20.1009 18.3991 20.0939 18.4176 20.0922C18.5128 20.0842 18.6059 20.0757 18.6968 20.0667C18.7216 20.0643 18.7463 20.0718 18.7656 20.0876C18.7848 20.1034 18.797 20.1262 18.7994 20.151C18.8018 20.1758 18.7943 20.2005 18.7785 20.2197C18.7627 20.239 18.7399 20.2511 18.7151 20.2535C18.6234 20.2625 18.5295 20.2711 18.4335 20.2793C18.4213 20.2803 18.4089 20.2789 18.3972 20.2752C18.3855 20.2715 18.3746 20.2654 18.3652 20.2575V20.2575Z" fill="white"/>
<path d="M36.4782 31.2764L35.8373 34.7173L30.8115 31.1524L30.9792 30.252L36.4782 31.2764Z" fill="#2F54EB"/>
</svg>
