<svg width="16" height="15" viewBox="0 0 16 15" fill="none" xmlns="http://www.w3.org/2000/svg">
<path d="M7.53133 6.16667H8.46883C8.55217 6.16667 8.59383 6.18642 8.59383 6.22593V8.23958H10.6047C10.6461 8.23958 10.6667 8.28125 10.6667 8.36458V9.30208C10.6667 9.38542 10.6461 9.42708 10.6047 9.42708H8.59383V11.4407C8.59383 11.4802 8.55217 11.5 8.46883 11.5H7.53133C7.448 11.5 7.40633 11.4802 7.40633 11.4407V9.42708H5.39543C5.35409 9.42708 5.33342 9.38542 5.33342 9.30208V8.36458C5.33342 8.28125 5.35409 8.23958 5.39543 8.23958H7.40633V6.22593C7.40633 6.18642 7.448 6.16667 7.53133 6.16667Z" fill="#2F54EB"/>
<path fill-rule="evenodd" clip-rule="evenodd" d="M14.7892 7.39067C14.9782 7.57973 15.0829 7.83129 15.0829 8.09692C15.0835 8.22836 15.0579 8.3586 15.0077 8.4801C14.9576 8.60159 14.8838 8.71193 14.7907 8.80473C14.6017 8.99379 14.3501 9.09848 14.0829 9.09848H13.4048V14.1875H2.59543V9.09848H1.93136C1.38136 9.09848 0.923551 8.65942 0.917301 8.10942C0.915782 7.97606 0.940993 7.84376 0.991445 7.72031C1.0419 7.59687 1.11657 7.48478 1.21105 7.39067L7.65324 0.951602C7.74545 0.860003 7.87014 0.808594 8.00011 0.808594C8.13009 0.808594 8.25478 0.860003 8.34699 0.951602L14.7892 7.39067ZM12.2798 13.0625V7.97348H13.7814L8.00168 2.19691L2.22043 7.97348H3.72043V13.0625H12.2798Z" fill="#2F54EB"/>
</svg>
