<svg width="121" height="120" viewBox="0 0 121 120" fill="none" xmlns="http://www.w3.org/2000/svg">
<rect x="8.4585" y="22.4609" width="84.7038" height="20.7366" rx="2" fill="#D9D9D9"/>
<rect x="36.2246" y="27.207" width="18.3228" height="3.51465" rx="1.75732" fill="#BFBFBF"/>
<rect x="36.2246" y="34.9375" width="28.9961" height="3.51464" rx="1.75732" fill="#E8E8E8"/>
<rect x="20.0923" y="26.8438" width="11.7845" height="11.7845" rx="2" fill="#F5F5F5"/>
<rect width="84.7038" height="20.7366" rx="2" transform="matrix(-1 0 0 1 112.63 47.7656)" fill="#E8E8E8"/>
<rect width="18.3228" height="3.51465" rx="1.75732" transform="matrix(-1 0 0 1 74.3818 52.5117)" fill="#BFBFBF"/>
<rect width="28.9961" height="3.51464" rx="1.75732" transform="matrix(-1 0 0 1 84.8638 60.2422)" fill="#FAFAFA"/>
<rect x="39.1724" y="51.9727" width="11.7845" height="11.7845" rx="2" fill="#FAFAFA"/>
<rect x="12.1206" y="73.0742" width="84.7038" height="20.7366" rx="2" fill="#D9D9D9"/>
<rect x="39.8867" y="77.8203" width="18.3228" height="3.51465" rx="1.75732" fill="#BFBFBF"/>
<rect x="39.8867" y="85.5508" width="28.9961" height="3.51465" rx="1.75732" fill="#E8E8E8"/>
<rect x="23.8018" y="77.457" width="11.7845" height="11.7845" rx="2" fill="#F5F5F5"/>
</svg>
