<svg width="16" height="16" viewBox="0 0 16 16" fill="none" xmlns="http://www.w3.org/2000/svg">
<path d="M0.96875 14.4688V1.53125C0.96875 1.22012 1.22012 0.96875 1.53125 0.96875H7.85938C7.93672 0.96875 8 1.03203 8 1.10937V2.09375C8 2.17109 7.93672 2.23437 7.85938 2.23437L2.23438 2.23437L2.23438 13.7656H13.7656V8.14062C13.7656 8.06328 13.8289 8 13.9062 8H14.8906C14.968 8 15.0312 8.06328 15.0312 8.14062V14.4688C15.0312 14.7799 14.7799 15.0312 14.4688 15.0312H1.53125C1.22012 15.0312 0.96875 14.7799 0.96875 14.4688Z" fill="#1890FF"/>
<path d="M13.4996 3.44911L14.4172 4.36669C14.4359 4.38528 14.4594 4.39825 14.4851 4.40413C14.5108 4.41001 14.5376 4.40857 14.5625 4.39996C14.5874 4.39135 14.6094 4.37593 14.626 4.35544C14.6426 4.33495 14.6531 4.31023 14.6563 4.28407L15.0254 1.13056C15.036 1.04091 14.9604 0.963564 14.869 0.974111L11.7155 1.34325C11.5994 1.35731 11.5502 1.4997 11.6328 1.58231L12.5539 2.50341L8.05041 7.00692C7.99592 7.06142 7.99592 7.15106 8.05041 7.20556L8.79572 7.95087C8.85022 8.00536 8.93986 8.00536 8.99436 7.95087L13.4996 3.44911Z" fill="#1890FF"/>
</svg>
