<svg width="181" height="180" viewBox="0 0 181 180" fill="none" xmlns="http://www.w3.org/2000/svg">
<path d="M152.813 21.4453H40.8431C37.2018 21.4453 34.25 24.3888 34.25 28.0198V139.675C34.25 143.306 37.2018 146.25 40.8431 146.25H152.813C156.454 146.25 159.406 143.306 159.406 139.675V28.0198C159.406 24.3888 156.454 21.4453 152.813 21.4453Z" fill="#597EF7"/>
<path d="M139.824 33.3984H28.1683C24.5373 33.3984 21.5938 36.3502 21.5938 39.9915V151.962C21.5938 155.603 24.5373 158.555 28.1683 158.555H139.824C143.455 158.555 146.398 155.603 146.398 151.962V39.9915C146.398 36.3502 143.455 33.3984 139.824 33.3984Z" fill="#D6E4FF"/>
<path fill-rule="evenodd" clip-rule="evenodd" d="M101.398 138.164C99.1999 122.364 85.7619 103.711 69.4665 103.711C52.8991 103.711 39.264 121.978 37.4141 138.164C50.4871 138.164 84.5971 138.164 101.398 138.164Z" fill="#597EF7"/>
<path fill-rule="evenodd" clip-rule="evenodd" d="M88.3906 90.3511C88.3906 100.836 79.8912 109.336 69.4072 109.336C58.9213 109.336 50.4219 100.836 50.4219 90.3511C50.4219 79.8659 58.9213 71.3672 69.4072 71.3672C79.8912 71.3672 88.3906 79.8659 88.3906 90.3511Z" fill="#597EF7"/>
<path d="M132.189 45.3516H102.6C100.965 45.3516 99.6406 46.6895 99.6406 48.3398C99.6406 49.9902 100.965 51.3281 102.6 51.3281H132.189C133.824 51.3281 135.148 49.9902 135.148 48.3398C135.148 46.6895 133.824 45.3516 132.189 45.3516Z" fill="#597EF7"/>
<path d="M132.189 56.9531H102.6C100.965 56.9531 99.6406 58.291 99.6406 59.9414C99.6406 61.5918 100.965 62.9297 102.6 62.9297H132.189C133.824 62.9297 135.148 61.5918 135.148 59.9414C135.148 58.291 133.824 56.9531 132.189 56.9531Z" fill="#597EF7"/>
</svg>
