<svg width="181" height="180" viewBox="0 0 181 180" fill="none" xmlns="http://www.w3.org/2000/svg">
<rect width="180" height="180" transform="translate(0.5)" fill="white"/>
<path d="M137.871 10.5811H59.3809C56.9257 10.5811 54.9353 12.565 54.9353 15.0124V135.95C54.9353 138.398 56.9257 140.382 59.3809 140.382H156.999C159.454 140.382 161.444 138.398 161.444 135.95V34.259L137.871 10.5811Z" fill="#ADC6FF"/>
<path d="M137.871 10.3965L137.909 29.837C137.909 32.2844 139.899 34.2683 142.354 34.2683H161.444" fill="#F0F5FF"/>
<path d="M102.312 31.0903H24.0014C21.5461 31.0903 19.5558 33.0743 19.5558 35.5216V156.46C19.5558 158.907 21.5461 160.891 24.0014 160.891H121.804C124.26 160.891 126.25 158.907 126.25 156.46V56.9821H109.166C106.712 56.9821 102.312 54.9991 102.312 52.5508V31.0903Z" fill="#F0F5FF"/>
<path d="M51.885 42.894H34.272C32.5885 42.894 31.2236 44.2589 31.2236 45.9424V63.4793C31.2236 65.1629 32.5885 66.5277 34.272 66.5277H51.885C53.5686 66.5277 54.9334 65.1629 54.9334 63.4793V45.9424C54.9334 44.2589 53.5686 42.894 51.885 42.894Z" fill="#D6E4FF"/>
<path d="M113.101 78.3447H32.3306C31.7192 78.3447 31.2236 78.8403 31.2236 79.4517V83.1462C31.2236 83.7575 31.7192 84.2531 32.3306 84.2531H113.101C113.712 84.2531 114.208 83.7575 114.208 83.1462V79.4517C114.208 78.8403 113.712 78.3447 113.101 78.3447Z" fill="#D6E4FF"/>
<path d="M113.088 96.0811H32.3179C31.7065 96.0811 31.2109 96.5767 31.2109 97.188V100.883C31.2109 101.494 31.7065 101.989 32.3179 101.989H113.088C113.7 101.989 114.195 101.494 114.195 100.883V97.188C114.195 96.5767 113.7 96.0811 113.088 96.0811Z" fill="#D6E4FF"/>
<path d="M113.257 113.806H32.4868C31.8755 113.806 31.3799 114.302 31.3799 114.913V118.608C31.3799 119.219 31.8755 119.715 32.4868 119.715H113.257C113.869 119.715 114.364 119.219 114.364 118.608V114.913C114.364 114.302 113.869 113.806 113.257 113.806Z" fill="#D6E4FF"/>
<path d="M102.312 31.0903V52.5508C102.312 54.9981 104.303 56.9821 106.758 56.9821H126.25" fill="white"/>
<path fill-rule="evenodd" clip-rule="evenodd" d="M133.566 103.189C114.153 103.189 98.4156 118.926 98.4156 138.34C98.4156 157.753 114.153 173.49 133.566 173.49C152.98 173.49 168.717 157.753 168.717 138.34C168.717 118.926 152.98 103.189 133.566 103.189Z" fill="#85A5FF"/>
<path fill-rule="evenodd" clip-rule="evenodd" d="M141.866 124.548C143.715 126.208 144.664 128.484 144.664 131.328C144.664 133.652 144.047 135.596 142.909 137.113C142.483 137.634 141.155 138.867 138.879 140.811C138.026 141.57 137.362 142.376 136.935 143.229C136.414 144.178 136.176 145.221 136.176 146.406V147.531C136.176 148.001 135.795 148.382 135.325 148.382H131.954C131.484 148.382 131.103 148.001 131.103 147.531V146.406C131.103 144.652 131.388 143.134 132.004 141.902C132.668 140.574 134.47 138.63 137.409 136.022L138.215 135.122C139.069 134.031 139.496 132.893 139.496 131.66C139.496 130.001 139.021 128.721 138.121 127.772C137.172 126.824 135.845 126.35 134.138 126.35C132.004 126.35 130.439 127.014 129.491 128.341C128.749 129.33 128.33 130.713 128.233 132.427C128.208 132.876 127.833 133.225 127.384 133.225H124.059C123.573 133.225 123.183 132.819 123.208 132.334C123.367 129.296 124.359 126.887 126.22 125.07C128.211 123.031 130.961 122.035 134.422 122.035C137.504 122.035 139.97 122.841 141.866 124.548Z" fill="white"/>
<path fill-rule="evenodd" clip-rule="evenodd" d="M134.054 156.102H132.799C131.759 156.102 130.916 155.259 130.916 154.219V152.964C130.916 151.924 131.759 151.081 132.799 151.081H134.054C135.094 151.081 135.937 151.924 135.937 152.964V154.219C135.937 155.259 135.094 156.102 134.054 156.102Z" fill="white"/>
</svg>
