<svg width="306" height="288" viewBox="0 0 306 288" fill="none" xmlns="http://www.w3.org/2000/svg">
<g id="No Results">
<g id="circle">
<path id="Stroke 1" d="M13.5132 131.669V134.625" stroke="#D9D9D9" stroke-linecap="round"/>
<g id="Group 8">
<path id="Stroke 2" d="M6.87451 133.258L9.28965 135.744" stroke="#D9D9D9" stroke-linecap="round"/>
<path id="Stroke 4" d="M4.04956 139.881H7.46454" stroke="#D9D9D9" stroke-linecap="round"/>
<path id="Stroke 6" d="M6.59692 146.608L9.01206 144.122" stroke="#D9D9D9" stroke-linecap="round"/>
</g>
<path id="Stroke 9" d="M13.5132 147.421V144.466" stroke="#D9D9D9" stroke-linecap="round"/>
<path id="Stroke 10" d="M18.4389 145.469L16.4685 143.499" stroke="#D9D9D9" stroke-linecap="round"/>
<path id="Stroke 11" d="M22.3794 140.522H19.4238" stroke="#D9D9D9" stroke-linecap="round"/>
<path id="Stroke 12" d="M20.4091 133.641L18.4387 135.611" stroke="#D9D9D9" stroke-linecap="round"/>
<path id="Stroke 13" d="M172.129 2.61328V4.58368" stroke="#D9D9D9" stroke-linecap="round"/>
<path id="Stroke 15" d="M166.218 8.52832H168.188" stroke="#D9D9D9" stroke-linecap="round"/>
<path id="Stroke 16" d="M172.129 14.4421V12.4717" stroke="#D9D9D9" stroke-linecap="round"/>
<path id="Stroke 17" d="M177.056 8.52832H175.085" stroke="#D9D9D9" stroke-linecap="round"/>
<path id="Stroke 18" d="M57.8467 85.3521V88.3076" stroke="#D9D9D9" stroke-linecap="round"/>
<path id="Stroke 19" d="M48.98 94.2422H51.9356" stroke="#D9D9D9" stroke-linecap="round"/>
<path id="Stroke 20" d="M57.8467 102.109V99.1538" stroke="#D9D9D9" stroke-linecap="round"/>
<path id="Stroke 21" d="M65.7285 94.2422H62.7729" stroke="#D9D9D9" stroke-linecap="round"/>
<g id="Group 42">
<path id="Stroke 22" d="M269.914 192.753C272.269 192.753 274.178 194.663 274.178 197.018C274.178 199.374 272.269 201.283 269.914 201.283C267.56 201.283 265.65 199.374 265.65 197.018" stroke="#D9D9D9" stroke-linecap="round"/>
<path id="Fill 26" fill-rule="evenodd" clip-rule="evenodd" d="M289.428 154.062C291.96 153.272 295.841 150.176 296.739 146.845C297.554 149.79 300.969 153.272 304.05 153.536C300.582 154.764 297.265 158.413 296.739 161.279C296.381 158.357 291.794 154.488 289.428 154.062Z" fill="#D9D9D9"/>
<path id="Fill 28" fill-rule="evenodd" clip-rule="evenodd" d="M29.5437 191.45C30.81 191.055 32.7496 189.507 33.1987 187.841C33.6061 189.313 35.3131 191.055 36.8538 191.187C35.1199 191.8 33.4622 193.625 33.1987 195.058C33.0197 193.597 30.7264 191.662 29.5437 191.45Z" fill="#D9D9D9"/>
<path id="Fill 30" fill-rule="evenodd" clip-rule="evenodd" d="M53.0429 54.3935C53.0429 56.2207 51.5625 57.7007 49.7367 57.7007C47.91 57.7007 46.4304 56.2207 46.4304 54.3935C46.4304 52.5672 47.91 51.0864 49.7367 51.0864C51.5625 51.0864 53.0429 52.5672 53.0429 54.3935Z" fill="#BFBFBF"/>
<path id="Fill 32" fill-rule="evenodd" clip-rule="evenodd" d="M273.821 63.2731C273.821 66.3259 271.346 68.8006 268.295 68.8006C265.242 68.8006 262.768 66.3259 262.768 63.2731C262.768 60.2203 265.242 57.7456 268.295 57.7456C271.346 57.7456 273.821 60.2203 273.821 63.2731Z" fill="#D9D9D9"/>
<path id="Stroke 36" fill-rule="evenodd" clip-rule="evenodd" d="M114.834 253.106C114.834 254.633 113.597 255.87 112.071 255.87C110.545 255.87 109.308 254.633 109.308 253.106C109.308 251.579 110.545 250.342 112.071 250.342C113.597 250.342 114.834 251.579 114.834 253.106Z" stroke="#D9D9D9" stroke-linecap="round"/>
<path id="Stroke 38" fill-rule="evenodd" clip-rule="evenodd" d="M113.19 33.1504C113.19 34.9775 111.71 36.4575 109.884 36.4575C108.058 36.4575 106.578 34.9775 106.578 33.1504C106.578 31.3241 108.058 29.8433 109.884 29.8433C111.71 29.8433 113.19 31.3241 113.19 33.1504Z" stroke="#D9D9D9" stroke-linecap="round"/>
<path id="Stroke 40" fill-rule="evenodd" clip-rule="evenodd" d="M197.526 283.672C195.413 284.476 193.049 283.415 192.245 281.302C191.441 279.189 192.502 276.823 194.616 276.02C196.727 275.216 199.092 276.277 199.896 278.39C200.7 280.503 199.639 282.868 197.526 283.672Z" stroke="#D9D9D9" stroke-linecap="round"/>
</g>
</g>
<g id="search">
<g id="documents">
<path id="Fill 1" fill-rule="evenodd" clip-rule="evenodd" d="M196.267 205.624H115.476C109.789 205.624 105.135 200.955 105.135 195.25V80.0382C105.135 74.3326 109.789 69.6665 115.476 69.6665H196.267C201.955 69.6665 206.61 74.3326 206.61 80.0382V195.25C206.61 200.955 201.955 205.624 196.267 205.624Z" fill="#D9D9D9"/>
<path id="Fill 3" fill-rule="evenodd" clip-rule="evenodd" d="M189.37 210.534H108.579C102.893 210.534 98.2383 205.865 98.2383 200.16V84.9483C98.2383 79.2427 102.893 74.5767 108.579 74.5767H189.37C195.059 74.5767 199.714 79.2427 199.714 84.9483V200.16C199.714 205.865 195.059 210.534 189.37 210.534Z" fill="#E8E8E8"/>
<path id="Fill 5" fill-rule="evenodd" clip-rule="evenodd" d="M182.662 214.436H101.704C96.0061 214.436 91.3418 209.787 91.3418 204.105V89.3702C91.3418 83.6883 96.0061 79.0415 101.704 79.0415H182.662C188.363 79.0415 193.027 83.6883 193.027 89.3702V204.105C193.027 209.787 188.363 214.436 182.662 214.436Z" fill="#BFBFBF"/>
<path id="Fill 8" fill-rule="evenodd" clip-rule="evenodd" d="M182.662 214.436H101.704C96.0061 214.436 91.3418 209.787 91.3418 204.105V89.3702C91.3418 83.6883 96.0061 79.0415 101.704 79.0415H182.662C188.363 79.0415 193.027 83.6883 193.027 89.3702V204.105C193.027 209.787 188.363 214.436 182.662 214.436Z" fill="white"/>
<path id="Fill 11" fill-rule="evenodd" clip-rule="evenodd" d="M170.993 114.008H111.196C109.488 114.008 108.09 112.678 108.09 111.053C108.09 109.427 109.488 108.097 111.196 108.097H170.993C172.7 108.097 174.098 109.427 174.098 111.053C174.098 112.678 172.7 114.008 170.993 114.008Z" fill="#D9D9D9"/>
<path id="Fill 13" fill-rule="evenodd" clip-rule="evenodd" d="M170.993 131.753H111.196C109.488 131.753 108.09 130.423 108.09 128.798C108.09 127.172 109.488 125.842 111.196 125.842H170.993C172.7 125.842 174.098 127.172 174.098 128.798C174.098 130.423 172.7 131.753 170.993 131.753Z" fill="#D9D9D9"/>
<path id="Fill 15" fill-rule="evenodd" clip-rule="evenodd" d="M170.993 149.461H111.196C109.488 149.461 108.09 148.132 108.09 146.507C108.09 144.882 109.488 143.55 111.196 143.55H170.993C172.7 143.55 174.098 144.882 174.098 146.507C174.098 148.132 172.7 149.461 170.993 149.461Z" fill="#D9D9D9"/>
<path id="Fill 17" fill-rule="evenodd" clip-rule="evenodd" d="M170.993 167.207H111.196C109.488 167.207 108.09 165.877 108.09 164.252C108.09 162.625 109.488 161.295 111.196 161.295H170.993C172.7 161.295 174.098 162.625 174.098 164.252C174.098 165.877 172.7 167.207 170.993 167.207Z" fill="#D9D9D9"/>
<path id="Fill 19" fill-rule="evenodd" clip-rule="evenodd" d="M142.409 184.915H111.209C109.494 184.915 108.09 183.585 108.09 181.961C108.09 180.334 109.494 179.004 111.209 179.004H142.409C144.124 179.004 145.528 180.334 145.528 181.961C145.528 183.585 144.124 184.915 142.409 184.915Z" fill="#D9D9D9"/>
</g>
<g id="search_2">
<path id="Fill 21" fill-rule="evenodd" clip-rule="evenodd" d="M205.383 162.026C193.426 173.981 174.915 175.33 161.476 166.099C159.758 164.899 158.124 163.55 156.599 162.026C155.814 161.244 155.075 160.437 154.378 159.587C152.984 157.89 151.763 156.08 150.762 154.21C149 151.051 147.801 147.699 147.147 144.235C145.036 133.37 148.192 121.676 156.599 113.273C165.026 104.845 176.722 101.709 187.589 103.8C191.051 104.474 194.406 105.673 197.565 107.415C199.438 108.438 201.223 109.658 202.923 111.052C203.77 111.747 204.578 112.489 205.36 113.273C206.887 114.797 208.256 116.429 209.434 118.149C218.669 131.583 217.317 150.093 205.383 162.026Z" fill="white" fill-opacity="0.1"/>
<path id="Fill 23" fill-rule="evenodd" clip-rule="evenodd" d="M202.037 159.674C189.597 172.116 169.438 172.114 156.996 159.674C144.57 147.248 144.57 127.086 157.012 114.647C169.438 102.221 189.597 102.221 202.023 114.647C214.463 127.086 214.463 147.248 202.037 159.674ZM208.421 108.263C192.454 92.2953 166.579 92.2953 150.611 108.263C134.646 124.228 134.632 150.119 150.598 166.086C165.13 180.614 187.907 181.924 203.928 169.996C205.493 168.829 207 167.521 208.437 166.086C209.872 164.649 211.18 163.142 212.345 161.577C224.273 145.554 222.951 122.793 208.421 108.263Z" fill="#D9D9D9"/>
<path id="Fill 25" fill-rule="evenodd" clip-rule="evenodd" d="M271.26 226.254L270.59 226.925C266.155 231.362 258.893 231.362 254.456 226.925L213.506 185.975L230.311 169.17L271.26 210.12C275.698 214.557 275.698 221.817 271.26 226.254Z" fill="#69C0FF"/>
<path id="Fill 27" fill-rule="evenodd" clip-rule="evenodd" d="M213.227 160.317L225.328 172.418L216.737 181.006L204.639 168.905C206.235 167.715 207.771 166.38 209.24 164.916C210.704 163.451 212.039 161.914 213.227 160.317Z" fill="#D9D9D9"/>
<path id="Fill 29" fill-rule="evenodd" clip-rule="evenodd" d="M270.647 209.642L253.949 226.338L250.943 223.329L267.639 206.634L270.647 209.642Z" fill="#40A9FF"/>
<path id="Fill 31" fill-rule="evenodd" clip-rule="evenodd" d="M231.239 169.747L214.084 186.903L211.535 184.354L228.69 167.199L231.239 169.747Z" fill="#40A9FF"/>
<path id="Fill 33" fill-rule="evenodd" clip-rule="evenodd" d="M193.801 110.366L151.73 152.436C150.146 149.596 149.068 146.583 148.482 143.468L184.834 107.117C187.946 107.725 190.962 108.8 193.801 110.366Z" fill="white" fill-opacity="0.5"/>
<path id="Fill 35" fill-rule="evenodd" clip-rule="evenodd" d="M207.594 120.353L162.111 163.26C160.482 162.188 158.931 160.981 157.486 159.617C156.741 158.915 156.038 158.195 155.379 157.434L201.417 114C202.223 114.624 202.988 115.288 203.73 115.99C205.176 117.354 206.477 118.814 207.594 120.353Z" fill="white" fill-opacity="0.5"/>
</g>
</g>
</g>
</svg>
