<svg width="181" height="180" viewBox="0 0 181 180" fill="none" xmlns="http://www.w3.org/2000/svg">
<rect width="180" height="180" transform="translate(0.5)" fill="white"/>
<path d="M121.703 22.5H42.2679C40.1128 22.5 38.3657 24.2458 38.3657 26.3993V137.33H109.328C109.328 149.239 119.519 157.561 131.456 157.5C143.189 157.441 152.786 147.503 152.786 135.78V53.4082H132.074C128.77 53.4082 121.703 46.1816 121.703 42.8818V22.5Z" fill="#D6E4FF"/>
<path d="M109.437 136.921H27.939C27.939 147.545 35.6936 155.225 45.8675 156.927L49.4494 157.226L131.11 157.064C119.231 157.064 109.134 147.973 109.437 136.921Z" fill="#85A5FF"/>
<path d="M73.609 32.9268H55.8052C54.963 32.9268 54.2803 33.6095 54.2803 34.4517V52.2555C54.2803 53.0977 54.963 53.7804 55.8052 53.7804H73.609C74.4512 53.7804 75.1339 53.0977 75.1339 52.2555V34.4517C75.1339 33.6095 74.4512 32.9268 73.609 32.9268Z" fill="#ADC6FF"/>
<path d="M130.682 63.9326H55.5308C54.6886 63.9326 54.0059 64.6153 54.0059 65.4575V67.6211C54.0059 68.4633 54.6886 69.146 55.5308 69.146H130.682C131.524 69.146 132.207 68.4633 132.207 67.6211V65.4575C132.207 64.6153 131.524 63.9326 130.682 63.9326Z" fill="#ADC6FF"/>
<path d="M130.682 79.5732H55.5308C54.6886 79.5732 54.0059 80.2919 54.0059 81.1784V83.4559C54.0059 84.3424 54.6886 85.061 55.5308 85.061H130.682C131.524 85.061 132.207 84.3424 132.207 83.4559V81.1784C132.207 80.2919 131.524 79.5732 130.682 79.5732Z" fill="#ADC6FF"/>
<path d="M130.682 95.2134H55.5308C54.6886 95.2134 54.0059 95.8961 54.0059 96.7383V98.9019C54.0059 99.7441 54.6886 100.427 55.5308 100.427H130.682C131.524 100.427 132.207 99.7441 132.207 98.9019V96.7383C132.207 95.8961 131.524 95.2134 130.682 95.2134Z" fill="#ADC6FF"/>
<path opacity="0.6" d="M121.78 48.2925V52.4721C121.78 53.3702 122.145 54.2278 122.787 54.8388C123.428 55.4498 124.289 55.759 125.163 55.692L153.061 53.5638L121.78 48.2925Z" fill="#ADC6FF"/>
<path d="M137.968 38.1402L121.78 22.5L121.823 52.4754C121.823 53.1962 122.406 53.7805 123.125 53.7805H153.061L137.968 38.1402Z" fill="#F0F5FF"/>
</svg>
