<svg width="64" height="40" viewBox="0 0 64 40" fill="none" xmlns="http://www.w3.org/2000/svg">
<path d="M32 40.0003C49.3149 40.0003 63.3514 36.9428 63.3514 33.1711C63.3514 29.3994 49.3149 26.3418 32 26.3418C14.6852 26.3418 0.648682 29.3994 0.648682 33.1711C0.648682 36.9428 14.6852 40.0003 32 40.0003Z" fill="#F5F5F5"/>
<path d="M54.5339 13.4253L44.5935 2.20388C44.1164 1.439 43.4198 0.976562 42.686 0.976562H21.3142C20.5804 0.976562 19.8838 1.439 19.4066 2.2029L9.46631 13.4263V22.44H54.5339V13.4253Z" stroke="#D9D9D9"/>
<path d="M41.4182 16.5197C41.4182 14.9538 42.3921 13.6611 43.6001 13.6602H54.5339V31.3548C54.5339 33.426 53.2406 35.1236 51.6437 35.1236H12.3565C10.7596 35.1236 9.46631 33.425 9.46631 31.3548V13.6602H20.4001C21.6081 13.6602 22.5819 14.9509 22.5819 16.5167V16.5382C22.5819 18.1041 23.5666 19.3684 24.7736 19.3684H39.2266C40.4336 19.3684 41.4182 18.0924 41.4182 16.5265V16.5197Z" fill="#FAFAFA" stroke="#D9D9D9"/>
</svg>
