<svg width="181" height="180" viewBox="0 0 181 180" fill="none" xmlns="http://www.w3.org/2000/svg">
<rect width="180" height="180" transform="translate(0.5)" fill="white"/>
<path fill-rule="evenodd" clip-rule="evenodd" d="M117.759 101.893C106.121 101.893 96.664 92.4063 96.664 80.6733C96.6237 69.0158 106.05 59.5331 117.72 59.4927C117.733 59.4927 117.746 59.4927 117.759 59.4927C129.391 59.4927 138.848 68.9794 138.848 80.7062C138.828 92.4063 129.391 101.887 117.759 101.893ZM170.246 73.2935C169.836 70.9814 167.621 68.6161 165.306 68.1077L163.58 67.7112C159.39 66.4417 155.842 63.6231 153.661 59.8295C151.457 55.9976 150.804 51.469 151.836 47.1713L152.378 45.5463C153.072 43.2933 152.173 40.1818 150.367 38.6427C150.367 38.6427 148.747 37.2684 144.198 34.6257C139.628 31.9965 137.671 31.2629 137.671 31.2629C135.449 30.4438 132.341 31.23 130.714 32.9607L129.517 34.2492C126.355 37.2716 122.142 38.9505 117.766 38.9334C113.366 38.9455 109.132 37.2523 105.955 34.2095L104.805 32.9543C103.204 31.2236 100.076 30.457 97.8476 31.2629C97.8476 31.2629 95.8636 31.9965 91.3009 34.6257C86.7317 37.2881 85.1245 38.6624 85.1245 38.6624C83.3256 40.1883 82.4266 43.2672 83.1209 45.5463L83.6169 47.1913C84.6368 51.4829 83.9844 56.0012 81.7914 59.8295C79.6138 63.6542 76.037 66.486 71.8124 67.7309L70.153 68.1077C67.8781 68.6361 65.6365 70.9682 65.2131 73.2935C65.2131 73.2935 64.8359 75.3814 64.8359 80.6798C64.8359 85.9781 65.2131 88.0592 65.2131 88.0592C65.6232 90.3981 67.8384 92.7366 70.153 93.2454L71.7731 93.6218C76.0052 94.8706 79.5895 97.7115 81.7653 101.55C84.0399 105.534 84.5892 110.065 83.5904 114.208L83.1209 115.813C82.4266 118.066 83.3256 121.178 85.131 122.717C85.131 122.717 86.7514 124.091 91.3009 126.734C95.8704 129.377 97.8343 130.097 97.8343 130.097C100.05 130.916 103.165 130.13 104.792 128.399L105.928 127.17C112.542 120.847 122.964 120.854 129.57 127.183L130.707 128.418C132.307 130.143 135.436 130.916 137.664 130.11C137.664 130.11 139.648 129.377 144.218 126.747C148.781 124.104 150.381 122.73 150.381 122.73C152.186 121.211 153.086 118.106 152.391 115.826L151.895 114.161C150.871 109.885 151.524 105.38 153.72 101.57C155.909 97.7436 159.487 94.905 163.712 93.6419L165.339 93.265C167.614 92.7366 169.856 90.4045 170.279 88.0789C170.279 88.0789 170.656 85.9914 170.656 80.6994C170.616 75.3946 170.246 73.2935 170.246 73.2935Z" fill="#ADC6FF"/>
<path fill-rule="evenodd" clip-rule="evenodd" d="M44.4216 129.44C38.6876 132.694 31.3687 130.668 28.0786 124.895C24.7904 119.169 26.7752 111.867 32.5132 108.585L32.5326 108.574C38.2631 105.323 45.5823 107.348 48.8701 113.119C52.1412 118.882 50.1504 126.185 44.4216 129.44ZM62.2604 100.694C61.4097 99.6705 59.6558 99.1255 58.3726 99.5223L57.4111 99.8096C54.9906 100.357 52.4525 99.961 50.3144 98.7042C48.1545 97.4345 46.5625 95.3881 45.8655 92.9849L45.6774 92.0337C45.3875 90.7311 44.0719 89.451 42.7512 89.1981C42.7512 89.1981 41.5675 88.9748 38.5854 88.9464C35.5966 88.9298 34.4268 89.1159 34.4268 89.1159C33.1025 89.3341 31.7913 90.5896 31.4756 91.8965L31.2467 92.8648C30.5363 95.2364 28.932 97.24 26.7713 98.4549C24.6066 99.691 22.046 100.041 19.6282 99.4318L18.7091 99.1358C17.4351 98.7315 15.6795 99.2287 14.8079 100.248C14.8079 100.248 14.0356 101.164 12.5252 103.733C11.0203 106.321 10.614 107.446 10.614 107.446C10.1562 108.7 10.576 110.467 11.5573 111.394L12.2626 112.065C13.9687 113.892 14.914 116.298 14.9077 118.795C14.9069 121.286 13.9386 123.679 12.2064 125.472L11.4944 126.122C10.5217 127.018 10.0714 128.792 10.515 130.055C10.515 130.055 10.915 131.188 12.4004 133.795C13.8863 136.402 14.6554 137.321 14.6554 137.321C15.5132 138.357 17.26 138.889 18.5427 138.493L19.4469 138.225C21.882 137.656 24.4447 138.052 26.5923 139.333C28.8302 140.657 30.3711 142.735 31.0408 145.052L31.2598 145.973C31.5493 147.276 32.8649 148.556 34.186 148.809C34.186 148.809 35.3697 149.032 38.3522 149.061C41.3441 149.084 42.5139 148.889 42.5139 148.889C43.8351 148.673 45.1487 147.415 45.4651 146.109L45.6809 145.186C47.166 140.226 52.302 137.316 57.3315 138.584L58.2384 138.874C59.5104 139.275 61.268 138.781 62.1396 137.761C62.1396 137.761 62.9114 136.846 64.4254 134.275C65.9323 131.699 66.3354 130.575 66.3354 130.575C66.7988 129.323 66.3715 127.543 65.3902 126.616L64.6789 125.935C62.9756 124.117 62.0339 121.717 62.0473 119.228C62.0525 116.734 63.0196 114.336 64.747 112.533L65.4428 111.894C66.4155 110.997 66.8661 109.223 66.4226 107.96C66.4226 107.96 66.023 106.828 64.5391 104.224C63.0318 101.624 62.2604 100.694 62.2604 100.694Z" fill="#597EF7"/>
<path fill-rule="evenodd" clip-rule="evenodd" d="M55.4321 40.0781H23.6148C21.5365 40.0781 19.8359 38.2561 19.8359 36.0294V35.6897C19.8359 33.4626 21.5365 31.6406 23.6148 31.6406H55.4321C57.5104 31.6406 59.2109 33.4626 59.2109 35.6897V36.0294C59.2109 38.2561 57.5104 40.0781 55.4321 40.0781Z" fill="#D6E4FF"/>
<path fill-rule="evenodd" clip-rule="evenodd" d="M49.5682 57.6562H29.4791C27.26 57.6562 25.4609 55.7676 25.4609 53.4377C25.4609 51.1078 27.26 49.2188 29.4791 49.2188H49.5682C51.7872 49.2188 53.5859 51.1078 53.5859 53.4377C53.5859 55.7676 51.7872 57.6562 49.5682 57.6562Z" fill="#D6E4FF"/>
</svg>
