<svg width="22" height="22" viewBox="0 0 22 22" fill="none" xmlns="http://www.w3.org/2000/svg">
<path d="M6.49563 9.13459C6.02517 9.22024 5.56666 9.36189 5.12988 9.55653C4.69152 9.75425 4.27786 10.0027 3.89738 10.2968C3.53604 9.90779 3.23421 9.46752 3.00168 8.99024C2.76476 8.51262 2.59535 8.0044 2.49832 7.48015C2.92792 7.1833 3.39616 6.94669 3.88997 6.77692C4.40314 6.60034 4.93926 6.49936 5.48149 6.47712C5.5406 6.94784 5.65489 7.40996 5.82201 7.85397C5.99235 8.30723 6.21864 8.73743 6.49563 9.13459Z" fill="#7CB305"/>
<path d="M9.13829 6.49193L9.13911 6.48739L9.14569 6.49193H9.13829Z" fill="#7CB305"/>
<path d="M9.13911 6.48739C8.34899 5.9437 7.43992 5.59746 6.48822 5.47779C6.50863 4.94717 6.60587 4.4223 6.77692 3.91958C6.94755 3.4155 7.18667 2.93727 7.48755 2.49832C8.54191 2.68597 9.52054 3.17143 10.3079 3.89738C10.0146 4.27176 9.76615 4.6792 9.56763 5.11137C9.3693 5.55089 9.2254 6.01299 9.13911 6.48739Z" fill="#7CB305"/>
<path d="M16.574 5.43338C17.0916 5.45276 17.6048 5.53478 18.1026 5.67766C18.6304 5.82816 19.1386 6.0406 19.6164 6.31056C19.6115 5.75759 19.5344 5.20762 19.3869 4.67463C19.2478 4.16865 19.0477 3.68146 18.791 3.22376C18.3336 2.9656 17.8464 2.76425 17.3402 2.62416C16.8059 2.47674 16.2547 2.3996 15.7005 2.39468C15.9709 2.87152 16.1845 3.37832 16.3371 3.90478C16.4755 4.40331 16.555 4.91634 16.574 5.43338Z" fill="#7CB305"/>
<path d="M11.0222 3.12382C11.3983 2.77644 11.8131 2.47342 12.2584 2.22073C12.7381 1.95552 13.2475 1.74804 13.7759 1.60262C13.0019 0.843027 12.0482 0.291699 11.0037 0C10.498 0.139717 10.0118 0.342402 9.55653 0.603297C9.07435 0.875821 8.63009 1.21057 8.2352 1.59892C8.76355 1.7463 9.27284 1.95499 9.75269 2.22073C10.2027 2.47315 10.6224 2.77615 11.0037 3.12382H11.0222Z" fill="#7CB305"/>
<path d="M3.91588 11.7106L3.9081 11.7191L3.89738 11.7106H3.91588Z" fill="#7CB305"/>
<path d="M3.9081 11.7191C4.27926 12.0101 4.68307 12.257 5.11137 12.4546C5.55107 12.6567 6.01512 12.8011 6.49193 12.8839C6.22152 13.278 5.99911 13.7029 5.82941 14.1497C5.65729 14.5993 5.53926 15.0677 5.47779 15.5451C4.95268 15.5181 4.43415 15.4159 3.93809 15.2416C3.43387 15.0697 2.95564 14.8293 2.51682 14.5273C2.60983 14.0139 2.77298 13.5157 3.00168 13.0468C3.23782 12.5626 3.54316 12.1153 3.9081 11.7191Z" fill="#7CB305"/>
<path d="M5.45188 5.41857C5.47155 4.90107 5.55357 4.38783 5.69616 3.88997C5.84761 3.36368 6.06002 2.85688 6.32907 2.37988C5.23896 2.39192 4.17002 2.6824 3.22376 3.22376C2.69061 4.16594 2.40534 5.22804 2.39468 6.31056C2.87169 6.04152 3.37849 5.82911 3.90478 5.67766C4.40264 5.53507 4.91588 5.45305 5.43338 5.43338L5.45188 5.41857Z" fill="#7CB305"/>
<path d="M11.7439 3.88257C12.0368 4.26386 12.2852 4.67738 12.4842 5.11507C12.6801 5.55171 12.823 6.01022 12.9098 6.48082C13.307 6.20384 13.7372 5.97754 14.1904 5.8072C14.6279 5.64681 15.0825 5.53751 15.5451 5.48149C15.5192 4.93968 15.4183 4.40407 15.2453 3.88997C15.0742 3.39601 14.8364 2.92778 14.5384 2.49832C14.0141 2.59535 13.5059 2.76476 13.0283 3.00168C12.5482 3.23334 12.1054 3.53522 11.7143 3.89738L11.7439 3.88257Z" fill="#7CB305"/>
<path d="M19.5387 7.46534C19.0997 7.16446 18.6215 6.92535 18.1174 6.75471C17.6147 6.58366 17.0898 6.48642 16.5592 6.46602C16.4972 6.94175 16.3805 7.40872 16.2113 7.85767C16.0403 8.30458 15.8167 8.72952 15.5451 9.12349C16.0211 9.20968 16.4847 9.35386 16.9256 9.55283C17.3585 9.75215 17.7671 10.0005 18.1433 10.2931C18.5079 9.89254 18.8144 9.44276 19.0538 8.95693C19.2737 8.4883 19.4269 7.99123 19.5091 7.48015L19.5387 7.46534Z" fill="#7CB305"/>
<path d="M15.5155 12.8765C15.7927 13.2729 16.0179 13.7033 16.1854 14.1571C16.3528 14.6051 16.4683 15.0708 16.5296 15.5451C17.077 15.5173 17.6177 15.4127 18.1359 15.2342C18.6302 15.0639 19.0985 14.826 19.5276 14.5273C19.4319 14.0032 19.2637 13.4949 19.0279 13.0172C18.7927 12.5417 18.4898 12.1028 18.1285 11.7143C17.7472 12.0072 17.3337 12.2556 16.896 12.4546C16.4546 12.6506 15.991 12.7923 15.5155 12.8765Z" fill="#7CB305"/>
<path d="M2.22073 9.75269C1.95627 9.27267 1.74882 8.76338 1.60262 8.2352C1.21427 8.63009 0.879522 9.07435 0.606999 9.55653C0.344821 10.0116 0.140889 10.4978 0 11.0037C0.140341 11.5104 0.342987 11.9978 0.603297 12.4546C0.874925 12.9362 1.20977 13.3794 1.59892 13.7722C1.74618 13.245 1.95488 12.7369 2.22073 12.2584C2.47338 11.8065 2.77768 11.3854 3.12752 11.0037C2.77855 10.6226 2.47431 10.2029 2.22073 9.75269Z" fill="#7CB305"/>
<path d="M20.4159 8.2352L20.4134 8.24407L20.4048 8.2352H20.4159Z" fill="#7CB305"/>
<path d="M20.4134 8.24407C21.1633 9.01779 21.7086 9.96623 22 11.0037C21.8597 11.5104 21.657 11.9978 21.3967 12.4546C21.1264 12.9361 20.7928 13.3793 20.4048 13.7722C20.2575 13.245 20.0488 12.7369 19.783 12.2584C19.5329 11.8048 19.2284 11.3835 18.8762 11.0037C19.2314 10.6251 19.5396 10.2051 19.7941 9.75269C20.0583 9.27553 20.2662 8.76925 20.4134 8.24407Z" fill="#7CB305"/>
<path d="M16.574 16.5777C16.5543 17.094 16.4723 17.606 16.3297 18.1026C16.1809 18.631 15.9683 19.1393 15.6968 19.6164C16.251 19.6115 16.8022 19.5344 17.3365 19.3869C17.842 19.2465 18.329 19.0464 18.7873 18.791C19.0427 18.3327 19.2428 17.8457 19.3832 17.3402C19.5322 16.8049 19.6106 16.2524 19.6164 15.6968C19.1398 15.9677 18.633 16.1814 18.1063 16.3334C17.6065 16.473 17.0924 16.555 16.574 16.5777Z" fill="#7CB305"/>
<path d="M11.0037 18.8762C10.6245 19.2275 10.2045 19.5319 9.75269 19.783C9.27347 20.0491 8.76398 20.2566 8.2352 20.4011C8.62912 20.7906 9.07353 21.1254 9.55653 21.3967C10.0118 21.6576 10.498 21.8603 11.0037 22C11.5104 21.8597 11.9978 21.657 12.4546 21.3967C12.9376 21.1254 13.382 20.7906 13.7759 20.4011C13.2469 20.2573 12.7373 20.0498 12.2584 19.783C11.8048 19.5329 11.3835 19.2284 11.0037 18.8762Z" fill="#7CB305"/>
<path d="M10.2968 18.1026C10.0027 17.7221 9.75425 17.3085 9.55653 16.8701C9.3624 16.4344 9.22076 15.9772 9.13459 15.5081C8.73819 15.7853 8.30779 16.0105 7.85397 16.178C7.40957 16.3446 6.94765 16.4601 6.47712 16.5222C6.4972 17.0719 6.59822 17.6157 6.77692 18.1359C6.94669 18.6298 7.1833 19.098 7.48015 19.5276C8.00425 19.4319 8.51248 19.2637 8.99024 19.0279C9.46803 18.7871 9.90816 18.4778 10.2968 18.11V18.1026Z" fill="#7CB305"/>
<path d="M12.8876 15.5118L12.8851 15.5263L12.8691 15.5155L12.8876 15.5118Z" fill="#7CB305"/>
<path d="M12.8851 15.5263C12.8018 15.998 12.6584 16.4571 12.4583 16.8923C12.2591 17.3253 12.0107 17.7339 11.718 18.11C12.1173 18.4762 12.5673 18.7829 13.0542 19.0205C13.5231 19.2492 14.0213 19.4124 14.5347 19.5054C14.8374 19.067 15.0779 18.5887 15.249 18.0841C15.4244 17.5835 15.5242 17.0596 15.5451 16.5296C15.0695 16.4671 14.6025 16.3503 14.1534 16.1817C13.7061 16.0143 13.2804 15.7943 12.8851 15.5263Z" fill="#7CB305"/>
<path d="M5.43338 16.5777C4.91624 16.5544 4.40343 16.4725 3.90478 16.3334C3.37832 16.1808 2.87152 15.9672 2.39468 15.6968C2.3996 16.251 2.47675 16.8022 2.62416 17.3365C2.76425 17.8427 2.9656 18.3299 3.22376 18.7873C3.68146 19.044 4.16865 19.2441 4.67463 19.3832C5.20762 19.5307 5.75759 19.6078 6.31057 19.6127C6.04087 19.136 5.82843 18.6292 5.67766 18.1026C5.53508 17.606 5.45306 17.094 5.43338 16.5777Z" fill="#7CB305"/>
</svg>
