<svg width="32" height="32" viewBox="0 0 32 32" fill="none" xmlns="http://www.w3.org/2000/svg">
<path d="M9.43804 13.2822C8.75348 13.4043 8.0866 13.6103 7.4525 13.8957C6.8165 14.1857 6.21539 14.5468 5.66067 14.9721C5.13711 14.4051 4.6985 13.7652 4.3585 13.0723C4.01406 12.3778 3.76777 11.6388 3.6267 10.8766C4.9054 9.99003 6.40922 9.48432 7.96368 9.4181C8.05216 10.1003 8.21825 10.7702 8.45872 11.4147C8.70518 12.076 9.03422 12.7035 9.43804 13.2822ZM13.28 9.43962C13.4053 8.74751 13.6149 8.07335 13.9042 7.43222C14.196 6.80385 14.5569 6.20999 14.9803 5.66162C13.8345 4.6119 12.4147 3.90841 10.8855 3.63269C10.4464 4.27076 10.0969 4.96612 9.84698 5.69929C9.60197 6.43082 9.46422 7.19399 9.43804 7.96502C10.1314 8.05518 10.8121 8.22493 11.4666 8.4709C12.108 8.72291 12.7183 9.04796 13.2854 9.43962H13.28ZM24.0955 7.90044C24.8461 7.92905 25.5905 8.04832 26.3124 8.25563C27.0801 8.47345 27.819 8.78241 28.5132 9.17592C28.4908 7.60282 28.0765 6.06015 27.3079 4.68752C26.6446 4.31256 25.9381 4.01979 25.204 3.81567C24.4273 3.60096 23.626 3.48879 22.8202 3.482C23.2162 4.17388 23.527 4.91117 23.7458 5.67777C23.9509 6.40217 24.0701 7.14818 24.1009 7.90044H24.0955ZM15.9973 4.54221C16.5519 4.03307 17.1641 3.59055 17.8214 3.22368C18.5177 2.83576 19.2585 2.53396 20.0276 2.32492C19.4549 1.75859 18.8088 1.27168 18.1066 0.877228C17.4429 0.497816 16.7343 0.203109 15.9973 0C15.2624 0.204115 14.5557 0.498782 13.8934 0.877228C13.1912 1.27168 12.5451 1.75859 11.9724 2.32492C12.7415 2.53396 13.4823 2.83576 14.1786 3.22368C14.8351 3.58921 15.4457 4.03186 15.9973 4.54221ZM5.67143 17.0225C5.13962 17.6035 4.69385 18.2578 4.34774 18.9654C4.01396 19.6472 3.77498 20.3715 3.63746 21.1181C4.27664 21.5552 4.9716 21.9045 5.70372 22.1567C6.43494 22.4033 7.19793 22.5428 7.96906 22.5711C8.07227 21.8786 8.25276 21.1999 8.50715 20.5476C8.74406 19.9013 9.05652 19.2853 9.43804 18.7124C8.74486 18.5919 8.07021 18.3821 7.43097 18.0881C6.80507 17.8025 6.21458 17.4449 5.67143 17.0225ZM7.90449 7.87353C7.93533 7.12127 8.05452 6.37526 8.25963 5.65086C8.47839 4.88426 8.78915 4.14697 9.18514 3.4551C8.37941 3.46188 7.57804 3.57406 6.80141 3.78877C6.06237 4.00058 5.35216 4.30243 4.68673 4.68752C4.31177 5.35281 4.01905 6.06123 3.81503 6.79717C3.60034 7.57209 3.48818 8.37183 3.48142 9.17592C4.1718 8.78227 4.90711 8.47328 5.67143 8.25563C6.39687 8.04746 7.14491 7.92819 7.89911 7.90044L7.90449 7.87353ZM17.052 5.64009C17.4797 6.19321 17.8409 6.79471 18.1281 7.43222C18.4129 8.06711 18.6206 8.73381 18.7469 9.4181C19.3231 9.01332 19.9488 8.68414 20.6087 8.43861C21.2548 8.19632 21.9263 8.02841 22.6104 7.93811C22.5749 7.15179 22.4281 6.37447 22.1745 5.62933C21.9255 4.91225 21.5816 4.2317 21.1522 3.60579C20.3909 3.74748 19.6523 3.99189 18.9568 4.33232C18.2527 4.68032 17.6036 5.13003 17.0304 5.667L17.052 5.64009ZM28.3894 10.8496C27.75 10.4111 27.0528 10.0633 26.3178 9.81635C25.5895 9.56505 24.8278 9.42358 24.0578 9.39657C23.9546 10.0891 23.7741 10.7678 23.5198 11.4201C23.2733 12.0709 22.9481 12.6891 22.5512 13.2607C23.2457 13.3828 23.9219 13.5926 24.5636 13.885C25.1913 14.1749 25.7835 14.536 26.3286 14.9613C26.8604 14.3803 27.3062 13.7261 27.6523 13.0185C27.987 12.3403 28.2277 11.6197 28.3679 10.8766L28.3894 10.8496ZM22.5566 18.7178C22.9593 19.2972 23.2883 19.9245 23.5359 20.5853C23.7764 21.2316 23.9424 21.9033 24.0309 22.5873C24.8192 22.5505 25.5982 22.402 26.3447 22.146C27.0635 21.9013 27.7446 21.5571 28.3679 21.1234C28.2244 20.3618 27.9782 19.6231 27.6361 18.9277C27.2961 18.2348 26.8575 17.5949 26.334 17.0279C25.7781 17.4544 25.175 17.8155 24.5367 18.1043C23.9048 18.3904 23.2396 18.5966 22.5566 18.7178ZM3.22852 14.181C2.83985 13.4844 2.53634 12.7435 2.32453 11.9744C1.76031 12.549 1.27369 13.1949 0.877081 13.8957C0.500027 14.5588 0.20548 15.2654 0 16C0.206379 16.736 0.500871 17.4443 0.877081 18.1097C1.27515 18.8079 1.76166 19.4519 2.32453 20.0256C2.53634 19.2565 2.83985 18.5156 3.22852 17.819C3.59351 17.1621 4.03612 16.5513 4.54683 16C4.03612 15.4487 3.59351 14.8379 3.22852 14.181ZM29.6755 11.9744C29.4637 12.7435 29.1602 13.4844 28.7715 14.181C28.4065 14.8379 27.9639 15.4487 27.4532 16C27.9639 16.5513 28.4065 17.1621 28.7715 17.819C29.1602 18.5156 29.4637 19.2565 29.6755 20.0256C30.2383 19.4519 30.7248 18.8079 31.1229 18.1097C31.4991 17.4443 31.7936 16.736 32 16C31.7945 15.2654 31.5 14.5588 31.1229 13.8957C30.7263 13.1949 30.2397 12.549 29.6755 11.9744ZM24.1009 24.0996C24.0705 24.8536 23.9513 25.6015 23.7458 26.3276C23.527 27.0942 23.2162 27.8315 22.8202 28.5234C23.626 28.5166 24.4273 28.4044 25.204 28.1897C25.9399 27.986 26.6483 27.6932 27.3133 27.3179C28.0819 25.9452 28.4962 24.4026 28.5186 22.8295C27.8243 23.223 27.0855 23.5319 26.3178 23.7497C25.5956 23.9552 24.8513 24.0727 24.1009 24.0996ZM15.9973 27.4578C15.4457 27.9681 14.8351 28.4108 14.1786 28.7763C13.4823 29.1642 12.7415 29.466 11.9724 29.6751C12.5451 30.2414 13.1912 30.7283 13.8934 31.1228C14.5557 31.5012 15.2624 31.7959 15.9973 32C16.7343 31.7969 17.4429 31.5022 18.1066 31.1228C18.8088 30.7283 19.4549 30.2414 20.0276 29.6751C19.2585 29.466 18.5177 29.1642 17.8214 28.7763C17.1641 28.4094 16.5519 27.9669 15.9973 27.4578ZM14.9696 26.3276C14.5439 25.7731 14.1829 25.1718 13.8934 24.5355C13.614 23.9028 13.4081 23.2401 13.28 22.5604C12.7037 22.9635 12.078 23.2909 11.4182 23.5345C10.7721 23.7768 10.1006 23.9447 9.41651 24.035C9.4509 24.8162 9.5977 25.5883 9.85236 26.3276C10.1014 27.0447 10.4453 27.7252 10.8747 28.3512C11.636 28.2095 12.3746 27.9651 13.0701 27.6246C13.7624 27.286 14.4021 26.8491 14.9696 26.3276ZM18.7362 22.5604C18.6114 23.2533 18.3999 23.9277 18.1066 24.5678C17.8171 25.1974 17.456 25.7915 17.0304 26.3384C18.1763 27.3881 19.5961 28.0916 21.1253 28.3673C21.5603 27.7373 21.9079 27.0511 22.1584 26.3276C22.4071 25.5966 22.5484 24.8335 22.5781 24.0619C21.8847 23.9717 21.2041 23.802 20.5495 23.556C19.9003 23.2988 19.2842 22.9645 18.7146 22.5604H18.7362ZM7.92063 24.0996C7.1592 24.0736 6.40383 23.9543 5.67143 23.7444C4.9034 23.5275 4.16444 23.2185 3.47066 22.8241C3.48615 24.3981 3.90087 25.9425 4.67597 27.3125C5.34099 27.6878 6.04932 27.9806 6.78527 28.1843C7.5619 28.399 8.36327 28.5112 9.16899 28.518C8.77713 27.8273 8.47 27.0919 8.25425 26.3276C8.04873 25.6015 7.92952 24.8536 7.89911 24.0996H7.92063Z" fill="#1890FF"/>
</svg>
