<svg width="121" height="120" viewBox="0 0 121 120" fill="none" xmlns="http://www.w3.org/2000/svg">
<path d="M38.3739 30.4538C38.3739 30.4538 52.0202 40.8092 72.7659 21.4464C91.1902 4.25039 106.234 31.3817 106.339 44.3745C106.476 61.2055 87.9148 74.6724 96.9222 85.727C105.93 96.7816 79.0592 115.037 64.5773 99.2382C46.5623 79.5855 41.6819 95.5533 31.4134 95.5533C24.0437 95.5533 8.91273 77.2413 19.1305 63.6177C27.7285 52.1537 23.0393 48.349 20.7685 44.3745C17.4929 38.6425 25.2721 23.0841 38.3739 30.4538Z" fill="#F0F5FF"/>
<path d="M99.2288 23.3949C99.2288 23.6497 99.2177 23.9007 99.1954 24.1493C98.9973 26.395 97.9277 28.4739 96.2155 29.9407C94.5034 31.4074 92.285 32.1454 90.0354 31.9965C87.7858 31.8476 85.684 30.8237 84.1801 29.1441C82.6762 27.4645 81.8899 25.2627 81.9895 23.0104C82.0891 20.7581 83.0668 18.6344 84.713 17.0941C86.3593 15.5538 88.5433 14.7195 90.7972 14.7697C93.0512 14.82 95.1958 15.7509 96.7718 17.3631C98.3477 18.9752 99.2297 21.1404 99.2288 23.3949Z" fill="#ADC6FF"/>
<path d="M91.6933 24.0561C91.1369 24.4889 90.3591 25.3508 90.5941 27.2686C90.3332 28.013 89.4058 29.435 89.4058 30.1151C89.4058 30.7951 88.2929 30.9191 88.1692 30.7331C88.0456 30.5471 87.9838 28.1982 87.3037 27.7654C86.6236 27.3326 86.7473 25.3542 86.7473 25.3542C86.7473 25.3542 86.9946 24.6122 86.1908 24.1176C85.387 23.6231 84.827 22.4483 85.5404 21.7682C86.2527 21.0881 84.336 20.6553 84.0887 20.1608C83.9836 19.9508 83.5805 19.4807 83.1527 19.012C84.0777 17.4454 85.4725 16.2098 87.1393 15.4805C87.7711 16.1405 88.3177 16.9853 88.1693 17.8731C88.194 18.3059 90.0723 18.986 89.1523 19.9131C88.2312 20.8406 86.981 22.1391 89.1523 22.5717C91.3224 23.0051 92.2498 23.6231 91.6933 24.0561Z" fill="#2F54EB"/>
<path d="M96.6321 17.2242C96.1697 18.1998 95.0098 18.9862 94.3521 18.9862C93.6102 18.1822 92.0027 19.2954 91.8519 17.997C91.7641 17.2403 92.6272 16.0655 93.3629 15.2148C94.5895 15.631 95.7068 16.3177 96.6321 17.2242Z" fill="#2F54EB"/>
<path d="M99.1955 24.1499C99.0114 26.2848 98.0368 28.274 96.4627 29.7279C96.1771 29.4546 95.936 29.1344 96.0213 28.8784C96.2068 28.322 96.9611 27.1472 96.8313 26.4053C96.7102 25.7129 97.3494 23.6182 99.1955 24.1499Z" fill="#2F54EB"/>
<path d="M85.1554 67.0105C84.8793 68.7139 84.4222 70.3829 83.7919 71.9893C79.6852 82.5091 68.6684 89.0993 57.0744 87.2053C50.6736 86.1574 44.9508 82.6109 41.164 77.3452C37.3771 72.0795 35.8361 65.5256 36.8796 59.1242C36.9327 58.7994 36.9945 58.4719 37.0591 58.1532C39.6748 45.3559 51.954 36.8047 64.9607 38.9292C68.8418 39.5566 72.5129 41.116 75.6591 43.4735C76.6929 44.2455 77.6629 45.0994 78.5596 46.0271C81.2223 48.7659 83.2059 52.0907 84.3514 55.7347C85.4969 59.3788 85.7723 63.2406 85.1554 67.0103V67.0105Z" fill="#85A5FF"/>
<path d="M83.7922 71.989C79.1345 74.9876 73.6342 77.761 67.5703 80.0546C61.3957 82.3886 55.3323 83.9654 49.775 84.7914C36.7158 86.7384 26.4598 84.5628 24.149 78.4503C21.9849 72.7411 27.3077 65.0082 37.0592 58.1529C36.9946 58.4717 36.9328 58.7991 36.8797 59.1239C36.6848 60.3128 36.5791 61.5145 36.5633 62.7191C30.9449 67.0571 28.0211 71.3057 29.1737 74.3531C30.2943 77.3161 35.0522 78.5771 41.8208 78.2196C48.438 77.8711 56.9768 75.965 65.9144 72.5862C73.6445 69.6603 80.4231 66.1038 85.4705 62.5313C92.2276 57.7542 95.8925 52.9473 94.6276 49.5939C93.3269 46.1513 87.1208 45.0039 78.5596 46.0271C77.6629 45.0994 76.693 44.2454 75.6592 43.4735C87.643 42.0885 96.8801 44.3519 99.0572 50.1091C101.39 56.2668 95.0287 64.7679 83.7922 71.989Z" fill="#2F54EB"/>
</svg>
