<svg width="23" height="22" viewBox="0 0 23 22" fill="none" xmlns="http://www.w3.org/2000/svg">
<path d="M6.69558 9.13459C6.22512 9.22024 5.76661 9.36189 5.32983 9.55653C4.89147 9.75425 4.47781 10.0027 4.09733 10.2968C3.73599 9.90779 3.43416 9.46752 3.20163 8.99024C2.96471 8.51262 2.7953 8.0044 2.69827 7.48015C3.12787 7.1833 3.59611 6.94669 4.08992 6.77692C4.60309 6.60034 5.13921 6.49936 5.68145 6.47712C5.74055 6.94784 5.85484 7.40996 6.02196 7.85397C6.1923 8.30723 6.41859 8.73743 6.69558 9.13459Z" fill="white"/>
<path d="M9.33824 6.49193L9.33906 6.48739L9.34564 6.49193H9.33824Z" fill="white"/>
<path d="M9.33906 6.48739C8.54894 5.9437 7.63988 5.59746 6.68818 5.47779C6.70858 4.94717 6.80582 4.4223 6.97687 3.91958C7.14751 3.4155 7.38662 2.93727 7.6875 2.49832C8.74186 2.68597 9.72049 3.17143 10.5078 3.89738C10.2145 4.27176 9.9661 4.6792 9.76758 5.11137C9.56925 5.55089 9.42535 6.01299 9.33906 6.48739Z" fill="white"/>
<path d="M16.774 5.43338C17.2915 5.45276 17.8048 5.53478 18.3026 5.67766C18.8304 5.82816 19.3385 6.0406 19.8164 6.31056C19.8115 5.75759 19.7343 5.20762 19.5869 4.67463C19.4478 4.16865 19.2477 3.68146 18.991 3.22376C18.5336 2.9656 18.0463 2.76425 17.5401 2.62416C17.0059 2.47674 16.4547 2.3996 15.9005 2.39468C16.1708 2.87152 16.3845 3.37832 16.5371 3.90478C16.6755 4.40331 16.755 4.91634 16.774 5.43338Z" fill="white"/>
<path d="M11.2222 3.12382C11.5983 2.77644 12.0131 2.47342 12.4584 2.22073C12.938 1.95552 13.4474 1.74804 13.9759 1.60262C13.2018 0.843027 12.2482 0.291699 11.2037 0C10.6979 0.139717 10.2117 0.342402 9.75648 0.603297C9.2743 0.875821 8.83005 1.21057 8.43515 1.59892C8.9635 1.7463 9.47279 1.95499 9.95264 2.22073C10.4027 2.47315 10.8224 2.77615 11.2037 3.12382H11.2222Z" fill="white"/>
<path d="M4.11583 11.7106L4.10805 11.7191L4.09733 11.7106H4.11583Z" fill="white"/>
<path d="M4.10805 11.7191C4.47921 12.0101 4.88302 12.257 5.31132 12.4546C5.75102 12.6567 6.21507 12.8011 6.69188 12.8839C6.42147 13.278 6.19906 13.7029 6.02936 14.1497C5.85724 14.5993 5.73921 15.0677 5.67774 15.5451C5.15263 15.5181 4.6341 15.4159 4.13804 15.2416C3.63382 15.0697 3.15559 14.8293 2.71677 14.5273C2.80978 14.0139 2.97293 13.5157 3.20163 13.0468C3.43777 12.5626 3.74311 12.1153 4.10805 11.7191Z" fill="white"/>
<path d="M5.65184 5.41857C5.67151 4.90107 5.75352 4.38783 5.89612 3.88997C6.04756 3.36368 6.25997 2.85688 6.52902 2.37988C5.43891 2.39192 4.36997 2.6824 3.42371 3.22376C2.89056 4.16594 2.60529 5.22804 2.59464 6.31056C3.07164 6.04152 3.57844 5.82911 4.10473 5.67766C4.60259 5.53507 5.11583 5.45305 5.63333 5.43338L5.65184 5.41857Z" fill="white"/>
<path d="M11.9439 3.88257C12.2368 4.26386 12.4851 4.67738 12.6841 5.11507C12.88 5.55171 13.0229 6.01022 13.1098 6.48082C13.5069 6.20384 13.9371 5.97754 14.3904 5.8072C14.8279 5.64681 15.2825 5.53751 15.745 5.48149C15.7192 4.93968 15.6183 4.40407 15.4452 3.88997C15.2742 3.39601 15.0363 2.92778 14.7383 2.49832C14.2141 2.59535 13.7058 2.76476 13.2282 3.00168C12.7482 3.23334 12.3054 3.53522 11.9143 3.89738L11.9439 3.88257Z" fill="white"/>
<path d="M19.7386 7.46534C19.2997 7.16446 18.8215 6.92535 18.3174 6.75471C17.8147 6.58366 17.2898 6.48642 16.7592 6.46602C16.6971 6.94175 16.5804 7.40872 16.4113 7.85767C16.2403 8.30458 16.0166 8.72952 15.745 9.12349C16.221 9.20968 16.6847 9.35386 17.1256 9.55283C17.5585 9.75215 17.9671 10.0005 18.3433 10.2931C18.7079 9.89254 19.0144 9.44276 19.2538 8.95693C19.4736 8.4883 19.6269 7.99123 19.709 7.48015L19.7386 7.46534Z" fill="white"/>
<path d="M15.7154 12.8765C15.9927 13.2729 16.2178 13.7033 16.3853 14.1571C16.5528 14.6051 16.6683 15.0708 16.7296 15.5451C17.2769 15.5173 17.8177 15.4127 18.3359 15.2342C18.8302 15.0639 19.2985 14.826 19.7275 14.5273C19.6318 14.0032 19.4637 13.4949 19.2279 13.0172C18.9927 12.5417 18.6897 12.1028 18.3285 11.7143C17.9472 12.0072 17.5337 12.2556 17.096 12.4546C16.6546 12.6506 16.191 12.7923 15.7154 12.8765Z" fill="white"/>
<path d="M2.42068 9.75269C2.15622 9.27267 1.94877 8.76338 1.80258 8.2352C1.41422 8.63009 1.07947 9.07435 0.80695 9.55653C0.544772 10.0116 0.34084 10.4978 0.199951 11.0037C0.340292 11.5104 0.542938 11.9978 0.803249 12.4546C1.07488 12.9362 1.40972 13.3794 1.79887 13.7722C1.94614 13.245 2.15483 12.7369 2.42068 12.2584C2.67333 11.8065 2.97763 11.3854 3.32747 11.0037C2.97851 10.6226 2.67426 10.2029 2.42068 9.75269Z" fill="white"/>
<path d="M20.6158 8.2352L20.6134 8.24407L20.6047 8.2352H20.6158Z" fill="white"/>
<path d="M20.6134 8.24407C21.3632 9.01779 21.9086 9.96623 22.2 11.0037C22.0596 11.5104 21.857 11.9978 21.5967 12.4546C21.3263 12.9361 20.9927 13.3793 20.6047 13.7722C20.4574 13.245 20.2487 12.7369 19.9829 12.2584C19.7328 11.8048 19.4283 11.3835 19.0761 11.0037C19.4313 10.6251 19.7395 10.2051 19.994 9.75269C20.2583 9.27553 20.4661 8.76925 20.6134 8.24407Z" fill="white"/>
<path d="M16.774 16.5777C16.7543 17.094 16.6723 17.606 16.5297 18.1026C16.3808 18.631 16.1683 19.1393 15.8968 19.6164C16.451 19.6115 17.0022 19.5344 17.5364 19.3869C18.0419 19.2465 18.529 19.0464 18.9873 18.791C19.2427 18.3327 19.4427 17.8457 19.5832 17.3402C19.7322 16.8049 19.8106 16.2524 19.8164 15.6968C19.3398 15.9677 18.8329 16.1814 18.3063 16.3334C17.8065 16.473 17.2924 16.555 16.774 16.5777Z" fill="white"/>
<path d="M11.2037 18.8762C10.8245 19.2275 10.4045 19.5319 9.95264 19.783C9.47342 20.0491 8.96393 20.2566 8.43515 20.4011C8.82907 20.7906 9.27348 21.1254 9.75648 21.3967C10.2117 21.6576 10.6979 21.8603 11.2037 22C11.7104 21.8597 12.1977 21.657 12.6545 21.3967C13.1375 21.1254 13.5819 20.7906 13.9759 20.4011C13.4468 20.2573 12.9373 20.0498 12.4584 19.783C12.0048 19.5329 11.5834 19.2284 11.2037 18.8762Z" fill="white"/>
<path d="M10.4967 18.1026C10.2026 17.7221 9.9542 17.3085 9.75648 16.8701C9.56235 16.4344 9.42071 15.9772 9.33454 15.5081C8.93814 15.7853 8.50774 16.0105 8.05392 16.178C7.60953 16.3446 7.1476 16.4601 6.67707 16.5222C6.69715 17.0719 6.79817 17.6157 6.97687 18.1359C7.14664 18.6298 7.38325 19.098 7.6801 19.5276C8.2042 19.4319 8.71244 19.2637 9.19019 19.0279C9.66798 18.7871 10.1081 18.4778 10.4967 18.11V18.1026Z" fill="white"/>
<path d="M13.0876 15.5118L13.085 15.5263L13.0691 15.5155L13.0876 15.5118Z" fill="white"/>
<path d="M13.085 15.5263C13.0018 15.998 12.8583 16.4571 12.6582 16.8923C12.4591 17.3253 12.2107 17.7339 11.918 18.11C12.3172 18.4762 12.7673 18.7829 13.2541 19.0205C13.7231 19.2492 14.2212 19.4124 14.7346 19.5054C15.0374 19.067 15.2778 18.5887 15.4489 18.0841C15.6243 17.5835 15.7241 17.0596 15.745 16.5296C15.2694 16.4671 14.8025 16.3503 14.3534 16.1817C13.9061 16.0143 13.4803 15.7943 13.085 15.5263Z" fill="white"/>
<path d="M5.63333 16.5777C5.11619 16.5544 4.60338 16.4725 4.10473 16.3334C3.57827 16.1808 3.07147 15.9672 2.59464 15.6968C2.59955 16.251 2.6767 16.8022 2.82411 17.3365C2.9642 17.8427 3.16556 18.3299 3.42371 18.7873C3.88141 19.044 4.3686 19.2441 4.87458 19.3832C5.40757 19.5307 5.95754 19.6078 6.51052 19.6127C6.24082 19.136 6.02838 18.6292 5.87761 18.1026C5.73503 17.606 5.65301 17.094 5.63333 16.5777Z" fill="white"/>
</svg>
