<svg width="21" height="21" viewBox="0 0 21 21" fill="none" xmlns="http://www.w3.org/2000/svg">
<path d="M10.8 2.03906C5.96796 2.03906 2.04999 5.95703 2.04999 10.7891C2.04999 15.6211 5.96796 19.5391 10.8 19.5391C15.632 19.5391 19.55 15.6211 19.55 10.7891C19.55 5.95703 15.632 2.03906 10.8 2.03906ZM10.8 18.0547C6.78827 18.0547 3.53436 14.8008 3.53436 10.7891C3.53436 6.77734 6.78827 3.52344 10.8 3.52344C14.8117 3.52344 18.0656 6.77734 18.0656 10.7891C18.0656 14.8008 14.8117 18.0547 10.8 18.0547ZM11.7316 10.3359L11.2355 10.2207V7.59766C11.9777 7.69922 12.4367 8.16406 12.5148 8.73437C12.5246 8.8125 12.591 8.86914 12.6691 8.86914H13.5461C13.6379 8.86914 13.7101 8.78906 13.7023 8.69727C13.5832 7.48047 12.5812 6.69922 11.2433 6.56445V5.92578C11.2433 5.83984 11.173 5.76953 11.0871 5.76953H10.5383C10.4523 5.76953 10.382 5.83984 10.382 5.92578V6.57031C8.99921 6.70508 7.91718 7.46875 7.91718 8.89453C7.91718 10.2148 8.88983 10.8516 9.91132 11.0957L10.3937 11.2188V14.0059C9.53046 13.8906 9.04608 13.4297 8.94647 12.8086C8.93475 12.7344 8.86835 12.6797 8.79218 12.6797H7.88983C7.79803 12.6797 7.72577 12.7578 7.73358 12.8496C7.82147 13.9238 8.63593 14.9121 10.3742 15.0391V15.6523C10.3742 15.7383 10.4445 15.8086 10.5305 15.8086H11.0851C11.1711 15.8086 11.2414 15.7383 11.2414 15.6504L11.2375 15.0313C12.7668 14.8965 13.8605 14.0781 13.8605 12.6094C13.8586 11.2539 12.9973 10.6484 11.7316 10.3359V10.3359ZM10.3918 10.0195C10.2824 9.98828 10.1906 9.95898 10.0988 9.92188C9.43866 9.68359 9.13202 9.29883 9.13202 8.80273C9.13202 8.09375 9.66913 7.68945 10.3918 7.59766V10.0195ZM11.2355 14.0117V11.4004C11.2961 11.418 11.3508 11.4316 11.4074 11.4434C12.3312 11.7246 12.6418 12.1152 12.6418 12.7148C12.6418 13.4785 12.0676 13.9375 11.2355 14.0117Z" fill="white"/>
</svg>
