<svg width="25" height="25" viewBox="0 0 25 25" fill="none" xmlns="http://www.w3.org/2000/svg">
<path fill-rule="evenodd" clip-rule="evenodd" d="M20.4 6.76562H4.40002V18.7656H20.4V12.7656V6.76562ZM4.40002 4.76562C3.29545 4.76562 2.40002 5.66106 2.40002 6.76562V18.7656C2.40002 19.8702 3.29546 20.7656 4.40002 20.7656H20.4C21.5046 20.7656 22.4 19.8702 22.4 18.7656V6.76562C22.4 5.66106 21.5046 4.76562 20.4 4.76562H4.40002Z" fill="white"/>
<path fill-rule="evenodd" clip-rule="evenodd" d="M11.6802 8.26624C12.0036 8.27926 12.2822 8.49832 12.3712 8.80955L13.8415 14.4559L14.4792 13.1805C14.6062 12.9264 14.8659 12.7659 15.15 12.7659H17.65C18.0642 12.7659 18.4 13.1017 18.4 13.5159C18.4 13.9301 18.0642 14.2658 17.65 14.2658H15.6136L14.3208 16.851C14.1825 17.1277 13.8886 17.291 13.5806 17.2624C13.2727 17.2338 13.0138 17.0191 12.9289 16.7217L11.5537 11.4083L10.8523 13.7792C10.7425 14.0719 10.4627 14.2658 10.15 14.2658H7.15002C6.73581 14.2658 6.40002 13.9301 6.40002 13.5159C6.40002 13.1017 6.73581 12.7659 7.15002 12.7659H9.63027L10.9478 8.75225C11.0614 8.44917 11.3567 8.25322 11.6802 8.26624Z" fill="white"/>
</svg>
