<svg width="212" height="65" viewBox="0 0 212 65" fill="none" xmlns="http://www.w3.org/2000/svg">
<path d="M130.115 53.0832L129.262 53.7549C129.105 53.4921 128.884 53.2738 128.619 53.1203C128.355 52.9668 128.056 52.8832 127.751 52.8774C127.284 52.9132 126.848 53.1244 126.53 53.4689C126.212 53.8134 126.035 54.2657 126.035 54.7353C126.035 55.2049 126.212 55.6572 126.53 56.0017C126.848 56.3462 127.284 56.5574 127.751 56.5932C128.054 56.5887 128.351 56.508 128.615 56.3585C128.879 56.209 129.102 55.9954 129.262 55.7374L130.115 56.3982C129.87 56.8092 129.521 57.1486 129.105 57.3824C128.688 57.6162 128.217 57.7363 127.74 57.7307C126.949 57.7307 126.191 57.4157 125.633 56.855C125.074 56.2942 124.76 55.5337 124.76 54.7407C124.76 53.9477 125.074 53.1872 125.633 52.6265C126.191 52.0657 126.949 51.7507 127.74 51.7507C128.218 51.7407 128.69 51.8589 129.108 52.0931C129.525 52.3274 129.873 52.6691 130.115 53.0832Z" fill="white"/>
<path d="M135.924 54.1666V57.6333H134.844V56.9833C134.621 57.2392 134.342 57.4413 134.03 57.5745C133.718 57.7076 133.38 57.7685 133.041 57.7525C131.864 57.7525 131.076 57.0808 131.076 56.095C131.076 55.1091 131.897 54.4591 133.16 54.4591H134.758V54.0908C134.781 53.9256 134.766 53.7573 134.713 53.599C134.661 53.4407 134.573 53.2967 134.455 53.1782C134.338 53.0597 134.196 52.97 134.038 52.9159C133.881 52.8619 133.714 52.845 133.549 52.8666C133.239 52.8745 132.935 52.9562 132.663 53.105C132.391 53.2538 132.158 53.4654 131.983 53.7225L131.281 52.9966C131.543 52.6086 131.897 52.293 132.313 52.079C132.728 51.865 133.19 51.7596 133.657 51.7725C133.969 51.755 134.282 51.8059 134.573 51.9217C134.864 52.0376 135.127 52.2155 135.342 52.4433C135.558 52.671 135.722 52.9431 135.822 53.2407C135.923 53.5383 135.957 53.8542 135.924 54.1666ZM134.715 55.4666V55.3583H133.257C132.62 55.3583 132.264 55.5966 132.264 56.0625C132.264 56.5283 132.696 56.8208 133.257 56.8208C133.443 56.8295 133.628 56.8009 133.803 56.7366C133.977 56.6723 134.137 56.5737 134.273 56.4465C134.408 56.3193 134.518 56.1661 134.593 55.996C134.669 55.8258 134.711 55.6422 134.715 55.4558V55.4666Z" fill="white"/>
<path d="M140.837 51.9025V52.9858H140.469C140.254 52.9654 140.036 52.9917 139.832 53.0629C139.627 53.1341 139.44 53.2485 139.284 53.3985C139.127 53.5485 139.005 53.7305 138.924 53.9321C138.844 54.1338 138.807 54.3505 138.817 54.5675V57.6225H137.608V51.9025H138.688V52.65C138.878 52.3944 139.126 52.1876 139.411 52.0464C139.697 51.9052 140.011 51.8336 140.329 51.8375C140.501 51.828 140.673 51.85 140.837 51.9025Z" fill="white"/>
<path d="M147.304 48.8799V57.6224H146.224V56.8099C145.995 57.1151 145.696 57.3602 145.352 57.5243C145.008 57.6884 144.629 57.7666 144.249 57.7524C143.502 57.6886 142.807 57.346 142.3 56.7923C141.793 56.2386 141.512 55.5142 141.512 54.7624C141.512 54.0107 141.793 53.2863 142.3 52.7326C142.807 52.1789 143.502 51.8363 144.249 51.7724C144.603 51.7602 144.956 51.8278 145.281 51.9703C145.606 52.1128 145.895 52.3265 146.127 52.5958V48.8799H147.304ZM146.106 54.7624C146.13 54.525 146.104 54.285 146.03 54.0582C145.956 53.8314 145.835 53.6228 145.675 53.4461C145.515 53.2693 145.32 53.1283 145.102 53.0322C144.884 52.9361 144.648 52.887 144.411 52.8883C143.915 52.8883 143.44 53.0857 143.09 53.4372C142.739 53.7887 142.543 54.2654 142.543 54.7624C142.543 55.2595 142.739 55.7362 143.09 56.0877C143.44 56.4392 143.915 56.6366 144.411 56.6366C144.649 56.6396 144.885 56.5917 145.104 56.4962C145.323 56.4007 145.518 56.2596 145.679 56.0825C145.839 55.9053 145.96 55.696 146.033 55.4685C146.107 55.2409 146.132 55.0003 146.106 54.7624Z" fill="white"/>
<path d="M150.489 49.7682C150.488 49.8758 150.465 49.9821 150.422 50.0809C150.38 50.1796 150.318 50.2689 150.241 50.3435C150.163 50.4181 150.072 50.4765 149.972 50.5154C149.872 50.5542 149.765 50.5727 149.658 50.5699C149.551 50.5728 149.445 50.5542 149.345 50.5152C149.246 50.4762 149.155 50.4176 149.079 50.3429C149.002 50.2681 148.941 50.1788 148.9 50.0801C148.858 49.9814 148.837 49.8753 148.837 49.7682C148.837 49.6606 148.858 49.554 148.9 49.4547C148.941 49.3555 149.002 49.2654 149.078 49.1898C149.154 49.1142 149.245 49.0546 149.345 49.0144C149.444 48.9742 149.55 48.9543 149.658 48.9557C149.765 48.9543 149.872 48.9742 149.973 49.0142C150.073 49.0543 150.164 49.1137 150.241 49.1892C150.318 49.2646 150.38 49.3546 150.423 49.4539C150.465 49.5533 150.488 49.6601 150.489 49.7682ZM150.262 57.6224H149.053V51.9024H150.262V57.6224Z" fill="white"/>
<path d="M156.482 54.1666V57.6332H155.402V56.9832C155.178 57.2392 154.9 57.4413 154.588 57.5744C154.276 57.7076 153.938 57.7684 153.599 57.7524C152.422 57.7524 151.634 57.0807 151.634 56.0949C151.634 55.1091 152.454 54.4591 153.718 54.4591H155.316V54.0907C155.339 53.9255 155.323 53.7572 155.271 53.5989C155.218 53.4406 155.13 53.2966 155.013 53.1781C154.896 53.0597 154.753 52.9699 154.596 52.9159C154.439 52.8618 154.271 52.8449 154.106 52.8666C153.796 52.8744 153.493 52.9561 153.221 53.1049C152.948 53.2537 152.715 53.4654 152.541 53.7224L151.839 52.9966C152.102 52.6077 152.459 52.2916 152.876 52.0777C153.293 51.8637 153.757 51.7587 154.225 51.7724C154.537 51.7565 154.848 51.8087 155.138 51.9252C155.428 52.0418 155.689 52.22 155.903 52.4476C156.118 52.6751 156.281 52.9466 156.381 53.2434C156.48 53.5402 156.515 53.8551 156.482 54.1666ZM155.272 55.4666V55.3582H153.815C153.178 55.3582 152.822 55.5966 152.822 56.0624C152.822 56.5282 153.253 56.8207 153.815 56.8207C154 56.8295 154.186 56.8008 154.36 56.7365C154.535 56.6723 154.695 56.5736 154.83 56.4464C154.966 56.3192 155.075 56.166 155.151 55.9959C155.227 55.8258 155.268 55.6421 155.272 55.4557V55.4666Z" fill="white"/>
<path d="M163.176 53.0832L162.323 53.7548C162.165 53.4921 161.944 53.2737 161.68 53.1202C161.415 52.9667 161.117 52.8832 160.811 52.8773C160.344 52.9131 159.908 53.1244 159.59 53.4689C159.272 53.8134 159.096 54.2657 159.096 54.7353C159.096 55.2049 159.272 55.6572 159.59 56.0016C159.908 56.3461 160.344 56.5574 160.811 56.5932C161.114 56.5887 161.412 56.5079 161.676 56.3584C161.94 56.2089 162.162 55.9954 162.323 55.7373L163.176 56.3982C162.929 56.8101 162.578 57.1498 162.16 57.3836C161.741 57.6174 161.269 57.7371 160.79 57.7307C159.999 57.7307 159.241 57.4157 158.682 56.8549C158.124 56.2942 157.81 55.5337 157.81 54.7407C157.81 53.9477 158.124 53.1872 158.682 52.6264C159.241 52.0657 159.999 51.7507 160.79 51.7507C161.27 51.7387 161.744 51.856 162.164 52.0903C162.583 52.3246 162.933 52.6675 163.176 53.0832Z" fill="white"/>
<path d="M152.174 26.6932L149.269 28.9791C148.728 28.0838 147.968 27.3421 147.061 26.8245C146.154 26.3069 145.13 26.0305 144.087 26.0216C143.275 26.015 142.47 26.174 141.721 26.489C140.972 26.8041 140.295 27.2684 139.731 27.854C139.166 28.4396 138.726 29.1342 138.438 29.8956C138.149 30.657 138.017 31.4693 138.051 32.2832C138.01 33.1006 138.136 33.9178 138.421 34.6845C138.707 35.4511 139.146 36.1509 139.711 36.7407C140.277 37.3304 140.957 37.7977 141.709 38.1136C142.462 38.4295 143.271 38.5873 144.087 38.5774C145.125 38.567 146.144 38.2946 147.049 37.7853C147.955 37.2761 148.718 36.5463 149.269 35.6632L152.174 37.9166C151.329 39.3107 150.134 40.4584 148.71 41.2453C147.285 42.0322 145.68 42.4309 144.054 42.4016C142.704 42.4459 141.359 42.2175 140.099 41.7298C138.839 41.242 137.689 40.5051 136.719 39.5626C135.748 38.6202 134.977 37.4915 134.449 36.2438C133.922 34.996 133.651 33.6547 133.651 32.2995C133.651 30.9443 133.922 29.603 134.449 28.3552C134.977 27.1075 135.748 25.9788 136.719 25.0364C137.689 24.0939 138.839 23.3569 140.099 22.8692C141.359 22.3815 142.704 22.153 144.054 22.1974C145.683 22.1593 147.293 22.5553 148.719 23.3451C150.145 24.1349 151.337 25.2903 152.174 26.6932ZM164.45 22.1974C162.86 22.1519 161.283 22.5067 159.865 23.2296C158.447 23.9525 157.232 25.0204 156.33 26.3357L158.717 28.7732C160.239 26.9641 161.815 25.9024 164.05 25.9024C164.607 25.8405 165.17 25.905 165.699 26.0911C166.227 26.2772 166.707 26.5801 167.103 26.9775C167.499 27.3748 167.801 27.8564 167.987 28.3867C168.172 28.9169 168.236 29.4822 168.175 30.0407V31.2974H162.711C158.393 31.2974 155.607 33.4641 155.607 36.8116C155.607 40.1591 158.285 42.4016 162.323 42.4016C163.479 42.4589 164.633 42.2551 165.7 41.8051C166.767 41.3551 167.72 40.6704 168.488 39.8016V41.9682H172.332V30.2682C172.342 24.9166 169.082 22.1974 164.45 22.1974ZM168.434 34.8182C168.41 35.4487 168.262 36.0681 167.998 36.6405C167.733 37.2129 167.358 37.7268 166.894 38.1522C166.43 38.5777 165.886 38.9062 165.294 39.1187C164.702 39.3312 164.074 39.4234 163.446 39.3899C161.567 39.3899 160.077 38.5232 160.077 36.8332C160.077 35.1432 161.286 34.4607 163.489 34.4607H168.434V34.8182ZM189.434 22.6307V26.2924H188.182C185.126 26.2924 182.535 28.0691 182.535 31.6549V41.9682H178.41V22.6307H182.254V25.1549C182.914 24.2939 183.765 23.5996 184.74 23.1274C185.715 22.6553 186.786 22.4184 187.869 22.4357C188.386 22.4294 188.902 22.495 189.402 22.6307H189.434ZM210.704 31.0591C210.731 29.8815 210.519 28.7108 210.08 27.6183C209.641 26.5259 208.984 25.5348 208.151 24.7055C207.317 23.8761 206.324 23.226 205.231 22.7948C204.139 22.3635 202.97 22.1603 201.797 22.1974C200.451 22.1878 199.118 22.4486 197.875 22.9645C196.632 23.4804 195.504 24.2409 194.558 25.2011C193.613 26.1614 192.869 27.3019 192.37 28.5555C191.871 29.809 191.627 31.1501 191.653 32.4997C191.679 33.8493 191.974 35.18 192.521 36.4133C193.068 37.6465 193.855 38.7574 194.837 39.6804C195.819 40.6033 196.975 41.3196 198.237 41.7869C199.499 42.2543 200.842 42.4633 202.185 42.4016C205.058 42.4131 207.821 41.2973 209.884 39.2924L207.919 36.4541C206.408 37.9087 204.398 38.7267 202.304 38.7399C200.812 38.8454 199.336 38.38 198.172 37.4374C197.008 36.4947 196.243 35.1447 196.031 33.6591H210.391C210.578 32.8051 210.672 31.9334 210.672 31.0591H210.704ZM196.323 30.6041C196.538 29.2856 197.213 28.0868 198.227 27.2216C199.242 26.3564 200.53 25.8812 201.862 25.8807C202.501 25.842 203.141 25.9359 203.743 26.1564C204.345 26.3769 204.895 26.7194 205.359 27.1626C205.823 27.6057 206.191 28.14 206.44 28.7321C206.689 29.3242 206.814 29.9614 206.807 30.6041H196.323ZM19.4347 26.8232C18.0611 27.0689 16.7229 27.4837 15.4506 28.0582C14.1744 28.6419 12.9683 29.3688 11.8552 30.2249C10.8046 29.0836 9.9245 27.7954 9.24228 26.4007C8.55114 25.0028 8.05695 23.5152 7.77388 21.9807C10.3397 20.1962 13.3572 19.1782 16.4763 19.0449C16.6538 20.4182 16.9871 21.7667 17.4696 23.0641C17.9642 24.3952 18.6244 25.6583 19.4347 26.8232ZM27.1438 19.0882C27.3952 17.695 27.8158 16.338 28.3962 15.0474C28.9818 13.7825 29.7061 12.5871 30.5556 11.4832C28.2565 9.37018 25.4076 7.95409 22.3391 7.39908C21.458 8.68349 20.7568 10.0832 20.2553 11.5591C19.7636 13.0316 19.4872 14.5678 19.4347 16.1199C20.826 16.3014 22.1918 16.6431 23.5052 17.1382C24.7922 17.6455 26.0168 18.2998 27.1546 19.0882H27.1438ZM48.8458 15.9899C50.3519 16.0475 51.8456 16.2876 53.2942 16.7049C54.8346 17.1434 56.3172 17.7653 57.7102 18.5574C57.6653 15.3908 56.834 12.2855 55.2917 9.52241C53.9607 8.76762 52.543 8.17828 51.07 7.76741C49.5117 7.33521 47.9037 7.1094 46.2869 7.09574C47.0815 8.48847 47.7051 9.9726 48.144 11.5157C48.5556 12.9739 48.7948 14.4756 48.8566 15.9899H48.8458ZM32.5963 9.22991C33.709 8.20502 34.9375 7.31425 36.2565 6.57574C37.6535 5.79488 39.14 5.18736 40.6833 4.76658C39.5341 3.62656 38.2377 2.64643 36.8287 1.85241C35.497 1.08867 34.0751 0.49543 32.5963 0.0865784C31.1216 0.497455 29.7035 1.09061 28.3746 1.85241C26.9657 2.64643 25.6692 3.62656 24.5201 4.76658C26.0633 5.18736 27.5498 5.79488 28.9469 6.57574C30.2643 7.31155 31.4895 8.20258 32.5963 9.22991ZM11.8768 34.3524C10.8096 35.5219 9.91518 36.8389 9.22069 38.2632C8.55093 39.6357 8.07142 41.0937 7.79548 42.5966C9.07803 43.4765 10.4725 44.1797 11.9415 44.6874C13.4088 45.1836 14.9398 45.4646 16.4871 45.5216C16.6942 44.1276 17.0564 42.7613 17.5668 41.4482C18.0422 40.1473 18.6692 38.9073 19.4347 37.7541C18.0438 37.5115 16.6901 37.0891 15.4074 36.4974C14.1515 35.9224 12.9666 35.2026 11.8768 34.3524ZM16.3575 15.9357C16.4194 14.4215 16.6586 12.9198 17.0701 11.4616C17.5091 9.91844 18.1327 8.4343 18.9272 7.04158C17.3105 7.05524 15.7025 7.28104 14.1441 7.71324C12.6612 8.13963 11.2361 8.74724 9.9009 9.52241C9.14851 10.8616 8.56116 12.2876 8.15178 13.7691C7.72098 15.329 7.49592 16.9388 7.48236 18.5574C8.86766 17.765 10.3431 17.143 11.8768 16.7049C13.3324 16.2859 14.8334 16.0458 16.3467 15.9899L16.3575 15.9357ZM34.7125 11.4399C35.5708 12.5533 36.2956 13.7641 36.8719 15.0474C37.4433 16.3254 37.8602 17.6675 38.1136 19.0449C39.2697 18.2301 40.5252 17.5675 41.8494 17.0732C43.1457 16.5855 44.4932 16.2475 45.8659 16.0657C45.7946 14.4829 45.5002 12.9182 44.9913 11.4182C44.4915 9.97478 43.8016 8.60485 42.9399 7.34491C41.4123 7.63014 39.9303 8.12213 38.5347 8.80741C37.1219 9.50791 35.8195 10.4132 34.6693 11.4941L34.7125 11.4399ZM57.4619 21.9266C56.1788 21.0437 54.7798 20.3437 53.305 19.8466C51.8436 19.3407 50.3153 19.0559 48.7703 19.0016C48.5632 20.3956 48.201 21.7619 47.6906 23.0749C47.1961 24.385 46.5434 25.6292 45.7471 26.7799C47.1407 27.0258 48.4975 27.4481 49.7852 28.0366C51.0446 28.6201 52.2329 29.3471 53.3266 30.2032C54.3937 29.0337 55.2882 27.7167 55.9827 26.2924C56.6543 24.9273 57.1374 23.4767 57.4187 21.9807L57.4619 21.9266ZM45.7579 37.7649C46.566 38.9312 47.2261 40.194 47.7229 41.5241C48.2054 42.8252 48.5387 44.1773 48.7163 45.5541C50.298 45.4801 51.8612 45.181 53.359 44.6657C54.8014 44.1732 56.1679 43.4804 57.4187 42.6074C57.1307 41.0742 56.6368 39.5873 55.9503 38.1874C55.2681 36.7927 54.388 35.5046 53.3374 34.3632C52.222 35.2216 51.012 35.9486 49.7312 36.5299C48.4632 37.106 47.1284 37.5209 45.7579 37.7649ZM6.9749 28.6324C6.19501 27.2302 5.586 25.7389 5.161 24.1907C4.02885 25.3473 3.05242 26.6475 2.25659 28.0582C1.50001 29.3929 0.908982 30.8154 0.496674 32.2941C0.910786 33.7756 1.5017 35.2014 2.25659 36.5407C3.05535 37.9463 4.03155 39.2426 5.161 40.3974C5.586 38.8493 6.19501 37.358 6.9749 35.9557C7.70727 34.6333 8.5954 33.4039 9.62018 32.2941C8.5954 31.1843 7.70727 29.9549 6.9749 28.6324ZM60.0424 24.1907C59.6174 25.7389 59.0084 27.2302 58.2285 28.6324C57.4961 29.9549 56.608 31.1843 55.5832 32.2941C56.608 33.4039 57.4961 34.6333 58.2285 35.9557C59.0084 37.358 59.6174 38.8493 60.0424 40.3974C61.1718 39.2426 62.148 37.9463 62.9468 36.5407C63.7017 35.2014 64.2926 33.7756 64.7067 32.2941C64.2944 30.8154 63.7034 29.3929 62.9468 28.0582C62.151 26.6475 61.1745 25.3473 60.0424 24.1907ZM48.8566 48.5982C48.7956 50.1161 48.5564 51.6215 48.144 53.0832C47.7051 54.6264 47.0815 56.1105 46.2869 57.5032C47.9037 57.4896 49.5117 57.2638 51.07 56.8316C52.5468 56.4215 53.9681 55.8322 55.3025 55.0766C56.8448 52.3135 57.6761 49.2082 57.721 46.0416C56.328 46.8337 54.8454 47.4556 53.305 47.8941C51.8559 48.3077 50.3623 48.5442 48.8566 48.5982ZM32.5963 55.3582C31.4895 56.3856 30.2643 57.2766 28.9469 58.0124C27.5498 58.7933 26.0633 59.4008 24.5201 59.8216C25.6692 60.9616 26.9657 61.9417 28.3746 62.7357C29.7035 63.4975 31.1216 64.0907 32.5963 64.5016C34.0751 64.0927 35.497 63.4995 36.8287 62.7357C38.2377 61.9417 39.5341 60.9616 40.6833 59.8216C39.14 59.4008 37.6535 58.7933 36.2565 58.0124C34.9375 57.2739 33.709 56.3831 32.5963 55.3582ZM30.5341 53.0832C29.68 51.9669 28.9555 50.7566 28.3746 49.4757C27.814 48.2021 27.401 46.8681 27.1438 45.4999C25.9874 46.3114 24.7319 46.9705 23.408 47.4607C22.1116 47.9485 20.7641 48.2865 19.3915 48.4682C19.4605 50.0407 19.7551 51.5951 20.2661 53.0832C20.7658 54.5267 21.4558 55.8966 22.3175 57.1566C23.8451 56.8713 25.327 56.3794 26.7227 55.6941C28.1118 55.0124 29.3954 54.133 30.5341 53.0832ZM38.092 45.4999C37.8417 46.8947 37.4172 48.2524 36.8287 49.5407C36.2478 50.8081 35.5232 52.004 34.6693 53.1049C36.9685 55.218 39.8174 56.6341 42.8859 57.1891C43.7589 55.9209 44.4563 54.5397 44.9589 53.0832C45.4579 51.6118 45.7416 50.0755 45.8011 48.5224C44.4098 48.3409 43.0439 47.9992 41.7306 47.5041C40.4278 46.9863 39.1917 46.3134 38.0488 45.4999H38.092ZM16.3899 48.5982C14.8621 48.5459 13.3464 48.3058 11.8768 47.8832C10.3357 47.4468 8.85288 46.8247 7.46077 46.0307C7.49186 49.1992 8.32402 52.308 9.87931 55.0657C11.2137 55.8213 12.635 56.4107 14.1117 56.8207C15.6701 57.2529 17.2781 57.4787 18.8948 57.4924C18.1085 56.1021 17.4923 54.6217 17.0593 53.0832C16.647 51.6215 16.4078 50.1161 16.3467 48.5982H16.3899ZM105.206 12.9999C104.564 12.6283 103.803 12.5234 103.085 12.7076C102.366 12.8918 101.748 13.3505 101.363 13.9857C101.106 14.4063 100.972 14.8902 100.974 15.3832C100.972 15.8728 101.107 16.3532 101.363 16.7699C101.61 17.1749 101.955 17.5104 102.367 17.7449C102.803 17.987 103.294 18.1102 103.792 18.1024C104.28 18.1162 104.762 18.0001 105.191 17.7661C105.62 17.5321 105.979 17.1884 106.232 16.7699C106.493 16.3554 106.628 15.8735 106.621 15.3832C106.606 14.9234 106.472 14.4755 106.232 14.0832C105.987 13.6409 105.634 13.2681 105.206 12.9999ZM97.1734 28.3507C96.6476 27.1229 95.8758 26.0167 94.906 25.1007C93.9573 24.1583 92.8308 23.4152 91.5924 22.9148C90.3539 22.4144 89.0285 22.1668 87.6936 22.1866C86.5486 22.2113 85.4209 22.4722 84.3807 22.953C83.3405 23.4339 82.41 24.1244 81.6473 24.9816V13.2599H77.5444V32.2724C77.5323 33.6151 77.7817 34.9473 78.2786 36.1941C78.7725 37.4125 79.5071 38.518 80.438 39.4441C81.3674 40.3703 82.4675 41.1062 83.6771 41.6107C84.9339 42.1159 86.2749 42.3769 87.6288 42.3799C88.971 42.3971 90.3032 42.1467 91.5482 41.6432C92.7557 41.1349 93.8551 40.3994 94.7873 39.4766C95.764 38.5537 96.5375 37.436 97.0582 36.1953C97.5788 34.9546 97.8351 33.6184 97.8104 32.2724C97.8638 30.9355 97.6471 29.6015 97.1734 28.3507ZM93.2541 34.7641C92.973 35.533 92.5396 36.2369 91.98 36.8332C91.433 37.3967 90.7747 37.8395 90.0474 38.1332C88.531 38.7111 86.8562 38.7111 85.3399 38.1332C84.6205 37.8363 83.97 37.3938 83.4288 36.8332C82.8722 36.247 82.4389 35.5543 82.1547 34.7966C81.8711 34.0122 81.7321 33.1826 81.7444 32.3482C81.7303 31.5032 81.8693 30.6626 82.1547 29.8674C82.4343 29.1169 82.8684 28.434 83.4288 27.8632C83.9683 27.2721 84.6272 26.8031 85.3615 26.4874C86.1196 26.1773 86.9289 26.0119 87.7476 25.9999C88.5446 26.0083 89.3327 26.1701 90.069 26.4766C90.7966 26.7929 91.4483 27.2621 91.98 27.8524C92.5435 28.4228 92.9813 29.1056 93.2649 29.8566C93.5666 30.6482 93.7168 31.4899 93.7076 32.3374C93.7121 33.1669 93.562 33.99 93.2649 34.7641H93.2541ZM101.708 41.9574H105.811V22.6307H101.719L101.708 41.9574ZM129.241 28.3507C128.715 27.1229 127.943 26.0167 126.973 25.1007C126.025 24.1583 124.898 23.4152 123.66 22.9148C122.421 22.4144 121.096 22.1668 119.761 22.1866C118.409 22.1736 117.067 22.4237 115.809 22.9232C114.601 23.4297 113.501 24.1654 112.57 25.0899C111.642 26.0188 110.908 27.1236 110.411 28.3399C109.434 30.8626 109.434 33.6606 110.411 36.1832C110.905 37.4016 111.639 38.5071 112.57 39.4332C113.499 40.3595 114.6 41.0954 115.809 41.5999C117.064 42.1103 118.406 42.3715 119.761 42.3691C121.096 42.3888 122.421 42.1412 123.66 41.6409C124.898 41.1405 126.025 40.3973 126.973 39.4549C127.943 38.5389 128.715 37.4327 129.241 36.2049C130.248 33.6844 130.248 30.8713 129.241 28.3507ZM125.321 34.7641C125.036 35.531 124.603 36.234 124.047 36.8332C123.505 37.4107 122.846 37.8651 122.115 38.1657C120.598 38.7436 118.923 38.7436 117.407 38.1657C116.695 37.8578 116.055 37.404 115.528 36.8332C114.972 36.247 114.539 35.5543 114.254 34.7966C113.976 34.0108 113.837 33.1822 113.844 32.3482C113.835 31.5036 113.974 30.6639 114.254 29.8674C114.534 29.1075 114.968 28.414 115.528 27.8307C116.069 27.2406 116.727 26.7718 117.461 26.4549C118.218 26.1454 119.03 25.9907 119.847 25.9999C120.645 25.9977 121.435 26.1599 122.169 26.4766C122.894 26.7966 123.545 27.2653 124.08 27.8524C124.634 28.4303 125.07 29.111 125.365 29.8566C125.666 30.6482 125.816 31.4899 125.807 32.3374C125.801 33.169 125.64 33.9921 125.332 34.7641H125.321Z" fill="white"/>
</svg>
