<svg width="130" height="40" viewBox="0 0 130 40" fill="none" xmlns="http://www.w3.org/2000/svg">
<path fill-rule="evenodd" clip-rule="evenodd" d="M21.5877 4.79177C20.7793 5.24214 20.0539 5.78092 19.4251 6.36199C18.7975 5.78092 18.0721 5.24214 17.263 4.79177C16.4546 4.34204 15.5695 3.97367 14.6428 3.71933C15.3324 3.03833 16.1063 2.46111 16.9237 1.99536C17.7398 1.53153 18.6057 1.17726 19.4251 0.952393C20.2456 1.17726 21.1116 1.53153 21.9271 1.99536C22.7451 2.46111 23.519 3.03833 24.208 3.71933C23.2819 3.97367 22.3968 4.34204 21.5877 4.79177ZM10.2267 7.71311C9.97236 8.60488 9.83943 9.49986 9.80556 10.3564C8.95174 10.3904 8.0583 10.5243 7.16933 10.7786C6.27973 11.0336 5.39396 11.4013 4.55995 11.8773C4.56634 10.908 4.7063 9.95023 4.95682 9.04244C5.20607 8.13529 5.56843 7.2717 5.98958 6.53176C6.72773 6.10893 7.59049 5.74633 8.4948 5.4952C9.40102 5.24535 10.3558 5.10505 11.3227 5.09736C10.8479 5.93468 10.4811 6.82197 10.2267 7.71311ZM20.6489 7.69901C21.1704 8.38578 21.5928 9.09113 21.9245 9.833C22.2562 10.5742 22.4965 11.3424 22.6556 12.1931C23.3458 11.7062 24.1063 11.3161 24.8669 11.0297C25.628 10.7427 26.3815 10.5563 27.2442 10.4378C27.1989 9.44605 27.018 8.53697 26.7266 7.68556C26.4352 6.83414 26.0191 6.0122 25.5104 5.27674C24.6106 5.44459 23.7274 5.73672 22.903 6.14545C22.0792 6.55418 21.3135 7.07695 20.6489 7.69901ZM62.4016 8.61769C62.151 8.47483 61.8718 8.39667 61.5663 8.39667C61.2531 8.39667 60.9694 8.47355 60.7188 8.61769C60.4709 8.75992 60.2702 8.95531 60.1226 9.1994C59.9762 9.44413 59.8944 9.7196 59.8944 10.0258C59.8944 10.3327 59.9762 10.6043 60.1226 10.8446C60.2702 11.0848 60.4702 11.2776 60.7188 11.4186C60.9681 11.5602 61.2531 11.6319 61.5663 11.6319C61.8801 11.6319 62.1632 11.5595 62.4137 11.4186C62.6661 11.277 62.8617 11.0835 63.01 10.8446C63.1589 10.6037 63.2381 10.3327 63.2381 10.0258C63.2381 9.7196 63.1563 9.44348 63.0061 9.1994C62.8553 8.95595 62.6534 8.7612 62.4016 8.61769ZM56.313 15.7519C56.9054 16.3227 57.3502 16.9621 57.6519 17.6681C57.9503 18.3785 58.1012 19.1505 58.1012 19.9878C58.1012 20.8258 57.9503 21.5978 57.6519 22.3115C57.3502 23.0219 56.9054 23.6658 56.313 24.2481C55.7212 24.8183 55.0713 25.2482 54.3593 25.5358C53.6506 25.8267 52.8766 25.9695 52.0414 25.9695C51.1933 25.9586 50.4155 25.8074 49.703 25.516C48.9955 25.2251 48.3487 24.7946 47.7684 24.2244C47.1882 23.6542 46.7549 23.0142 46.4647 22.3076C46.1746 21.5978 46.0269 20.8258 46.0269 19.9878V8.74646H48.465V15.6821C49.3393 14.625 50.8469 14.0299 52.0414 14.0299C52.8766 14.0299 53.6506 14.1727 54.3593 14.4636C55.0713 14.7519 55.7212 15.1817 56.313 15.7519ZM54.5721 22.6651C54.9089 22.3044 55.1633 21.9046 55.3339 21.4581C55.5078 21.0161 55.5934 20.5349 55.5934 20.0109C55.5934 19.476 55.5078 18.9872 55.3339 18.5445C55.1633 18.1024 54.9089 17.7071 54.5721 17.358C54.2353 16.9967 53.8596 16.7289 53.4416 16.5469C53.0243 16.3688 52.5635 16.2753 52.0644 16.2644C51.5531 16.2753 51.0847 16.3688 50.6558 16.5469C50.2302 16.7289 49.8467 16.9967 49.5099 17.358C49.1731 17.7071 48.922 18.1024 48.759 18.5445C48.5929 18.9872 48.5111 19.476 48.5111 20.0109C48.5111 20.5349 48.5929 21.0161 48.759 21.4581C48.922 21.9046 49.1731 22.3044 49.5099 22.6651C49.8467 23.0142 50.2257 23.2775 50.6437 23.4524C51.0655 23.6273 51.5301 23.7119 52.0414 23.7119C52.5405 23.7119 53.0045 23.6273 53.4301 23.4524C53.8525 23.2775 54.2353 23.0142 54.5721 22.6651ZM76.6333 17.6681C76.3336 16.9621 75.8862 16.3221 75.2944 15.7519C74.7033 15.1817 74.0508 14.7531 73.3401 14.4636C72.6307 14.1753 71.8574 14.0299 71.0222 14.0299C70.1754 14.0299 69.397 14.174 68.685 14.4636C67.9769 14.7519 67.3295 15.1817 66.7499 15.7519C66.1696 16.3221 65.7344 16.9621 65.4455 17.6681C65.1547 18.3779 65.0084 19.1505 65.0084 19.9878C65.0084 20.8258 65.1547 21.5984 65.4455 22.3076C65.7344 23.0142 66.1696 23.6542 66.7499 24.2244C67.3295 24.7946 67.9763 25.2264 68.685 25.516C69.3963 25.8074 70.1754 25.9644 71.0222 25.9695C71.8574 25.9759 72.6307 25.8247 73.3401 25.5358C74.0508 25.2462 74.7052 24.8209 75.2944 24.2481C75.8894 23.6683 76.3336 23.0226 76.6333 22.3115C76.9337 21.5991 77.0826 20.8258 77.0826 19.9878C77.0826 19.1505 76.9337 18.3779 76.6333 17.6681ZM74.3154 21.4581C74.1434 21.9034 73.8923 22.3063 73.5529 22.6651C73.2193 23.0162 72.8333 23.2788 72.4115 23.4524C71.9865 23.6273 71.5213 23.7119 71.0222 23.7119C70.5109 23.7119 70.0463 23.6273 69.6245 23.4524C69.2072 23.2788 68.8244 23.0162 68.4914 22.6651C68.152 22.3063 67.9053 21.9034 67.7405 21.4581C67.5762 21.0161 67.4925 20.5349 67.4925 20.0109C67.4925 19.476 67.5756 18.9884 67.7405 18.5445C67.9047 18.1037 68.1572 17.7097 68.4914 17.358C68.8307 16.9999 69.2104 16.7276 69.6366 16.5469C70.0655 16.3663 70.5345 16.2644 71.0452 16.2644C71.5449 16.2644 72.0057 16.3676 72.423 16.5469C72.841 16.7276 73.2136 16.9999 73.5529 17.358C73.8865 17.7104 74.1434 18.1037 74.3154 18.5445C74.4879 18.9884 74.5742 19.476 74.5742 20.0109C74.5742 20.5349 74.4873 21.0161 74.3154 21.4581ZM60.3354 25.7146H62.7735V14.2855H60.3354V25.7146ZM7.16933 29.2208C8.0583 29.4764 8.95174 29.6097 9.80556 29.6443C9.83943 30.4995 9.97236 31.3945 10.2267 32.2863C10.4804 33.1774 10.8479 34.0653 11.3227 34.9027C10.3558 34.8943 9.40038 34.7547 8.4948 34.5042C7.59049 34.2537 6.72773 33.8911 5.98958 33.4683C5.56843 32.7283 5.20543 31.8641 4.95682 30.9569C4.7063 30.0485 4.56634 29.0914 4.55931 28.1227C5.39396 28.5994 6.27909 28.9658 7.16933 29.2208ZM22.6473 27.8095C22.5035 28.6436 22.2409 29.4578 21.9047 30.1997C21.5692 30.9428 21.1685 31.6078 20.6419 32.3036C21.373 32.9724 22.1424 33.4868 22.9496 33.8828C23.7561 34.2774 24.6304 34.5638 25.5079 34.7239C26.0262 33.9673 26.4448 33.1358 26.7394 32.2613C27.034 31.3887 27.2059 30.4765 27.2372 29.5655C26.384 29.4482 25.5884 29.2496 24.8298 28.9607C24.0718 28.6711 23.3605 28.2983 22.6473 27.8095ZM16.9262 30.1664C17.2586 30.9095 17.681 31.6136 18.2018 32.3004C17.5372 32.9231 16.7722 33.4452 15.9478 33.8546C15.124 34.2633 14.2408 34.5554 13.3403 34.7226C12.8323 33.9872 12.4162 33.1659 12.1248 32.3145C11.8334 31.4624 11.6519 30.5533 11.6065 29.5623C12.4699 29.4444 13.2227 29.2573 13.9839 28.9703C14.7444 28.6839 15.5049 28.2938 16.1958 27.8063C16.3543 28.657 16.5952 29.4245 16.9262 30.1664ZM19.4251 33.638C18.7975 34.2185 18.0715 34.7579 17.263 35.2076C16.4546 35.658 15.5695 36.0264 14.6428 36.28C15.3317 36.9611 16.1063 37.5389 16.923 38.0034C17.7398 38.4678 18.6057 38.8221 19.4251 39.0476C20.2456 38.8221 21.111 38.4678 21.9271 38.0034C22.7451 37.5389 23.519 36.9611 24.208 36.28C23.2819 36.0264 22.3968 35.658 21.5877 35.2076C20.7793 34.7579 20.0539 34.2185 19.4251 33.638ZM28.624 32.2863C28.8784 31.3945 29.0113 30.4995 29.0458 29.6443C29.8996 29.6097 30.7924 29.4764 31.6821 29.2208C32.5717 28.9671 33.4574 28.5994 34.2914 28.1227C34.2838 29.0914 34.1444 30.0485 33.8946 30.9569C33.6447 31.8641 33.2823 32.7283 32.8612 33.4683C32.123 33.8911 31.2609 34.2537 30.356 34.5042C29.4504 34.7547 28.4956 34.8943 27.528 34.9027C28.0028 34.0653 28.3697 33.1774 28.624 32.2863ZM35.6674 15.2061C35.4124 16.1344 35.0462 17.021 34.5969 17.8314C34.1476 18.6431 33.6102 19.3703 33.0312 20C33.6102 20.6291 34.1476 21.3569 34.5969 22.1673C35.0462 22.9777 35.4124 23.865 35.6674 24.7933C36.3454 24.1033 36.9219 23.3275 37.3859 22.5081C37.8492 21.69 38.202 20.8213 38.4263 20C38.202 19.1787 37.8492 18.31 37.3859 17.4919C36.9219 16.6732 36.3454 15.8967 35.6674 15.2061ZM3.184 15.2061C3.43836 16.1344 3.80519 17.021 4.25383 17.8314C4.70375 18.6431 5.24058 19.3703 5.82023 20C5.24058 20.6291 4.70375 21.3569 4.25383 22.1673C3.80519 22.9777 3.43836 23.865 3.184 24.7933C2.50594 24.1033 1.92884 23.3275 1.46551 22.5081C1.00153 21.69 0.648757 20.8213 0.424438 20C0.648757 19.1787 1.00153 18.3094 1.46551 17.4919C1.92884 16.6725 2.50594 15.8967 3.184 15.2061ZM27.2123 23.2378C27.6993 23.9297 28.0872 24.6921 28.3735 25.4551C28.6605 26.2181 28.8464 26.9734 28.9647 27.8383C29.9533 27.7922 30.8602 27.6115 31.7102 27.3187C32.5589 27.0266 33.3788 26.6095 34.1125 26.1002C33.945 25.1969 33.6543 24.3122 33.2465 23.4851C32.8388 22.6593 32.3167 21.8925 31.6967 21.2268C31.011 21.7483 30.3087 22.1724 29.568 22.5049C28.8273 22.8381 28.0616 23.0783 27.2123 23.2378ZM31.6571 12.6685C32.5282 12.9638 33.359 13.3828 34.1138 13.9024C33.9546 14.782 33.6696 15.659 33.274 16.4675C32.8797 17.276 32.3659 18.0473 31.6987 18.7809C31.0059 18.2523 30.3419 17.85 29.6006 17.5143C28.8605 17.178 28.0482 16.914 27.2161 16.7692C27.7031 16.0556 28.0757 15.3413 28.3646 14.5821C28.6534 13.8216 28.8509 13.024 28.9679 12.1688C29.8766 12.2002 30.7867 12.3731 31.6571 12.6685ZM7.15144 21.2192C6.48424 21.9527 5.97169 22.724 5.57674 23.5325C5.18178 24.341 4.89675 25.2174 4.73762 26.097C5.49238 26.6172 6.32191 27.0362 7.19362 27.3322C8.06469 27.6275 8.97475 27.7992 9.88353 27.8312C9.9992 26.976 10.198 26.1771 10.4868 25.4179C10.775 24.6581 11.147 23.9445 11.6353 23.2295C10.8032 23.0847 9.99089 22.822 9.25019 22.4851C8.50949 22.1487 7.84485 21.7464 7.15144 21.2192ZM29.0458 10.3564C29.8996 10.3904 30.7924 10.5243 31.6821 10.7786C32.5717 11.0336 33.4574 11.4013 34.2914 11.8773C34.2838 10.908 34.1451 9.95023 33.8946 9.04244C33.6447 8.13529 33.2823 7.2717 32.8612 6.53176C32.123 6.10893 31.2609 5.74633 30.356 5.4952C29.4504 5.24535 28.4956 5.10505 27.528 5.09736C28.0028 5.93468 28.3697 6.82197 28.624 7.71311C28.8784 8.60552 29.0113 9.49986 29.0458 10.3564ZM16.946 9.79968C16.6099 10.5415 16.3479 11.3564 16.2028 12.1899C15.4902 11.7011 14.7789 11.3289 14.0203 11.0393C13.263 10.7491 12.4667 10.5512 11.6142 10.4346C11.6455 9.52356 11.8168 8.61129 12.1114 7.73809C12.406 6.86489 12.8246 6.03206 13.3435 5.2761C14.221 5.43626 15.0946 5.72198 15.9018 6.11726C16.7083 6.51254 17.4778 7.02762 18.2089 7.69581C17.6829 8.39155 17.2816 9.05782 16.946 9.79968ZM11.6385 16.7622C10.7897 16.9211 10.0235 17.162 9.28279 17.4951C8.54273 17.8276 7.83973 18.2511 7.15464 18.7732C6.53408 18.1075 6.01195 17.3401 5.60422 16.5136C5.19648 15.6872 4.9057 14.8025 4.7389 13.8998C5.47129 13.3905 6.29187 12.9734 7.14121 12.6813C7.99056 12.3892 8.89806 12.2079 9.88672 12.1624C10.0043 13.0272 10.1909 13.7826 10.4766 14.5443C10.7635 15.3079 11.1521 16.069 11.6385 16.7622ZM119.554 14.0311C122.598 14.0311 124.827 16.267 124.827 19.2703C124.827 19.8994 124.712 20.5048 124.641 20.8079H116.14C116.465 22.6939 117.882 23.8112 119.857 23.8112C121.181 23.8112 122.226 23.2987 123.178 22.4607L124.339 24.1373C123.132 25.2783 121.599 25.9766 119.787 25.9766C116.256 25.9766 113.655 23.3922 113.655 20.0154C113.655 16.6629 116.233 14.0311 119.554 14.0311ZM119.592 16.208C117.965 16.208 116.688 17.3023 116.317 19.0019H122.518C122.495 17.2324 121.17 16.208 119.592 16.208ZM112.239 14.288V16.4534H111.496C109.684 16.4534 108.151 17.5015 108.151 19.6201V25.721H105.712V14.288H107.989V15.7782C108.779 14.7301 110.009 14.1714 111.31 14.1714C111.705 14.1714 111.984 14.2182 112.239 14.288ZM92.6609 16.4765C93.8458 14.7999 95.5413 14.0311 97.4694 14.0311C100.21 14.0311 102.138 15.6379 102.138 18.8052V25.721H99.8615V24.4403C99.0486 25.4179 97.794 25.9766 96.2149 25.9766C93.8228 25.9766 92.243 24.6498 92.243 22.6702C92.243 20.6682 93.8918 19.4106 96.4469 19.4106H99.6761V18.6656C99.6761 17.0819 98.7929 16.2202 97.2368 16.2202C95.9126 16.2202 94.984 16.8493 94.0778 17.9205L92.6609 16.4765ZM96.8559 24.1949C98.4581 24.1949 99.8059 23.054 99.8059 21.4934V21.2839H96.8789C95.5783 21.2839 94.8581 21.7496 94.8581 22.6805C94.8581 23.6824 95.74 24.1949 96.8559 24.1949ZM90.2011 16.686L88.4826 18.0364C87.7393 16.989 86.7871 16.29 85.4163 16.29C83.3258 16.29 81.8393 17.9205 81.8393 19.9923C81.8393 22.1116 83.3258 23.7183 85.4163 23.7183C86.7641 23.7183 87.7163 23.0431 88.4826 21.995L90.2011 23.3217C89.2028 24.9291 87.5303 25.9766 85.3933 25.9766C82.0253 25.9766 79.3539 23.3692 79.3539 19.9923C79.3539 16.6398 82.0253 14.0311 85.3933 14.0311C87.5534 14.0311 89.2258 15.0792 90.2011 16.686ZM125.397 9.27767H126.245V8.80954H124.03V9.27767H124.864V11.3348H125.397V9.27767ZM129.083 11.381V8.80954H128.913L127.805 10.181L126.697 8.80954H126.519V11.381H127.06V10.0293L127.716 10.8271H127.894L128.55 10.0293V11.381H129.083Z" fill="#2265C6"/>
</svg>
