<svg width="150" height="150" viewBox="0 0 150 150" fill="none" xmlns="http://www.w3.org/2000/svg">
<path fill-rule="evenodd" clip-rule="evenodd" d="M105.804 5.85938H44.1964C42.1924 5.85938 40.5191 7.34938 40.2385 9.33572C38.4072 22.2992 26.6024 28.9637 21.4464 31.2114C19.9896 31.8465 19.043 33.2804 19.043 34.8713V87.6228C19.043 122.144 75.0001 144.141 75.0001 144.141C75.0001 144.141 130.957 122.144 130.957 87.6228V34.8711C130.957 33.2804 130.01 31.8465 128.554 31.2114C123.398 28.9637 111.593 22.2992 109.761 9.33572C109.481 7.34938 107.808 6.02587 105.804 6.02587V5.85938Z" fill="#ADC6FF"/>
<path fill-rule="evenodd" clip-rule="evenodd" d="M100.65 16.9922C101.405 19.3422 102.417 21.6091 103.678 23.7734C105.531 26.9544 107.93 29.9195 110.808 32.5857C114.035 35.5759 117.446 37.8127 120.41 39.4299V88.2144C120.41 101.42 107.843 113.116 97.301 120.603C88.7307 126.689 80.0021 131.063 75.1397 133.301C70.3559 131.103 61.8221 126.83 53.3005 120.821C46.0902 115.737 40.4216 110.492 36.4522 105.232C34.2912 102.369 32.642 99.4967 31.5505 96.6967C30.4284 93.8183 29.8828 91.0437 29.8828 88.2144V39.4299C32.8468 37.8127 36.258 35.5758 39.485 32.5857C42.3626 29.9195 44.7615 26.9546 46.6151 23.7734C47.8759 21.6092 48.8876 19.3422 49.6434 16.9922H100.65Z" fill="#597EF7"/>
<path fill-rule="evenodd" clip-rule="evenodd" d="M72.5863 87.23C71.8817 87.227 71.1781 86.9566 70.6406 86.419L57.647 73.4254C56.5656 72.3442 56.5656 70.591 57.647 69.5097L58.9521 68.2045C60.0335 67.1232 61.7866 67.1232 62.868 68.2045L72.589 77.9255L91.6051 58.8188C92.6864 57.7375 94.4395 57.7375 95.5209 58.8188L96.8262 60.124C97.9074 61.2054 97.9074 62.9585 96.8262 64.0399L77.8139 83.1504L77.8194 83.1559L75.6952 85.2801L74.5622 86.4191C74.017 86.9643 73.3009 87.2346 72.5863 87.23Z" fill="white"/>
</svg>
