<svg width="104" height="32" viewBox="0 0 104 32" fill="none" xmlns="http://www.w3.org/2000/svg">
<path d="M63.8301 26.1333L63.4117 26.464C63.3345 26.3346 63.226 26.2271 63.0963 26.1516C62.9666 26.076 62.8199 26.0349 62.6701 26.032C62.4412 26.0496 62.2273 26.1536 62.0712 26.3232C61.9152 26.4928 61.8285 26.7155 61.8285 26.9467C61.8285 27.1779 61.9152 27.4005 62.0712 27.5701C62.2273 27.7397 62.4412 27.8437 62.6701 27.8613C62.8188 27.8591 62.9646 27.8194 63.0942 27.7458C63.2237 27.6722 63.3329 27.567 63.4117 27.44L63.8301 27.7653C63.7097 27.9677 63.5388 28.1348 63.3344 28.2499C63.1299 28.365 62.899 28.4241 62.6648 28.4213C62.2771 28.4213 61.9053 28.2663 61.6311 27.9902C61.357 27.7141 61.2029 27.3397 61.2029 26.9493C61.2029 26.5589 61.357 26.1845 61.6311 25.9085C61.9053 25.6324 62.2771 25.4773 62.6648 25.4773C62.8994 25.4724 63.1311 25.5306 63.336 25.6459C63.5408 25.7612 63.7114 25.9295 63.8301 26.1333Z" fill="#1890FF"/>
<path d="M66.6797 26.6666V28.3733H66.15V28.0533C66.0404 28.1793 65.9039 28.2788 65.7507 28.3444C65.5976 28.4099 65.4317 28.4399 65.2655 28.432C64.6882 28.432 64.3015 28.1013 64.3015 27.616C64.3015 27.1306 64.7041 26.8106 65.3238 26.8106H66.1077V26.6293C66.119 26.548 66.1115 26.4651 66.0857 26.3872C66.06 26.3093 66.0167 26.2384 65.9593 26.18C65.9019 26.1217 65.8319 26.0775 65.7547 26.0509C65.6775 26.0243 65.5953 26.016 65.5145 26.0266C65.3624 26.0305 65.2135 26.0707 65.0799 26.144C64.9464 26.2173 64.8321 26.3215 64.7464 26.448L64.4021 26.0906C64.5304 25.8996 64.7044 25.7442 64.908 25.6389C65.1117 25.5335 65.3385 25.4816 65.5674 25.488C65.7208 25.4794 65.8742 25.5044 66.017 25.5615C66.1598 25.6185 66.2885 25.7061 66.3943 25.8182C66.5002 25.9304 66.5805 26.0643 66.6298 26.2108C66.679 26.3573 66.6961 26.5129 66.6797 26.6666ZM66.0865 27.3066V27.2533H65.3714C65.0589 27.2533 64.8841 27.3706 64.8841 27.6C64.8841 27.8293 65.096 27.9733 65.3714 27.9733C65.4625 27.9776 65.5535 27.9635 65.639 27.9319C65.7246 27.9002 65.803 27.8517 65.8696 27.789C65.9362 27.7264 65.9897 27.651 66.027 27.5672C66.0642 27.4835 66.0845 27.3931 66.0865 27.3013V27.3066Z" fill="#1890FF"/>
<path d="M69.0897 25.552V26.0853H68.9096C68.8039 26.0753 68.6972 26.0882 68.5969 26.1233C68.4965 26.1583 68.4048 26.2147 68.328 26.2885C68.2511 26.3623 68.191 26.4519 68.1515 26.5512C68.112 26.6505 68.0942 26.7572 68.0992 26.864V28.368H67.506V25.552H68.0356V25.92C68.1291 25.7942 68.2507 25.6924 68.3906 25.6229C68.5305 25.5534 68.6847 25.5181 68.8407 25.52C68.925 25.5153 69.0093 25.5262 69.0897 25.552Z" fill="#1890FF"/>
<path d="M72.2624 24.064V28.368H71.7327V27.968C71.6202 28.1182 71.4733 28.2389 71.3045 28.3197C71.1358 28.4004 70.9501 28.439 70.7634 28.432C70.3972 28.4006 70.056 28.2319 69.8074 27.9593C69.5587 27.6867 69.4208 27.3301 69.4208 26.96C69.4208 26.5899 69.5587 26.2333 69.8074 25.9607C70.056 25.6881 70.3972 25.5194 70.7634 25.488C70.9373 25.482 71.1104 25.5153 71.2699 25.5854C71.4294 25.6555 71.5712 25.7608 71.685 25.8933V24.064H72.2624ZM71.6744 26.96C71.6863 26.8431 71.6736 26.725 71.6372 26.6133C71.6008 26.5016 71.5414 26.399 71.463 26.3119C71.3845 26.2249 71.2888 26.1555 71.1819 26.1082C71.0751 26.0609 70.9596 26.0367 70.8428 26.0373C70.5998 26.0373 70.3668 26.1345 70.1949 26.3076C70.0231 26.4806 69.9265 26.7153 69.9265 26.96C69.9265 27.2047 70.0231 27.4394 70.1949 27.6124C70.3668 27.7855 70.5998 27.8827 70.8428 27.8827C70.9598 27.8841 71.0757 27.8606 71.183 27.8135C71.2902 27.7665 71.3863 27.6971 71.465 27.6099C71.5436 27.5226 71.6029 27.4196 71.639 27.3076C71.6751 27.1955 71.6872 27.0771 71.6744 26.96Z" fill="#1890FF"/>
<path d="M73.8249 24.5013C73.8242 24.5543 73.8131 24.6066 73.7922 24.6553C73.7712 24.7039 73.7409 24.7478 73.703 24.7845C73.665 24.8213 73.6202 24.85 73.5711 24.8692C73.522 24.8883 73.4697 24.8974 73.4171 24.896C73.3647 24.8974 73.3126 24.8883 73.2638 24.8691C73.215 24.8499 73.1706 24.821 73.133 24.7842C73.0955 24.7474 73.0657 24.7035 73.0453 24.6549C73.025 24.6063 73.0145 24.5541 73.0145 24.5013C73.0145 24.4483 73.025 24.3959 73.0453 24.347C73.0656 24.2981 73.0953 24.2538 73.1327 24.2166C73.1702 24.1794 73.2146 24.15 73.2634 24.1302C73.3122 24.1104 73.3645 24.1006 73.4171 24.1013C73.4699 24.1006 73.5224 24.1104 73.5715 24.1301C73.6206 24.1498 73.6654 24.1791 73.7033 24.2163C73.7411 24.2534 73.7714 24.2977 73.7923 24.3466C73.8131 24.3955 73.8242 24.4481 73.8249 24.5013ZM73.7137 28.368H73.1205V25.552H73.7137V28.368Z" fill="#1890FF"/>
<path d="M76.7646 26.6667V28.3733H76.2349V28.0533C76.1252 28.1793 75.9887 28.2788 75.8356 28.3444C75.6824 28.4099 75.5166 28.4399 75.3503 28.432C74.773 28.432 74.3864 28.1013 74.3864 27.616C74.3864 27.1307 74.7889 26.8107 75.4086 26.8107H76.1925V26.6293C76.2038 26.548 76.1963 26.4651 76.1706 26.3872C76.1448 26.3093 76.1016 26.2384 76.0441 26.1801C75.9867 26.1217 75.9167 26.0775 75.8395 26.0509C75.7624 26.0243 75.6802 26.016 75.5993 26.0267C75.4473 26.0305 75.2983 26.0708 75.1648 26.144C75.0312 26.2173 74.9169 26.3215 74.8313 26.448L74.487 26.0907C74.616 25.8992 74.791 25.7436 74.9956 25.6383C75.2002 25.5329 75.4278 25.4813 75.6576 25.488C75.8105 25.4802 75.9633 25.5059 76.1054 25.5632C76.2476 25.6206 76.3757 25.7084 76.4809 25.8204C76.5861 25.9324 76.666 26.0661 76.7149 26.2122C76.7639 26.3583 76.7808 26.5133 76.7646 26.6667ZM76.1713 27.3067V27.2533H75.4563C75.1438 27.2533 74.969 27.3707 74.969 27.6C74.969 27.8293 75.1809 27.9733 75.4563 27.9733C75.5473 27.9776 75.6383 27.9635 75.7238 27.9319C75.8094 27.9002 75.8878 27.8517 75.9544 27.7891C76.0211 27.7264 76.0746 27.651 76.1118 27.5673C76.1491 27.4835 76.1693 27.3931 76.1713 27.3013V27.3067Z" fill="#1890FF"/>
<path d="M80.0485 26.1333L79.63 26.464C79.5529 26.3346 79.4444 26.2271 79.3147 26.1516C79.185 26.076 79.0383 26.0349 78.8885 26.032C78.6596 26.0496 78.4457 26.1536 78.2896 26.3232C78.1336 26.4928 78.0469 26.7155 78.0469 26.9467C78.0469 27.1779 78.1336 27.4005 78.2896 27.5701C78.4457 27.7397 78.6596 27.8437 78.8885 27.8613C79.0372 27.8591 79.183 27.8194 79.3125 27.7458C79.4421 27.6722 79.5512 27.567 79.63 27.44L80.0485 27.7653C79.9273 27.9681 79.7554 28.1354 79.55 28.2505C79.3447 28.3656 79.1129 28.4245 78.8779 28.4213C78.4902 28.4213 78.1183 28.2663 77.8442 27.9902C77.57 27.7141 77.416 27.3397 77.416 26.9493C77.416 26.5589 77.57 26.1845 77.8442 25.9085C78.1183 25.6324 78.4902 25.4773 78.8779 25.4773C79.1134 25.4714 79.3462 25.5292 79.5521 25.6445C79.7579 25.7599 79.9293 25.9287 80.0485 26.1333Z" fill="#1890FF"/>
<path d="M74.6512 13.1413L73.2264 14.2667C72.961 13.8259 72.5881 13.4608 72.1431 13.206C71.6981 12.9511 71.1959 12.8151 70.684 12.8107C70.2857 12.8074 69.8909 12.8857 69.5236 13.0408C69.1563 13.1959 68.8241 13.4245 68.5472 13.7128C68.2703 14.0011 68.0545 14.343 67.9128 14.7179C67.7712 15.0927 67.7066 15.4926 67.7232 15.8933C67.7029 16.2957 67.7647 16.698 67.9048 17.0755C68.0449 17.4529 68.2603 17.7974 68.5377 18.0877C68.8151 18.3781 69.1487 18.6081 69.5179 18.7637C69.887 18.9192 70.2839 18.9969 70.684 18.992C71.1933 18.9869 71.6931 18.8528 72.1374 18.6021C72.5817 18.3513 72.9562 17.9921 73.2264 17.5573L74.6512 18.6667C74.2367 19.353 73.6509 19.918 72.952 20.3054C72.2532 20.6928 71.4657 20.8891 70.6681 20.8747C70.0059 20.8965 69.346 20.784 68.7279 20.5439C68.1097 20.3038 67.5458 19.941 67.0696 19.477C66.5935 19.013 66.2149 18.4574 65.9564 17.8431C65.6978 17.2289 65.5645 16.5685 65.5645 15.9013C65.5645 15.2342 65.6978 14.5738 65.9564 13.9595C66.2149 13.3453 66.5935 12.7896 67.0696 12.3256C67.5458 11.8617 68.1097 11.4988 68.7279 11.2587C69.346 11.0186 70.0059 10.9062 70.6681 10.928C71.4671 10.9092 72.2568 11.1042 72.9565 11.493C73.6562 11.8819 74.241 12.4506 74.6512 13.1413ZM80.6735 10.928C79.8934 10.9056 79.1202 11.0803 78.4244 11.4362C77.7286 11.7921 77.1325 12.3178 76.6904 12.9653L77.861 14.1653C78.6078 13.2747 79.3811 12.752 80.4775 12.752C80.7506 12.7215 81.027 12.7533 81.2862 12.8449C81.5455 12.9365 81.7809 13.0856 81.9752 13.2813C82.1695 13.4769 82.3176 13.714 82.4086 13.975C82.4996 14.2361 82.5311 14.5144 82.5008 14.7893V15.408H79.8207C77.7021 15.408 76.3355 16.4747 76.3355 18.1227C76.3355 19.7707 77.6491 20.8747 79.6301 20.8747C80.1972 20.9029 80.7634 20.8025 81.2868 20.581C81.8103 20.3595 82.2777 20.0224 82.6544 19.5947V20.6613H84.5401V14.9013C84.5454 12.2667 82.9458 10.928 80.6735 10.928ZM82.628 17.1413C82.6165 17.4517 82.5437 17.7566 82.414 18.0384C82.2843 18.3202 82.1003 18.5732 81.8725 18.7827C81.6448 18.9921 81.3779 19.1539 81.0875 19.2585C80.7971 19.3631 80.4889 19.4085 80.1809 19.392C79.2593 19.392 78.5283 18.9653 78.5283 18.1333C78.5283 17.3013 79.1216 16.9653 80.2021 16.9653H82.628V17.1413ZM92.93 11.1413V12.944H92.3156C90.8166 12.944 89.5454 13.8187 89.5454 15.584V20.6613H87.5221V11.1413H89.4077V12.384C89.7314 11.9601 90.149 11.6183 90.6272 11.3859C91.1054 11.1534 91.631 11.0368 92.162 11.0453C92.4159 11.0422 92.669 11.0745 92.9141 11.1413H92.93ZM103.364 15.2907C103.378 14.7109 103.273 14.1346 103.058 13.5968C102.843 13.059 102.521 12.571 102.112 12.1627C101.703 11.7544 101.215 11.4344 100.679 11.2221C100.144 11.0098 99.5703 10.9097 98.9947 10.928C98.3347 10.9232 97.6805 11.0517 97.0706 11.3056C96.4608 11.5596 95.9076 11.934 95.4438 12.4068C94.98 12.8795 94.6149 13.441 94.3701 14.0581C94.1253 14.6752 94.0057 15.3355 94.0185 15.9999C94.0312 16.6643 94.176 17.3194 94.4443 17.9266C94.7125 18.5337 95.0989 19.0806 95.5805 19.535C96.062 19.9894 96.6291 20.342 97.2483 20.5721C97.8674 20.8022 98.5261 20.9051 99.1853 20.8747C100.594 20.8804 101.95 20.331 102.962 19.344L101.998 17.9467C101.257 18.6628 100.271 19.0655 99.2436 19.072C98.5117 19.1239 97.7873 18.8948 97.2164 18.4307C96.6454 17.9667 96.2702 17.3021 96.1662 16.5707H103.211C103.302 16.1502 103.349 15.7211 103.349 15.2907H103.364ZM96.3092 15.0667C96.4148 14.4176 96.7459 13.8274 97.2437 13.4015C97.7414 12.9755 98.3732 12.7415 99.0264 12.7413C99.3401 12.7223 99.6543 12.7685 99.9494 12.877C100.245 12.9856 100.514 13.1542 100.742 13.3724C100.97 13.5905 101.15 13.8536 101.272 14.1451C101.395 14.4366 101.456 14.7503 101.452 15.0667H96.3092ZM9.534 13.2053C8.86016 13.3263 8.20371 13.5305 7.57953 13.8133C6.95349 14.1007 6.36179 14.4585 5.81574 14.88C5.30038 14.3181 4.86863 13.684 4.53395 12.9973C4.1949 12.3091 3.95247 11.5768 3.8136 10.8213C5.07229 9.94279 6.55258 9.44162 8.08272 9.376C8.16981 10.0521 8.3333 10.7159 8.57001 11.3547C8.81261 12.01 9.13651 12.6318 9.534 13.2053ZM13.3158 9.39733C13.4392 8.71144 13.6455 8.04335 13.9302 7.408C14.2175 6.78528 14.5728 6.19676 14.9896 5.65333C13.8617 4.61305 12.4641 3.9159 10.9588 3.64266C10.5265 4.27499 10.1826 4.96409 9.93655 5.69066C9.69537 6.4156 9.55978 7.1719 9.534 7.936C10.2165 8.02535 10.8866 8.19357 11.5308 8.43733C12.1622 8.68706 12.7629 9.00919 13.3211 9.39733H13.3158ZM23.9621 7.872C24.701 7.90035 25.4337 8.01854 26.1443 8.224C26.9 8.43985 27.6273 8.74603 28.3107 9.136C28.2886 7.57706 27.8808 6.04828 27.1242 4.688C26.4713 4.31641 25.7758 4.02627 25.0532 3.824C24.2888 3.61122 23.4999 3.50005 22.7068 3.49333C23.0966 4.17898 23.4025 4.90963 23.6178 5.66933C23.8197 6.38721 23.9371 7.12651 23.9674 7.872H23.9621ZM15.9906 4.544C16.5365 4.03944 17.1391 3.6009 17.7862 3.23733C18.4716 2.8529 19.2008 2.55382 19.9578 2.34666C19.3941 1.78543 18.7581 1.3029 18.0669 0.911997C17.4136 0.535999 16.7161 0.243945 15.9906 0.0426636C15.2672 0.244941 14.5715 0.536957 13.9196 0.911997C13.2284 1.3029 12.5925 1.78543 12.0287 2.34666C12.7858 2.55382 13.515 2.8529 14.2004 3.23733C14.8467 3.59957 15.4477 4.03823 15.9906 4.544ZM5.82634 16.912C5.30284 17.4878 4.86405 18.1361 4.52336 18.8373C4.1948 19.513 3.95957 20.2308 3.8242 20.9707C4.45337 21.4039 5.13746 21.7501 5.85812 22C6.5779 22.2443 7.32895 22.3826 8.08801 22.4107C8.1896 21.7244 8.36727 21.0517 8.61768 20.4053C8.85088 19.7649 9.15846 19.1544 9.534 18.5867C8.85167 18.4673 8.18758 18.2593 7.55835 17.968C6.94224 17.6849 6.36098 17.3305 5.82634 16.912ZM8.02445 7.84533C8.05481 7.09985 8.17214 6.36055 8.37403 5.64266C8.58937 4.88296 8.89527 4.15231 9.28506 3.46666C8.49194 3.47339 7.70311 3.58455 6.93864 3.79733C6.21116 4.00724 5.51206 4.30637 4.85705 4.688C4.48795 5.3473 4.19982 6.04934 3.99899 6.77866C3.78765 7.54661 3.67725 8.33914 3.67059 9.136C4.35018 8.74589 5.07398 8.43968 5.82634 8.224C6.54043 8.01769 7.27676 7.8995 8.01916 7.872L8.02445 7.84533ZM17.0288 5.632C17.4498 6.18013 17.8054 6.77623 18.0881 7.408C18.3684 8.03717 18.5729 8.69787 18.6972 9.376C19.2644 8.97486 19.8803 8.64864 20.5299 8.40533C21.1658 8.16522 21.8269 7.99881 22.5002 7.90933C22.4653 7.13009 22.3208 6.35976 22.0712 5.62133C21.826 4.9107 21.4876 4.23628 21.0648 3.616C20.3155 3.75642 19.5885 3.99863 18.9038 4.336C18.2107 4.68086 17.5718 5.12652 17.0076 5.65866L17.0288 5.632ZM28.1889 10.7947C27.5594 10.36 26.8731 10.0154 26.1496 9.77066C25.4327 9.52163 24.683 9.38143 23.925 9.35466C23.8234 10.0409 23.6458 10.7136 23.3954 11.36C23.1528 12.0049 22.8326 12.6175 22.442 13.184C23.1256 13.3051 23.7912 13.5129 24.4229 13.8027C25.0407 14.09 25.6237 14.4479 26.1602 14.8693C26.6837 14.2936 27.1225 13.6452 27.4632 12.944C27.7927 12.2719 28.0297 11.5578 28.1677 10.8213L28.1889 10.7947ZM22.4473 18.592C22.8437 19.1662 23.1675 19.7878 23.4113 20.4427C23.648 21.0832 23.8114 21.7488 23.8986 22.4267C24.6745 22.3903 25.4413 22.243 26.1761 21.9893C26.8837 21.7469 27.5541 21.4058 28.1677 20.976C28.0264 20.2212 27.7841 19.4892 27.4473 18.8C27.1126 18.1134 26.6809 17.4792 26.1655 16.9173C25.6183 17.3399 25.0248 17.6978 24.3964 17.984C23.7744 18.2676 23.1196 18.4718 22.4473 18.592ZM3.42165 14.096C3.03906 13.4057 2.74031 12.6715 2.53181 11.9093C1.97642 12.4787 1.49742 13.1188 1.10701 13.8133C0.735855 14.4704 0.445917 15.1707 0.243652 15.8987C0.446802 16.628 0.736686 17.33 1.10701 17.9893C1.49885 18.6813 1.97774 19.3195 2.53181 19.888C2.74031 19.1258 3.03906 18.3917 3.42165 17.7013C3.78093 17.0503 4.21661 16.445 4.71933 15.8987C4.21661 15.3523 3.78093 14.7471 3.42165 14.096ZM29.4548 11.9093C29.2463 12.6715 28.9475 13.4057 28.5649 14.096C28.2056 14.7471 27.77 15.3523 27.2672 15.8987C27.77 16.445 28.2056 17.0503 28.5649 17.7013C28.9475 18.3917 29.2463 19.1258 29.4548 19.888C30.0088 19.3195 30.4877 18.6813 30.8796 17.9893C31.2499 17.33 31.5398 16.628 31.7429 15.8987C31.5407 15.1707 31.2507 14.4704 30.8796 13.8133C30.4892 13.1188 30.0102 12.4787 29.4548 11.9093ZM23.9674 23.9253C23.9375 24.6726 23.8201 25.4137 23.6178 26.1333C23.4025 26.893 23.0966 27.6237 22.7068 28.3093C23.4999 28.3026 24.2888 28.1914 25.0532 27.9787C25.7777 27.7768 26.4749 27.4867 27.1295 27.1147C27.8861 25.7544 28.2939 24.2256 28.316 22.6667C27.6326 23.0566 26.9053 23.3628 26.1496 23.5787C25.4388 23.7823 24.706 23.8987 23.9674 23.9253ZM15.9906 27.2533C15.4477 27.7591 14.8467 28.1978 14.2004 28.56C13.515 28.9444 12.7858 29.2435 12.0287 29.4507C12.5925 30.0119 13.2284 30.4944 13.9196 30.8853C14.5715 31.2604 15.2672 31.5524 15.9906 31.7547C16.7161 31.5534 17.4136 31.2613 18.0669 30.8853C18.7581 30.4944 19.3941 30.0119 19.9578 29.4507C19.2008 29.2435 18.4716 28.9444 17.7862 28.56C17.1391 28.1964 16.5365 27.7579 15.9906 27.2533ZM14.979 26.1333C14.56 25.5838 14.2046 24.9879 13.9196 24.3573C13.6446 23.7303 13.442 23.0736 13.3158 22.4C12.7485 22.7995 12.1326 23.124 11.4832 23.3653C10.8472 23.6054 10.1862 23.7718 9.51281 23.8613C9.54667 24.6355 9.69116 25.4007 9.94184 26.1333C10.187 26.844 10.5255 27.5184 10.9482 28.1387C11.6976 27.9982 12.4246 27.756 13.1093 27.4187C13.7907 27.0831 14.4204 26.6501 14.979 26.1333ZM18.6866 22.4C18.5638 23.0867 18.3556 23.755 18.0669 24.3893C17.7819 25.0133 17.4265 25.602 17.0076 26.144C18.1355 27.1843 19.5331 27.8814 21.0384 28.1547C21.4666 27.5303 21.8087 26.8503 22.0553 26.1333C22.3001 25.4089 22.4393 24.6526 22.4685 23.888C21.7859 23.7986 21.1159 23.6304 20.4716 23.3867C19.8325 23.1318 19.2261 22.8005 18.6655 22.4H18.6866ZM8.04034 23.9253C7.29083 23.8996 6.54728 23.7813 5.82634 23.5733C5.07033 23.3585 4.34293 23.0522 3.66 22.6613C3.67525 24.2212 4.08348 25.7517 4.84645 27.1093C5.50106 27.4813 6.19832 27.7715 6.92275 27.9733C7.68722 28.1861 8.47605 28.2973 9.26917 28.304C8.88344 27.6195 8.58111 26.8907 8.36874 26.1333C8.16643 25.4137 8.0491 24.6726 8.01916 23.9253H8.04034ZM51.6107 6.4C51.2957 6.21705 50.9221 6.16541 50.5698 6.2561C50.2174 6.34678 49.9143 6.57261 49.7251 6.88533C49.5993 7.09238 49.5333 7.33062 49.5344 7.57333C49.5334 7.81435 49.5995 8.05083 49.7251 8.256C49.8463 8.45539 50.0158 8.62055 50.2177 8.736C50.4315 8.85517 50.6725 8.91585 50.9168 8.912C51.1561 8.91877 51.3929 8.86165 51.6032 8.74643C51.8134 8.63121 51.9896 8.462 52.1139 8.256C52.2419 8.05192 52.3082 7.8147 52.3046 7.57333C52.2972 7.34696 52.2315 7.12642 52.1139 6.93333C51.9937 6.71554 51.8206 6.53203 51.6107 6.4ZM47.67 13.9573C47.412 13.3529 47.0334 12.8083 46.5577 12.3573C46.0923 11.8934 45.5396 11.5275 44.9321 11.2812C44.3246 11.0348 43.6744 10.913 43.0195 10.9227C42.4578 10.9348 41.9046 11.0633 41.3943 11.3C40.884 11.5367 40.4276 11.8767 40.0534 12.2987V6.528H38.0406V15.888C38.0347 16.549 38.1571 17.2049 38.4008 17.8187C38.6431 18.4185 39.0035 18.9627 39.4602 19.4187C39.9161 19.8747 40.4558 20.2369 41.0492 20.4853C41.6657 20.734 42.3236 20.8625 42.9877 20.864C43.6462 20.8725 44.2997 20.7492 44.9104 20.5013C45.5028 20.2511 46.0422 19.889 46.4994 19.4347C46.9786 18.9803 47.358 18.4301 47.6135 17.8193C47.8689 17.2085 47.9946 16.5506 47.9825 15.888C48.0086 15.2298 47.9024 14.5731 47.67 13.9573ZM45.7473 17.1147C45.6094 17.4932 45.3968 17.8397 45.1223 18.1333C44.8539 18.4107 44.531 18.6287 44.1742 18.7733C43.4303 19.0578 42.6087 19.0578 41.8648 18.7733C41.512 18.6272 41.1928 18.4093 40.9273 18.1333C40.6543 17.8447 40.4417 17.5037 40.3023 17.1307C40.1632 16.7445 40.095 16.3361 40.1011 15.9253C40.0941 15.5093 40.1623 15.0955 40.3023 14.704C40.4395 14.3345 40.6524 13.9983 40.9273 13.7173C41.192 13.4263 41.5152 13.1954 41.8754 13.04C42.2474 12.8873 42.6444 12.8059 43.046 12.8C43.437 12.8041 43.8236 12.8838 44.1848 13.0347C44.5418 13.1904 44.8614 13.4214 45.1223 13.712C45.3987 13.9928 45.6135 14.3289 45.7526 14.6987C45.9006 15.0884 45.9743 15.5028 45.9698 15.92C45.972 16.3284 45.8983 16.7336 45.7526 17.1147H45.7473ZM49.8946 20.656H51.9073V11.1413H49.8999L49.8946 20.656ZM63.4011 13.9573C63.1431 13.3529 62.7645 12.8083 62.2888 12.3573C61.8234 11.8934 61.2707 11.5275 60.6632 11.2812C60.0557 11.0348 59.4055 10.913 58.7506 10.9227C58.0872 10.9163 57.4289 11.0394 56.812 11.2853C56.2192 11.5347 55.6796 11.8968 55.223 12.352C54.768 12.8093 54.4079 13.3532 54.1637 13.952C53.6847 15.1939 53.6847 16.5714 54.1637 17.8133C54.406 18.4132 54.7663 18.9574 55.223 19.4133C55.679 19.8693 56.2187 20.2316 56.812 20.48C57.4278 20.7313 58.0862 20.8598 58.7506 20.8587C59.4055 20.8684 60.0557 20.7465 60.6632 20.5002C61.2707 20.2538 61.8234 19.888 62.2888 19.424C62.7645 18.9731 63.1431 18.4284 63.4011 17.824C63.8952 16.5831 63.8952 15.1982 63.4011 13.9573ZM61.4784 17.1147C61.3384 17.4922 61.1261 17.8383 60.8534 18.1333C60.5875 18.4176 60.2642 18.6413 59.9053 18.7893C59.1614 19.0738 58.3398 19.0738 57.5959 18.7893C57.2467 18.6377 56.9327 18.4143 56.6743 18.1333C56.4013 17.8447 56.1887 17.5037 56.0493 17.1307C55.9127 16.7438 55.8446 16.3359 55.848 15.9253C55.8437 15.5095 55.9118 15.0961 56.0493 14.704C56.1866 14.3299 56.3994 13.9885 56.6743 13.7013C56.9394 13.4108 57.2625 13.18 57.6224 13.024C57.9939 12.8716 58.3919 12.7955 58.793 12.8C59.1845 12.7989 59.5721 12.8788 59.9318 13.0347C60.2877 13.1922 60.607 13.4229 60.8693 13.712C61.1411 13.9965 61.3552 14.3316 61.4996 14.6987C61.6476 15.0884 61.7213 15.5028 61.7167 15.92C61.7139 16.3294 61.6349 16.7346 61.4837 17.1147H61.4784Z" fill="#1890FF"/>
</svg>
