<svg width="20" height="21" viewBox="0 0 20 21" fill="none" xmlns="http://www.w3.org/2000/svg">
<path d="M15.2496 5.25843C14.9246 4.93343 14.3996 4.93343 14.0746 5.25843L9.99961 9.3251L5.92461 5.2501C5.59961 4.9251 5.07461 4.9251 4.74961 5.2501C4.42461 5.5751 4.42461 6.1001 4.74961 6.4251L8.82461 10.5001L4.74961 14.5751C4.42461 14.9001 4.42461 15.4251 4.74961 15.7501C5.07461 16.0751 5.59961 16.0751 5.92461 15.7501L9.99961 11.6751L14.0746 15.7501C14.3996 16.0751 14.9246 16.0751 15.2496 15.7501C15.5746 15.4251 15.5746 14.9001 15.2496 14.5751L11.1746 10.5001L15.2496 6.4251C15.5663 6.10843 15.5663 5.5751 15.2496 5.25843Z" fill="#4D4E4F"/>
</svg>
