<svg width="16" height="17" viewBox="0 0 16 17" fill="none" xmlns="http://www.w3.org/2000/svg">
<path d="M14.125 8.32812H13.25C13.1812 8.32812 13.125 8.38438 13.125 8.45312V13.4531H2.875V3.20312H7.875C7.94375 3.20312 8 3.14688 8 3.07812V2.20312C8 2.13437 7.94375 2.07812 7.875 2.07812H2.25C1.97344 2.07812 1.75 2.30156 1.75 2.57812V14.0781C1.75 14.3547 1.97344 14.5781 2.25 14.5781H13.75C14.0266 14.5781 14.25 14.3547 14.25 14.0781V8.45312C14.25 8.38438 14.1938 8.32812 14.125 8.32812Z" fill="#1890FF"/>
<path d="M5.56095 8.68594L5.53127 10.5437C5.5297 10.6828 5.6422 10.7969 5.78127 10.7969H5.78752L7.63127 10.7516C7.66252 10.75 7.69377 10.7375 7.71564 10.7156L14.2141 4.23125C14.2625 4.18281 14.2625 4.10313 14.2141 4.05469L12.2719 2.11406C12.2469 2.08906 12.2156 2.07812 12.1828 2.07812C12.15 2.07812 12.1188 2.09063 12.0938 2.11406L5.59689 8.59844C5.57432 8.62204 5.56149 8.65329 5.56095 8.68594ZM6.55314 9.05469L12.1828 3.4375L12.8891 4.14219L7.25627 9.7625L6.5422 9.77969L6.55314 9.05469Z" fill="#1890FF"/>
</svg>
