<svg width="16" height="17" viewBox="0 0 16 17" fill="none" xmlns="http://www.w3.org/2000/svg">
<path d="M13.7047 4.05781L12.0406 2.39531C11.8375 2.19219 11.5656 2.07812 11.2781 2.07812C10.9906 2.07812 10.7188 2.19063 10.5156 2.39531L8.72344 4.18437C8.52031 4.3875 8.40625 4.66094 8.40625 4.94844C8.40625 5.2375 8.51875 5.50781 8.72344 5.7125L10.1234 7.11406C9.80451 7.85716 9.34626 8.53234 8.77344 9.10312C8.2 9.67969 7.52969 10.1344 6.78594 10.4562L5.38594 9.05469C5.18281 8.85156 4.91094 8.7375 4.62344 8.7375C4.48163 8.73698 4.34114 8.76476 4.21021 8.81922C4.07928 8.87369 3.96054 8.95374 3.86094 9.05469L2.06719 10.8437C1.86406 11.0469 1.75 11.3203 1.75 11.6078C1.75 11.8969 1.8625 12.1672 2.06719 12.3719L3.72969 14.0344C4.07656 14.3812 4.55469 14.5797 5.04531 14.5797C5.14687 14.5797 5.24531 14.5719 5.34531 14.5547C7.41406 14.2141 9.46719 13.1125 11.125 11.4562C12.7812 9.79688 13.8813 7.74375 14.225 5.67344C14.3234 5.08594 14.1266 4.48125 13.7047 4.05781ZM13.1172 5.4875C12.8125 7.32969 11.8219 9.16719 10.3297 10.6594C8.8375 12.1516 7.00156 13.1422 5.15938 13.4469C4.92813 13.4859 4.69062 13.4078 4.52187 13.2406L2.88906 11.6078L4.62031 9.875L6.49219 11.75L6.50625 11.7641L6.84375 11.6391C7.86707 11.2628 8.79635 10.6686 9.56717 9.89747C10.338 9.12638 10.9319 8.19689 11.3078 7.17344L11.4328 6.83594L9.54531 4.95L11.2766 3.21719L12.9094 4.85C13.0781 5.01875 13.1562 5.25625 13.1172 5.4875Z" fill="#8C8C8C"/>
<path d="M6.9611 6.74544L7.38037 6.01628L6.21826 5.49219L7.38037 4.95898L6.9611 4.22526L5.91748 4.94531L6.02686 3.6875H5.19287L5.29769 4.94987L4.24951 4.22982L3.83936 4.95898L4.98779 5.49219L3.83936 6.01628L4.24951 6.75L5.3068 6.01172L5.19287 7.28776H6.0223L5.90837 6.01172L6.9611 6.74544Z" fill="#8C8C8C"/>
</svg>
