<svg width="15" height="15" viewBox="0 0 15 15" fill="none" xmlns="http://www.w3.org/2000/svg">
<path d="M13.2231 7.2332C11.927 4.50293 9.96782 3.12891 7.34145 3.12891C4.71371 3.12891 2.7559 4.50293 1.45981 7.23457C1.40782 7.34465 1.38086 7.46488 1.38086 7.58662C1.38086 7.70836 1.40782 7.82859 1.45981 7.93867C2.7559 10.6689 4.71508 12.043 7.34145 12.043C9.96918 12.043 11.927 10.6689 13.2231 7.9373C13.3284 7.71582 13.3284 7.45879 13.2231 7.2332ZM7.34145 11.0586C5.13618 11.0586 3.52153 9.94023 2.38266 7.58594C3.52153 5.23164 5.13618 4.11328 7.34145 4.11328C9.54672 4.11328 11.1614 5.23164 12.3002 7.58594C11.1627 9.94023 9.54809 11.0586 7.34145 11.0586ZM7.28676 5.17969C5.95786 5.17969 4.88051 6.25703 4.88051 7.58594C4.88051 8.91484 5.95786 9.99219 7.28676 9.99219C8.61567 9.99219 9.69301 8.91484 9.69301 7.58594C9.69301 6.25703 8.61567 5.17969 7.28676 5.17969ZM7.28676 9.11719C6.44047 9.11719 5.75551 8.43223 5.75551 7.58594C5.75551 6.73965 6.44047 6.05469 7.28676 6.05469C8.13305 6.05469 8.81801 6.73965 8.81801 7.58594C8.81801 8.43223 8.13305 9.11719 7.28676 9.11719Z" fill="white"/>
</svg>
