<svg width="17" height="17" viewBox="0 0 17 17" fill="none" xmlns="http://www.w3.org/2000/svg">
<path fill-rule="evenodd" clip-rule="evenodd" d="M3.66699 2.65885C3.66699 2.29066 3.96547 1.99219 4.33366 1.99219H5.33366C5.88594 1.99219 6.33366 2.4399 6.33366 2.99219V3.32552C6.33366 3.87781 5.88594 4.32552 5.33366 4.32552H5.00033V6.05217C5.00033 7.52492 6.19423 8.71883 7.66699 8.71883H8.87911C10.3519 8.71883 11.5458 7.52492 11.5458 6.05217V4.32552H11.3337C10.7814 4.32552 10.3337 3.87781 10.3337 3.32552V2.99219C10.3337 2.4399 10.7814 1.99219 11.3337 1.99219H12.2124C12.5806 1.99219 12.8791 2.29066 12.8791 2.65885V6.05217C12.8791 8.24107 11.1209 10.0193 8.93972 10.0517V12.9922C8.93972 13.3604 9.2382 13.6589 9.60639 13.6589H11.667C12.0352 13.6589 12.3337 13.3604 12.3337 12.9922V11.3359C12.3337 10.9677 12.6321 10.6692 13.0003 10.6692C13.3685 10.6692 13.667 10.9677 13.667 11.3359V12.9922C13.667 14.0968 12.7716 14.9922 11.667 14.9922H9.60639C8.50182 14.9922 7.60639 14.0968 7.60639 12.9922V10.0517C5.42519 10.0193 3.66699 8.24107 3.66699 6.05217V2.65885Z" fill="#8C8C8C"/>
</svg>
