<svg width="25" height="24" viewBox="0 0 25 24" fill="none" xmlns="http://www.w3.org/2000/svg">
<path d="M21.5 14.2001V8.91008C21.5 8.02008 20.42 7.57008 19.79 8.20008L17.5 10.5001V7.00008C17.5 6.45008 17.05 6.00008 16.5 6.00008H10.89L19.8 14.9101C20.42 15.5401 21.5 15.0901 21.5 14.2001ZM3.20998 2.56008C2.81998 2.95008 2.81998 3.58008 3.20998 3.97008L5.22998 6.00008H4.49998C3.94998 6.00008 3.49998 6.45008 3.49998 7.00008V17.0001C3.49998 17.5501 3.94998 18.0001 4.49998 18.0001H16.5C16.71 18.0001 16.89 17.9201 17.05 17.8201L19.53 20.3001C19.92 20.6901 20.55 20.6901 20.94 20.3001C21.33 19.9101 21.33 19.2801 20.94 18.8901L4.61998 2.56008C4.22998 2.17008 3.59998 2.17008 3.20998 2.56008Z" fill="#A4A6A8"/>
</svg>
