<svg width="25" height="24" viewBox="0 0 25 24" fill="none" xmlns="http://www.w3.org/2000/svg">
<path d="M15.5 10.6V5C15.5 3.34 14.16 2 12.5 2C10.96 2 9.70998 3.16 9.53998 4.65L15.5 10.6ZM18.58 11C18.17 11 17.81 11.3 17.75 11.71C17.7 12.03 17.63 12.35 17.53 12.64L18.8 13.91C19.1 13.31 19.32 12.66 19.43 11.97C19.5 11.46 19.1 11 18.58 11ZM4.20998 3.56C3.81998 3.95 3.81998 4.58 4.20998 4.97L9.49998 10.27V10.7C9.49998 11.89 10.1 13.02 11.13 13.61C11.88 14.04 12.54 14.05 13.15 13.92L14.81 15.58C14.1 15.91 13.31 16.1 12.5 16.1C9.95998 16.1 7.61998 14.33 7.24998 11.71C7.18998 11.3 6.82998 11 6.41998 11C5.89998 11 5.49998 11.46 5.56998 11.97C6.02998 14.93 8.52998 17.27 11.5 17.72V20C11.5 20.55 11.95 21 12.5 21C13.05 21 13.5 20.55 13.5 20V17.72C14.41 17.59 15.27 17.27 16.05 16.82L19.54 20.31C19.93 20.7 20.56 20.7 20.95 20.31C21.34 19.92 21.34 19.29 20.95 18.9L5.61998 3.56C5.22998 3.17 4.59998 3.17 4.20998 3.56Z" fill="#A4A6A8"/>
</svg>
