<svg width="180" height="181" viewBox="0 0 180 181" fill="none" xmlns="http://www.w3.org/2000/svg">
<path d="M145.985 25.6914H34.0148C30.3736 25.6914 27.4218 28.6349 27.4218 32.2659V143.922C27.4218 147.553 30.3736 150.496 34.0148 150.496H145.985C149.626 150.496 152.578 147.553 152.578 143.922V32.2659C152.578 28.6349 149.626 25.6914 145.985 25.6914Z" fill="#597EF7"/>
<rect x="11.9374" y="34.584" width="127.056" height="31.105" rx="10" fill="#D6E4FF"/>
<rect x="53.5863" y="41.7012" width="27.4841" height="5.27197" rx="2.63598" fill="#597EF7"/>
<rect x="53.5863" y="53.2988" width="43.4942" height="5.27197" rx="2.63599" fill="#ADC6FF"/>
<ellipse cx="38.2972" cy="50.1362" rx="8.69869" ry="8.69869" fill="#597EF7"/>
<path fill-rule="evenodd" clip-rule="evenodd" d="M43.3121 55.371C42.9675 52.8943 40.8611 49.9704 38.3067 49.9704C35.7097 49.9704 33.5723 52.8339 33.2823 55.371C35.3316 55.371 40.6785 55.371 43.3121 55.371Z" fill="white"/>
<path fill-rule="evenodd" clip-rule="evenodd" d="M41.2731 47.8762C41.2731 49.5198 39.9408 50.8521 38.2974 50.8521C36.6537 50.8521 35.3214 49.5198 35.3214 47.8762C35.3214 46.2326 36.6537 44.9004 38.2974 44.9004C39.9408 44.9004 41.2731 46.2326 41.2731 47.8762Z" fill="white"/>
<rect width="127.056" height="31.105" rx="10" transform="matrix(-1 0 0 1 168.194 72.543)" fill="#F0F5FF"/>
<rect width="27.4841" height="5.27197" rx="2.63599" transform="matrix(-1 0 0 1 126.545 79.6602)" fill="#85A5FF"/>
<rect width="43.4942" height="5.27197" rx="2.63599" transform="matrix(-1 0 0 1 126.545 91.2578)" fill="#D6E4FF"/>
<circle r="8.69869" transform="matrix(-1 0 0 1 141.834 88.0952)" fill="#85A5FF"/>
<path fill-rule="evenodd" clip-rule="evenodd" d="M146.849 93.33C146.504 90.8532 144.398 87.9294 141.844 87.9294C139.247 87.9294 137.109 90.7929 136.819 93.33C138.869 93.33 144.215 93.33 146.849 93.33Z" fill="white"/>
<path fill-rule="evenodd" clip-rule="evenodd" d="M144.81 85.8352C144.81 87.4788 143.478 88.8111 141.834 88.8111C140.191 88.8111 138.858 87.4788 138.858 85.8352C138.858 84.1916 140.191 82.8594 141.834 82.8594C143.478 82.8594 144.81 84.1916 144.81 85.8352Z" fill="white"/>
<rect x="17.4309" y="110.502" width="127.056" height="31.105" rx="10" fill="#D6E4FF"/>
<rect x="59.0797" y="117.619" width="27.4841" height="5.27197" rx="2.63599" fill="#597EF7"/>
<rect x="59.0797" y="129.217" width="43.4942" height="5.27197" rx="2.63599" fill="#ADC6FF"/>
<circle cx="43.7907" cy="126.054" r="8.69869" fill="#597EF7"/>
<path fill-rule="evenodd" clip-rule="evenodd" d="M48.8057 131.289C48.461 128.812 46.3546 125.888 43.8002 125.888C41.2032 125.888 39.0659 128.752 38.7759 131.289C40.8251 131.289 46.172 131.289 48.8057 131.289Z" fill="white"/>
<path fill-rule="evenodd" clip-rule="evenodd" d="M46.7666 123.794C46.7666 125.438 45.4343 126.77 43.7909 126.77C42.1472 126.77 40.8149 125.438 40.8149 123.794C40.8149 122.151 42.1472 120.818 43.7909 120.818C45.4343 120.818 46.7666 122.151 46.7666 123.794Z" fill="white"/>
</svg>
