<svg width="180" height="181" viewBox="0 0 180 181" fill="none" xmlns="http://www.w3.org/2000/svg">
<path fill-rule="evenodd" clip-rule="evenodd" d="M148.837 118.728C155.299 109.335 159 98.1956 158.905 86.2748C158.64 53.1186 129.103 26.4754 92.9317 26.764C56.7605 27.0533 27.6532 54.1667 27.9181 87.3229C28.1829 120.478 57.7202 147.122 93.8909 146.834C106.814 146.73 118.835 143.201 128.938 137.196L155.962 143.559L148.837 118.728Z" fill="#597EF7"/>
<path fill-rule="evenodd" clip-rule="evenodd" d="M74.3082 85.3796C74.3382 89.147 71.3081 92.2259 67.5407 92.2559C63.772 92.2865 60.6932 89.2559 60.6638 85.4884C60.6338 81.7204 63.6632 78.6422 67.4313 78.6115C71.1987 78.5815 74.2775 81.6116 74.3082 85.3796Z" fill="#F0F5FF"/>
<path fill-rule="evenodd" clip-rule="evenodd" d="M98.8689 85.379C98.899 89.147 95.8689 92.2259 92.1009 92.2559C88.3328 92.2859 85.254 89.2559 85.2246 85.4884C85.194 81.7204 88.224 78.6416 91.9921 78.6115C95.7595 78.5815 98.8383 81.6116 98.8689 85.379Z" fill="#F0F5FF"/>
<path fill-rule="evenodd" clip-rule="evenodd" d="M123.43 85.379C123.46 89.1464 120.43 92.2253 116.662 92.2559C112.894 92.2859 109.815 89.2559 109.785 85.4878C109.755 81.7198 112.785 78.6416 116.553 78.6116C120.32 78.5809 123.399 81.6116 123.43 85.379Z" fill="#F0F5FF"/>
<path fill-rule="evenodd" clip-rule="evenodd" d="M21.0938 128.174C21.0938 133.503 22.798 138.464 25.7269 142.64L22.6184 153.781L34.7216 150.836C39.2718 153.483 44.6677 155.023 50.4603 155.023C66.6794 155.023 79.8269 143.002 79.8269 128.174C79.8269 113.345 66.6794 101.324 50.4603 101.324C34.2412 101.324 21.0938 113.345 21.0938 128.174Z" fill="#D6E4FF"/>
<path fill-rule="evenodd" clip-rule="evenodd" d="M58.0116 128.175C58.0116 130.028 59.5133 131.531 61.3674 131.531C63.2206 131.531 64.724 130.028 64.724 128.175C64.724 126.322 63.2206 124.818 61.3674 124.818C59.5133 124.818 58.0116 126.322 58.0116 128.175Z" fill="#85A5FF"/>
<path fill-rule="evenodd" clip-rule="evenodd" d="M47.3945 128.175C47.3945 130.028 48.8969 131.531 50.7507 131.531C52.6037 131.531 54.1069 130.028 54.1069 128.175C54.1069 126.322 52.6037 124.818 50.7507 124.818C48.8969 124.818 47.3945 126.322 47.3945 128.175Z" fill="#85A5FF"/>
<path fill-rule="evenodd" clip-rule="evenodd" d="M36.1965 128.175C36.1965 130.028 37.6989 131.531 39.5527 131.531C41.4057 131.531 42.9089 130.028 42.9089 128.175C42.9089 126.322 41.4057 124.818 39.5527 124.818C37.6989 124.818 36.1965 126.322 36.1965 128.175Z" fill="#85A5FF"/>
</svg>
