<svg width="180" height="180" viewBox="0 0 180 180" fill="none" xmlns="http://www.w3.org/2000/svg">
<ellipse cx="89.2969" cy="89.6861" rx="67.7906" ry="67.7906" fill="#FFCCC7"/>
<rect x="11.9375" y="33.6904" width="127.056" height="31.105" rx="10" fill="#D6E4FF"/>
<rect x="53.5864" y="40.8076" width="27.4841" height="5.27197" rx="2.63598" fill="#597EF7"/>
<rect x="53.5864" y="52.4062" width="43.4942" height="5.27197" rx="2.63599" fill="#ADC6FF"/>
<ellipse cx="38.2973" cy="49.2429" rx="8.69869" ry="8.69869" fill="#597EF7"/>
<path fill-rule="evenodd" clip-rule="evenodd" d="M43.3125 54.4782C42.9679 52.0014 40.8614 49.0776 38.307 49.0776C35.71 49.0776 33.5727 51.9411 33.2827 54.4782C35.332 54.4782 40.6788 54.4782 43.3125 54.4782Z" fill="white"/>
<path fill-rule="evenodd" clip-rule="evenodd" d="M41.2735 46.9834C41.2735 48.627 39.9412 49.9593 38.2978 49.9593C36.6541 49.9593 35.3217 48.627 35.3217 46.9834C35.3217 45.3398 36.6541 44.0076 38.2978 44.0076C39.9412 44.0076 41.2735 45.3398 41.2735 46.9834Z" fill="white"/>
<rect width="127.056" height="31.105" rx="10" transform="matrix(-1 0 0 1 168.194 71.6489)" fill="#F0F5FF"/>
<rect width="27.4841" height="5.27197" rx="2.63599" transform="matrix(-1 0 0 1 126.545 78.7661)" fill="#85A5FF"/>
<rect width="43.4942" height="5.27197" rx="2.63599" transform="matrix(-1 0 0 1 126.545 90.3647)" fill="#D6E4FF"/>
<circle r="8.69869" transform="matrix(-1 0 0 1 141.835 87.2014)" fill="#85A5FF"/>
<path fill-rule="evenodd" clip-rule="evenodd" d="M146.849 92.4367C146.504 89.9599 144.398 87.0361 141.844 87.0361C139.247 87.0361 137.109 89.8996 136.819 92.4367C138.869 92.4367 144.215 92.4367 146.849 92.4367Z" fill="white"/>
<path fill-rule="evenodd" clip-rule="evenodd" d="M144.81 84.9419C144.81 86.5855 143.478 87.9178 141.834 87.9178C140.191 87.9178 138.858 86.5855 138.858 84.9419C138.858 83.2983 140.191 81.9661 141.834 81.9661C143.478 81.9661 144.81 83.2983 144.81 84.9419Z" fill="white"/>
<rect x="17.4312" y="109.607" width="127.056" height="31.105" rx="10" fill="#D6E4FF"/>
<rect x="59.0801" y="116.725" width="27.4841" height="5.27197" rx="2.63599" fill="#597EF7"/>
<rect x="59.0801" y="128.323" width="43.4942" height="5.27197" rx="2.63599" fill="#ADC6FF"/>
<circle cx="43.791" cy="125.16" r="8.69869" fill="#597EF7"/>
<path fill-rule="evenodd" clip-rule="evenodd" d="M48.8062 130.395C48.4615 127.918 46.3551 124.995 43.8007 124.995C41.2037 124.995 39.0664 127.858 38.7764 130.395C40.8256 130.395 46.1725 130.395 48.8062 130.395Z" fill="white"/>
<path fill-rule="evenodd" clip-rule="evenodd" d="M46.7671 122.9C46.7671 124.544 45.4348 125.876 43.7914 125.876C42.1477 125.876 40.8154 124.544 40.8154 122.9C40.8154 121.257 42.1477 119.925 43.7914 119.925C45.4348 119.925 46.7671 121.257 46.7671 122.9Z" fill="white"/>
<path d="M89.2969 19.8755C50.9602 19.8755 19.8755 50.9602 19.8755 89.2969C19.8755 127.634 50.9602 158.718 89.2969 158.718C127.634 158.718 158.718 127.634 158.718 89.2969C158.718 50.9602 127.634 19.8755 89.2969 19.8755ZM89.2969 146.941C57.4684 146.941 31.6523 121.125 31.6523 89.2969C31.6523 75.5056 36.5025 62.83 44.5914 52.9126L125.681 134.002C115.764 142.091 103.088 146.941 89.2969 146.941ZM134.002 125.681L52.9126 44.5914C62.83 36.5025 75.5056 31.6523 89.2969 31.6523C121.125 31.6523 146.941 57.4684 146.941 89.2969C146.941 103.088 142.091 115.764 134.002 125.681Z" fill="#FF7875"/>
<mask id="mask0_23042_315849" style="mask-type:alpha" maskUnits="userSpaceOnUse" x="8" y="30" width="79" height="39">
<rect x="8.52979" y="30.7476" width="78.034" height="37.2791" fill="#D9D9D9"/>
</mask>
<g mask="url(#mask0_23042_315849)">
<rect x="11.9375" y="33.6904" width="127.056" height="31.105" rx="10" fill="#D6E4FF"/>
<rect x="53.5864" y="40.8076" width="27.4841" height="5.27197" rx="2.63598" fill="#597EF7"/>
<rect x="53.5864" y="52.4062" width="43.4942" height="5.27197" rx="2.63599" fill="#ADC6FF"/>
<ellipse cx="38.2973" cy="49.2429" rx="8.69869" ry="8.69869" fill="#597EF7"/>
<path fill-rule="evenodd" clip-rule="evenodd" d="M43.3125 54.4782C42.9679 52.0014 40.8614 49.0776 38.3071 49.0776C35.71 49.0776 33.5727 51.9411 33.2827 54.4782C35.332 54.4782 40.6788 54.4782 43.3125 54.4782Z" fill="white"/>
<path fill-rule="evenodd" clip-rule="evenodd" d="M41.2735 46.9834C41.2735 48.627 39.9412 49.9593 38.2978 49.9593C36.6541 49.9593 35.3217 48.627 35.3217 46.9834C35.3217 45.3398 36.6541 44.0076 38.2978 44.0076C39.9412 44.0076 41.2735 45.3398 41.2735 46.9834Z" fill="white"/>
</g>
<mask id="mask1_23042_315849" style="mask-type:alpha" maskUnits="userSpaceOnUse" x="122" y="68" width="52" height="39">
<rect x="122.586" y="68.0266" width="51.0369" height="38.6105" fill="#D9D9D9"/>
</mask>
<g mask="url(#mask1_23042_315849)">
<rect width="127.056" height="31.105" rx="10" transform="matrix(-1 0 0 1 168.194 71.6489)" fill="#F0F5FF"/>
<rect width="27.4841" height="5.27197" rx="2.63599" transform="matrix(-1 0 0 1 126.545 78.7661)" fill="#85A5FF"/>
<rect width="43.4942" height="5.27197" rx="2.63598" transform="matrix(-1 0 0 1 126.545 90.3647)" fill="#D6E4FF"/>
<circle r="8.69869" transform="matrix(-1 0 0 1 141.835 87.2014)" fill="#85A5FF"/>
<path fill-rule="evenodd" clip-rule="evenodd" d="M146.849 92.4367C146.504 89.9599 144.398 87.0361 141.844 87.0361C139.247 87.0361 137.109 89.8996 136.819 92.4367C138.869 92.4367 144.215 92.4367 146.849 92.4367Z" fill="white"/>
<path fill-rule="evenodd" clip-rule="evenodd" d="M144.81 84.9419C144.81 86.5855 143.478 87.9178 141.834 87.9178C140.191 87.9178 138.858 86.5855 138.858 84.9419C138.858 83.2983 140.191 81.9661 141.834 81.9661C143.478 81.9661 144.81 83.2983 144.81 84.9419Z" fill="white"/>
</g>
<mask id="mask2_23042_315849" style="mask-type:alpha" maskUnits="userSpaceOnUse" x="4" y="104" width="69" height="42">
<rect x="4.97949" y="104.418" width="67.8423" height="40.8295" fill="#D9D9D9"/>
</mask>
<g mask="url(#mask2_23042_315849)">
<rect x="17.4312" y="109.607" width="127.056" height="31.105" rx="10" fill="#D6E4FF"/>
<rect x="59.0801" y="116.725" width="27.4841" height="5.27197" rx="2.63599" fill="#597EF7"/>
<rect x="59.0801" y="128.323" width="43.4942" height="5.27197" rx="2.63599" fill="#ADC6FF"/>
<ellipse cx="43.791" cy="125.16" rx="8.69869" ry="8.69869" fill="#597EF7"/>
<path fill-rule="evenodd" clip-rule="evenodd" d="M48.8062 130.395C48.4615 127.918 46.3551 124.995 43.8007 124.995C41.2037 124.995 39.0664 127.858 38.7764 130.395C40.8256 130.395 46.1725 130.395 48.8062 130.395Z" fill="white"/>
<path fill-rule="evenodd" clip-rule="evenodd" d="M46.7671 122.9C46.7671 124.544 45.4348 125.876 43.7914 125.876C42.1477 125.876 40.8154 124.544 40.8154 122.9C40.8154 121.257 42.1477 119.925 43.7914 119.925C45.4348 119.925 46.7671 121.257 46.7671 122.9Z" fill="white"/>
</g>
</svg>
