<svg width="13" height="13" viewBox="0 0 13 13" fill="none" xmlns="http://www.w3.org/2000/svg">
<path d="M3.76555 10.3107H4.60617C4.6718 10.3107 4.72648 10.3654 4.72648 10.4311V11.8754H10.9313V2.03477H4.72492V3.49327C4.72492 3.55889 4.67023 3.61358 4.60461 3.61358H3.76398C3.69836 3.61358 3.64367 3.56046 3.64367 3.49327V1.43477C3.64367 1.16914 3.85773 0.955078 4.12336 0.955078H11.5313C11.7969 0.955078 12.011 1.16914 12.011 1.43477V12.4754C12.011 12.741 11.7969 12.9551 11.5313 12.9551H4.12492C3.8593 12.9551 3.64523 12.741 3.64523 12.4754V10.4311C3.64523 10.3639 3.69992 10.3107 3.76555 10.3107ZM0.703328 6.85664L2.92053 5.10664C3.00334 5.04102 3.12365 5.10039 3.12365 5.20508V6.39258H8.0299C8.09865 6.39258 8.1549 6.44883 8.1549 6.51758V7.39258C8.1549 7.46133 8.09865 7.51758 8.0299 7.51758H3.12365V8.70508C3.12365 8.80977 3.00178 8.86914 2.92053 8.80352L0.703328 7.05352C0.688388 7.04182 0.676306 7.02688 0.667996 7.00983C0.659686 6.99277 0.655368 6.97405 0.655368 6.95508C0.655368 6.93611 0.659686 6.91738 0.667996 6.90033C0.676306 6.88327 0.688388 6.86833 0.703328 6.85664Z" fill="#595959"/>
</svg>
