<svg width="300" height="92" viewBox="0 0 300 92" fill="none" xmlns="http://www.w3.org/2000/svg">
<path d="M184.125 75.1368L182.918 76.0875C182.696 75.7156 182.383 75.4065 182.008 75.1893C181.634 74.972 181.211 74.8537 180.779 74.8455C180.119 74.8961 179.502 75.1952 179.052 75.6827C178.601 76.1703 178.351 76.8105 178.351 77.4752C178.351 78.1398 178.601 78.78 179.052 79.2676C179.502 79.7552 180.119 80.0542 180.779 80.1048C181.208 80.0984 181.629 79.9842 182.002 79.7726C182.376 79.561 182.691 79.2587 182.918 78.8935L184.125 79.8288C183.778 80.4106 183.285 80.8909 182.695 81.2218C182.105 81.5527 181.439 81.7227 180.764 81.7148C179.645 81.7148 178.573 81.269 177.782 80.4753C176.991 79.6817 176.547 78.6052 176.547 77.4828C176.547 76.3604 176.991 75.284 177.782 74.4904C178.573 73.6967 179.645 73.2508 180.764 73.2508C181.441 73.2366 182.109 73.4039 182.7 73.7355C183.291 74.067 183.783 74.5508 184.125 75.1368Z" fill="#1890FF"/>
<path d="M192.345 76.6669V81.5735H190.817V80.6535C190.501 81.0158 190.107 81.3018 189.666 81.4903C189.224 81.6787 188.745 81.7649 188.266 81.7422C186.6 81.7422 185.485 80.7915 185.485 79.3962C185.485 78.0009 186.646 77.0809 188.434 77.0809H190.695V76.5595C190.728 76.3257 190.706 76.0875 190.632 75.8634C190.558 75.6394 190.433 75.4356 190.267 75.2679C190.102 75.1002 189.9 74.9731 189.677 74.8966C189.454 74.8201 189.217 74.7963 188.984 74.8269C188.545 74.838 188.116 74.9536 187.731 75.1642C187.345 75.3748 187.016 75.6744 186.769 76.0382L185.775 75.0109C186.145 74.4616 186.647 74.0149 187.235 73.7121C187.822 73.4092 188.476 73.26 189.137 73.2782C189.579 73.2534 190.022 73.3255 190.434 73.4895C190.845 73.6534 191.217 73.9053 191.522 74.2277C191.827 74.55 192.059 74.9352 192.201 75.3563C192.343 75.7775 192.393 76.2247 192.345 76.6669ZM190.634 78.5069V78.3535H188.571C187.67 78.3535 187.166 78.6909 187.166 79.3502C187.166 80.0095 187.777 80.4235 188.571 80.4235C188.834 80.4359 189.096 80.3953 189.343 80.3044C189.59 80.2134 189.816 80.0737 190.008 79.8937C190.201 79.7137 190.355 79.4969 190.462 79.2561C190.57 79.0153 190.628 78.7553 190.634 78.4915V78.5069Z" fill="#1890FF"/>
<path d="M199.297 73.4622V74.9955H198.777C198.472 74.9667 198.165 75.0038 197.875 75.1046C197.586 75.2054 197.321 75.3674 197.1 75.5797C196.878 75.7919 196.704 76.0495 196.591 76.335C196.477 76.6204 196.425 76.9271 196.44 77.2342V81.5582H194.729V73.4622H196.256V74.5202C196.526 74.1585 196.877 73.8658 197.28 73.666C197.684 73.4661 198.129 73.3648 198.579 73.3702C198.822 73.3568 199.065 73.388 199.297 73.4622Z" fill="#1890FF"/>
<path d="M208.449 69.1875V81.5615H206.921V80.4115C206.597 80.8434 206.173 81.1903 205.686 81.4225C205.2 81.6548 204.664 81.7656 204.125 81.7455C203.069 81.6552 202.085 81.1702 201.368 80.3865C200.65 79.6028 200.252 78.5775 200.252 77.5135C200.252 76.4495 200.65 75.4242 201.368 74.6405C202.085 73.8568 203.069 73.3718 204.125 73.2815C204.627 73.2642 205.126 73.3599 205.586 73.5615C206.046 73.7632 206.456 74.0657 206.784 74.4468V69.1875H208.449ZM206.753 77.5135C206.788 77.1774 206.751 76.8378 206.646 76.5168C206.541 76.1957 206.37 75.9005 206.143 75.6503C205.917 75.4001 205.641 75.2005 205.333 75.0645C205.025 74.9285 204.691 74.8591 204.355 74.8608C203.654 74.8608 202.981 75.1403 202.486 75.6378C201.99 76.1353 201.711 76.81 201.711 77.5135C201.711 78.217 201.99 78.8917 202.486 79.3892C202.981 79.8867 203.654 80.1662 204.355 80.1662C204.692 80.1704 205.026 80.1026 205.336 79.9674C205.645 79.8322 205.922 79.6326 206.149 79.3818C206.376 79.1311 206.547 78.8349 206.651 78.5128C206.755 78.1907 206.79 77.8501 206.753 77.5135Z" fill="#1890FF"/>
<path d="M212.956 70.447C212.954 70.5993 212.922 70.7497 212.862 70.8895C212.801 71.0293 212.714 71.1557 212.605 71.2612C212.495 71.3668 212.366 71.4495 212.224 71.5045C212.083 71.5595 211.932 71.5857 211.78 71.5816C211.629 71.5857 211.478 71.5594 211.338 71.5042C211.197 71.4491 211.069 71.3661 210.961 71.2604C210.852 71.1546 210.766 71.0281 210.708 70.8884C210.649 70.7487 210.619 70.5986 210.619 70.447C210.619 70.2947 210.649 70.1439 210.707 70.0033C210.766 69.8628 210.852 69.7353 210.96 69.6283C211.068 69.5213 211.196 69.437 211.337 69.3801C211.477 69.3232 211.628 69.2949 211.78 69.297C211.932 69.295 212.084 69.3231 212.225 69.3798C212.367 69.4365 212.496 69.5206 212.605 69.6274C212.715 69.7342 212.802 69.8616 212.862 70.0022C212.922 70.1428 212.954 70.2939 212.956 70.447ZM212.635 81.5637H210.924V73.4676H212.635V81.5637Z" fill="#1890FF"/>
<path d="M221.436 76.666V81.5727H219.908V80.6527C219.592 81.015 219.198 81.301 218.757 81.4895C218.315 81.6779 217.836 81.764 217.357 81.7414C215.692 81.7414 214.576 80.7907 214.576 79.3954C214.576 78 215.737 77.08 217.525 77.08H219.786V76.5587C219.819 76.3249 219.797 76.0866 219.723 75.8626C219.649 75.6385 219.524 75.4347 219.358 75.267C219.193 75.0993 218.991 74.9723 218.768 74.8958C218.545 74.8193 218.308 74.7954 218.075 74.826C217.636 74.8371 217.207 74.9528 216.822 75.1634C216.436 75.374 216.107 75.6736 215.86 76.0374L214.866 75.01C215.239 74.4596 215.743 74.0123 216.334 73.7094C216.924 73.4066 217.58 73.258 218.243 73.2774C218.684 73.2549 219.125 73.3287 219.535 73.4937C219.945 73.6587 220.315 73.9109 220.618 74.233C220.922 74.5551 221.152 74.9394 221.293 75.3594C221.434 75.7795 221.483 76.2252 221.436 76.666ZM219.725 78.506V78.3527H217.663C216.761 78.3527 216.257 78.69 216.257 79.3494C216.257 80.0087 216.868 80.4227 217.663 80.4227C217.925 80.435 218.188 80.3945 218.434 80.3035C218.681 80.2125 218.907 80.0729 219.099 79.8929C219.292 79.7129 219.446 79.4961 219.553 79.2553C219.661 79.0144 219.719 78.7545 219.725 78.4907V78.506Z" fill="#1890FF"/>
<path d="M230.909 75.1372L229.702 76.0878C229.479 75.7159 229.166 75.4069 228.792 75.1896C228.418 74.9724 227.995 74.8541 227.563 74.8458C226.903 74.8965 226.286 75.1955 225.835 75.6831C225.385 76.1707 225.135 76.8108 225.135 77.4755C225.135 78.1402 225.385 78.7804 225.835 79.2679C226.286 79.7555 226.903 80.0545 227.563 80.1052C227.992 80.0988 228.413 79.9845 228.786 79.7729C229.16 79.5613 229.475 79.2591 229.702 78.8938L230.909 79.8292C230.559 80.4122 230.064 80.8931 229.471 81.224C228.879 81.5549 228.21 81.7242 227.532 81.7152C226.414 81.7152 225.341 81.2693 224.551 80.4757C223.76 79.682 223.315 78.6056 223.315 77.4832C223.315 76.3608 223.76 75.2844 224.551 74.4907C225.341 73.697 226.414 73.2512 227.532 73.2512C228.212 73.2342 228.883 73.4002 229.477 73.7319C230.071 74.0636 230.565 74.5488 230.909 75.1372Z" fill="#1890FF"/>
<path d="M215.34 37.7837L211.23 41.019C210.464 39.7518 209.389 38.7021 208.105 37.9695C206.822 37.2368 205.373 36.8456 203.896 36.833C202.747 36.8237 201.608 37.0488 200.549 37.4947C199.489 37.9405 198.531 38.5978 197.732 39.4266C196.934 40.2555 196.311 41.2385 195.902 42.3162C195.494 43.3939 195.308 44.5436 195.355 45.6957C195.297 46.8526 195.475 48.0092 195.879 49.0943C196.283 50.1794 196.905 51.1699 197.705 52.0046C198.505 52.8394 199.467 53.5007 200.532 53.9478C201.597 54.395 202.742 54.6184 203.896 54.6043C205.365 54.5896 206.807 54.2041 208.089 53.4832C209.37 52.7624 210.451 51.7295 211.23 50.4797L215.34 53.669C214.144 55.6422 212.454 57.2667 210.439 58.3804C208.423 59.4942 206.151 60.0585 203.85 60.017C201.94 60.0798 200.037 59.7564 198.253 59.0661C196.47 58.3758 194.844 57.3327 193.47 55.9988C192.097 54.6648 191.005 53.0674 190.259 51.3013C189.513 49.5353 189.129 47.6368 189.129 45.7187C189.129 43.8006 189.513 41.902 190.259 40.136C191.005 38.37 192.097 36.7725 193.47 35.4386C194.844 34.1046 196.47 33.0615 198.253 32.3712C200.037 31.6809 201.94 31.3575 203.85 31.4203C206.155 31.3664 208.433 31.9269 210.451 33.0448C212.47 34.1627 214.157 35.7979 215.34 37.7837ZM232.712 31.4203C230.462 31.3559 228.231 31.8581 226.224 32.8813C224.217 33.9045 222.498 35.4159 221.222 37.2777L224.599 40.7277C226.753 38.167 228.984 36.6643 232.147 36.6643C232.934 36.5767 233.732 36.668 234.48 36.9314C235.227 37.1948 235.907 37.6235 236.467 38.186C237.027 38.7484 237.455 39.43 237.717 40.1805C237.98 40.931 238.07 41.7311 237.983 42.5217V44.3003H230.252C224.141 44.3003 220.199 47.367 220.199 52.105C220.199 56.843 223.988 60.017 229.702 60.017C231.338 60.0982 232.971 59.8097 234.481 59.1727C235.991 58.5358 237.339 57.5667 238.426 56.337V59.4037H243.866V42.8437C243.881 35.269 239.267 31.4203 232.712 31.4203ZM238.35 49.2837C238.317 50.176 238.107 51.0527 237.733 51.8629C237.359 52.673 236.828 53.4003 236.171 54.0025C235.514 54.6047 234.744 55.0698 233.906 55.3705C233.069 55.6713 232.18 55.8017 231.291 55.7543C228.633 55.7543 226.524 54.5277 226.524 52.1357C226.524 49.7437 228.235 48.7777 231.352 48.7777H238.35V49.2837ZM268.067 32.0337V37.2163H266.295C261.971 37.2163 258.304 39.731 258.304 44.8063V59.4037H252.468V32.0337H257.907V35.6063C258.84 34.3876 260.045 33.4049 261.425 32.7367C262.804 32.0684 264.32 31.7332 265.852 31.7577C266.584 31.7487 267.314 31.8415 268.021 32.0337H268.067ZM298.167 43.963C298.205 42.2963 297.904 40.6392 297.283 39.093C296.661 37.5469 295.733 36.144 294.553 34.9702C293.373 33.7964 291.967 32.8762 290.422 32.2658C288.876 31.6555 287.222 31.3678 285.562 31.4203C283.658 31.4067 281.771 31.7758 280.011 32.506C278.252 33.2362 276.657 34.3126 275.319 35.6718C273.981 37.0309 272.928 38.6452 272.221 40.4194C271.515 42.1937 271.17 44.0919 271.207 46.0021C271.244 47.9122 271.661 49.7957 272.435 51.5412C273.209 53.2868 274.324 54.8591 275.713 56.1654C277.102 57.4717 278.738 58.4856 280.524 59.1471C282.31 59.8086 284.21 60.1044 286.112 60.017C290.176 60.0334 294.086 58.454 297.005 55.6163L294.225 51.599C292.086 53.6578 289.243 54.8157 286.28 54.8343C284.168 54.9837 282.079 54.325 280.432 52.9907C278.785 51.6565 277.703 49.7458 277.403 47.643H297.723C297.988 46.4343 298.121 45.2004 298.121 43.963H298.167ZM277.815 43.319C278.12 41.4529 279.075 39.7561 280.511 38.5315C281.946 37.3069 283.769 36.6343 285.653 36.6337C286.558 36.5789 287.464 36.7117 288.316 37.0238C289.167 37.336 289.945 37.8207 290.602 38.4479C291.258 39.0752 291.779 39.8314 292.132 40.6694C292.484 41.5075 292.661 42.4094 292.651 43.319H277.815ZM27.502 37.9677C25.5582 38.3154 23.6646 38.9025 21.8641 39.7157C20.0582 40.5418 18.3513 41.5706 16.7762 42.7823C15.2896 41.1669 14.0442 39.3437 13.0787 37.3697C12.1007 35.391 11.4014 33.2855 11.0008 31.1137C14.6316 28.5878 18.9017 27.147 23.3156 26.9583C23.5668 28.9021 24.0384 30.8107 24.7212 32.647C25.421 34.5311 26.3553 36.3188 27.502 37.9677ZM38.4111 27.0197C38.7669 25.0477 39.3621 23.127 40.1834 21.3003C41.012 19.51 42.0369 17.818 43.2392 16.2557C39.9856 13.2649 35.9541 11.2605 31.612 10.475C30.3651 12.2929 29.3729 14.2741 28.6632 16.363C27.9674 18.4472 27.5763 20.6216 27.502 22.8183C29.4708 23.0752 31.4036 23.5588 33.2621 24.2597C35.0834 24.9776 36.8162 25.9038 38.4263 27.0197H38.4111ZM69.1215 22.6343C71.2528 22.7159 73.3664 23.0557 75.4164 23.6463C77.5962 24.2669 79.6942 25.1472 81.6654 26.2683C81.6018 21.7864 80.4255 17.3911 78.243 13.4803C76.3595 12.412 74.3534 11.5779 72.269 10.9963C70.0637 10.3846 67.7883 10.065 65.5004 10.0457C66.6248 12.0169 67.5072 14.1175 68.1284 16.3017C68.7108 18.3656 69.0492 20.4911 69.1368 22.6343H69.1215ZM46.1269 13.0663C47.7015 11.6157 49.4398 10.3549 51.3064 9.30967C53.2834 8.20444 55.3869 7.34457 57.5707 6.749C55.9446 5.13544 54.11 3.74817 52.1162 2.62433C50.2316 1.54334 48.2195 0.703683 46.1269 0.125C44.0401 0.706549 42.0333 1.54609 40.1528 2.62433C38.159 3.74817 36.3244 5.13544 34.6983 6.749C36.8821 7.34457 38.9857 8.20444 40.9626 9.30967C42.8269 10.3511 44.5606 11.6123 46.1269 13.0663ZM16.8068 48.6243C15.2967 50.2797 14.031 52.1437 13.0482 54.1597C12.1004 56.1023 11.4219 58.1658 11.0314 60.293C12.8463 61.5385 14.8196 62.5338 16.8984 63.2523C18.9747 63.9547 21.1412 64.3523 23.3308 64.433C23.6239 62.46 24.1364 60.5261 24.8587 58.6677C25.5314 56.8263 26.4187 55.0713 27.502 53.439C25.5337 53.0957 23.6181 52.4979 21.803 51.6603C20.0257 50.8465 18.349 49.8276 16.8068 48.6243ZM23.1475 22.5577C23.2351 20.4144 23.5735 18.2889 24.1559 16.225C24.7771 14.0409 25.6595 11.9402 26.7839 9.969C24.496 9.98833 22.2205 10.3079 20.0153 10.9197C17.9168 11.5232 15.9002 12.3832 14.0107 13.4803C12.946 15.3758 12.1149 17.3942 11.5356 19.491C10.926 21.6988 10.6075 23.9774 10.5883 26.2683C12.5486 25.1468 14.6365 24.2664 16.8068 23.6463C18.8666 23.0532 20.9907 22.7134 23.1322 22.6343L23.1475 22.5577ZM49.1215 16.1943C50.3361 17.7702 51.3617 19.484 52.1773 21.3003C52.9859 23.1092 53.5757 25.0087 53.9344 26.9583C55.5704 25.8051 57.347 24.8672 59.2208 24.1677C61.0553 23.4773 62.9622 22.9989 64.9046 22.7417C64.8037 20.5013 64.3871 18.2866 63.667 16.1637C62.9597 14.1206 61.9834 12.1816 60.764 10.3983C58.6023 10.802 56.5052 11.4984 54.5302 12.4683C52.531 13.4598 50.688 14.7411 49.0604 16.271L49.1215 16.1943ZM81.314 31.037C79.4983 29.7874 77.5187 28.7966 75.4317 28.093C73.3636 27.377 71.2009 26.974 69.0146 26.897C68.7215 28.87 68.209 30.8039 67.4867 32.6623C66.7869 34.5166 65.8633 36.2777 64.7365 37.9063C66.7085 38.2544 68.6286 38.8521 70.4508 39.685C72.2329 40.511 73.9145 41.5399 75.4622 42.7517C76.9723 41.0963 78.2381 39.2323 79.2208 37.2163C80.1712 35.2842 80.8549 33.2311 81.2529 31.1137L81.314 31.037ZM64.7518 53.4543C65.8954 55.1051 66.8295 56.8924 67.5325 58.775C68.2153 60.6166 68.6869 62.5303 68.9382 64.479C71.1764 64.3743 73.3885 63.951 75.5081 63.2217C77.5492 62.5245 79.4829 61.5439 81.2529 60.3083C80.8454 58.1383 80.1464 56.0337 79.175 54.0523C78.2096 52.0783 76.9641 50.2551 75.4775 48.6397C73.8991 49.8546 72.1868 50.8836 70.3744 51.7063C68.58 52.5217 66.6912 53.1089 64.7518 53.4543ZM9.87018 40.5283C8.76657 38.5436 7.90476 36.4329 7.30334 34.2417C5.70124 35.8786 4.3195 37.7189 3.19333 39.7157C2.1227 41.6047 1.28634 43.6181 0.702881 45.711C1.28889 47.8079 2.12509 49.826 3.19333 51.7217C4.32365 53.7111 5.70506 55.5458 7.30334 57.1803C7.90476 54.9891 8.76657 52.8784 9.87018 50.8937C10.9066 49.0218 12.1633 47.2818 13.6135 45.711C12.1633 44.1402 10.9066 42.4001 9.87018 40.5283ZM84.9657 34.2417C84.3643 36.4329 83.5024 38.5436 82.3988 40.5283C81.3624 42.4001 80.1057 44.1402 78.6555 45.711C80.1057 47.2818 81.3624 49.0218 82.3988 50.8937C83.5024 52.8784 84.3643 54.9891 84.9657 57.1803C86.5639 55.5458 87.9454 53.7111 89.0757 51.7217C90.1439 49.826 90.9801 47.8079 91.5661 45.711C90.9827 43.6181 90.1463 41.6047 89.0757 39.7157C87.9495 37.7189 86.5678 35.8786 84.9657 34.2417ZM69.1368 68.7877C69.0504 70.9361 68.712 73.0668 68.1284 75.1357C67.5072 77.3198 66.6248 79.4204 65.5004 81.3917C67.7883 81.3723 70.0637 81.0527 72.269 80.441C74.3587 79.8606 76.37 79.0265 78.2583 77.957C80.4408 74.0462 81.6171 69.6509 81.6807 65.169C79.7094 66.2901 77.6115 67.1704 75.4317 67.791C73.3811 68.3765 71.2674 68.7111 69.1368 68.7877ZM46.1269 78.3557C44.5606 79.8097 42.8269 81.0709 40.9626 82.1123C38.9857 83.2176 36.8821 84.0774 34.6983 84.673C36.3244 86.2866 38.159 87.6738 40.1528 88.7977C42.0333 89.8759 44.0401 90.7154 46.1269 91.297C48.2195 90.7183 50.2316 89.8787 52.1162 88.7977C54.11 87.6738 55.9446 86.2866 57.5707 84.673C55.3869 84.0774 53.2834 83.2176 51.3064 82.1123C49.4398 81.0671 47.7015 79.8063 46.1269 78.3557ZM43.2086 75.1357C42.0001 73.5557 40.9749 71.8426 40.1528 70.0297C39.3594 68.227 38.775 66.3389 38.4111 64.4023C36.7747 65.551 34.998 66.4837 33.1246 67.1777C31.2901 67.868 29.3832 68.3464 27.4408 68.6037C27.5385 70.8294 27.9553 73.0293 28.6784 75.1357C29.3857 77.1787 30.362 79.1177 31.5814 80.901C33.7431 80.4973 35.8402 79.8009 37.8152 78.831C39.7808 77.8661 41.5974 76.6215 43.2086 75.1357ZM53.9038 64.4023C53.5495 66.3765 52.949 68.2981 52.1162 70.1217C51.2941 71.9154 50.2687 73.6082 49.0604 75.1663C52.314 78.1571 56.3454 80.1614 60.6876 80.947C61.923 79.152 62.9098 77.1971 63.6211 75.1357C64.3272 73.053 64.7287 70.8786 64.8129 68.6803C62.8441 68.4235 60.9113 67.9398 59.0528 67.239C57.2092 66.5062 55.46 65.5538 53.8427 64.4023H53.9038ZM23.1933 68.7877C21.0313 68.7136 18.8864 68.3737 16.8068 67.7757C14.626 67.1579 12.5277 66.2775 10.5577 65.1537C10.6017 69.6383 11.7793 74.0384 13.9802 77.9417C15.8685 79.0111 17.8798 79.8453 19.9695 80.4257C22.1747 81.0374 24.4502 81.357 26.738 81.3763C25.6253 79.4085 24.7532 77.3131 24.1406 75.1357C23.5571 73.0668 23.2186 70.9361 23.1322 68.7877H23.1933ZM148.877 18.4023C147.968 17.8764 146.891 17.7279 145.874 17.9886C144.858 18.2493 143.984 18.8986 143.438 19.7977C143.075 20.3929 142.884 21.0779 142.888 21.7757C142.885 22.4686 143.075 23.1485 143.438 23.7383C143.787 24.3116 144.276 24.7864 144.859 25.1183C145.475 25.4609 146.171 25.6354 146.876 25.6243C147.566 25.6438 148.249 25.4796 148.855 25.1483C149.462 24.8171 149.97 24.3306 150.329 23.7383C150.698 23.1516 150.889 22.4696 150.879 21.7757C150.857 21.1249 150.668 20.4908 150.329 19.9357C149.982 19.3095 149.482 18.7819 148.877 18.4023ZM137.51 40.1297C136.766 38.3919 135.673 36.8261 134.301 35.5297C132.958 34.1958 131.364 33.1439 129.612 32.4357C127.859 31.7275 125.984 31.3771 124.095 31.405C122.474 31.44 120.879 31.8092 119.407 32.4898C117.935 33.1704 116.618 34.1477 115.539 35.361V18.7703H109.733V45.6803C109.716 47.5808 110.069 49.4663 110.772 51.231C111.471 52.9555 112.51 54.5202 113.827 55.831C115.143 57.142 116.699 58.1836 118.411 58.8977C120.19 59.6127 122.087 59.9821 124.003 59.9863C125.902 60.0107 127.788 59.6562 129.549 58.9437C131.258 58.2241 132.814 57.1832 134.133 55.877C135.515 54.5707 136.61 52.9888 137.347 51.2327C138.083 49.4767 138.446 47.5854 138.411 45.6803C138.487 43.788 138.18 41.9 137.51 40.1297ZM131.963 49.207C131.566 50.2953 130.952 51.2916 130.16 52.1357C129.386 52.9332 128.455 53.5599 127.426 53.9757C125.28 54.7935 122.91 54.7935 120.764 53.9757C119.746 53.5554 118.825 52.929 118.06 52.1357C117.272 51.3059 116.659 50.3255 116.257 49.253C115.855 48.1428 115.659 46.9686 115.676 45.7877C115.656 44.5916 115.853 43.4018 116.257 42.2763C116.652 41.2141 117.267 40.2475 118.06 39.4397C118.823 38.603 119.755 37.9392 120.795 37.4923C121.867 37.0534 123.013 36.8193 124.171 36.8023C125.299 36.8143 126.414 37.0433 127.456 37.477C128.486 37.9247 129.408 38.5888 130.16 39.4243C130.958 40.2316 131.577 41.198 131.979 42.261C132.406 43.3815 132.618 44.5728 132.605 45.7723C132.612 46.9464 132.399 48.1113 131.979 49.207H131.963ZM143.927 59.3883H149.733V32.0337H143.942L143.927 59.3883ZM182.888 40.1297C182.144 38.3919 181.052 36.8261 179.679 35.5297C178.337 34.1958 176.742 33.1439 174.99 32.4357C173.238 31.7275 171.362 31.3771 169.473 31.405C167.559 31.3866 165.66 31.7407 163.881 32.4477C162.171 33.1645 160.614 34.2058 159.297 35.5143C157.985 36.8291 156.946 38.3928 156.241 40.1143C154.86 43.6849 154.86 47.6451 156.241 51.2157C156.94 52.9402 157.98 54.5049 159.297 55.8157C160.612 57.1266 162.169 58.1682 163.881 58.8823C165.657 59.6047 167.556 59.9744 169.473 59.971C171.362 59.9989 173.238 59.6485 174.99 58.9403C176.742 58.2321 178.337 57.1802 179.679 55.8463C181.052 54.5499 182.144 52.9841 182.888 51.2463C184.313 47.6788 184.313 43.6972 182.888 40.1297ZM177.342 49.207C176.938 50.2924 176.325 51.2876 175.539 52.1357C174.772 52.953 173.839 53.5961 172.804 54.0217C170.658 54.8395 168.288 54.8395 166.142 54.0217C165.135 53.5859 164.229 52.9435 163.484 52.1357C162.696 51.3059 162.083 50.3255 161.681 49.253C161.287 48.1409 161.09 46.968 161.1 45.7877C161.088 44.5922 161.284 43.4037 161.681 42.2763C162.077 41.2007 162.691 40.2192 163.484 39.3937C164.248 38.5584 165.18 37.8948 166.219 37.4463C167.29 37.0083 168.438 36.7893 169.595 36.8023C170.725 36.7992 171.843 37.0288 172.88 37.477C173.907 37.93 174.828 38.5933 175.584 39.4243C176.369 40.2422 176.986 41.2058 177.403 42.261C177.83 43.3815 178.042 44.5728 178.029 45.7723C178.021 46.9493 177.793 48.1143 177.357 49.207H177.342Z" fill="#1890FF"/>
</svg>
