<svg width="212" height="186" viewBox="0 0 212 186" fill="none" xmlns="http://www.w3.org/2000/svg">
<g clip-path="url(#clip0_20562_255277)">
<path d="M211.25 149.33H0.75V149.435H211.25V149.33Z" fill="#EBEBEB"/>
<path d="M36.7792 153.338H22.8357V153.443H36.7792V153.338Z" fill="#EBEBEB"/>
<path d="M92.4817 152.197H72.7999V152.302H92.4817V152.197Z" fill="#EBEBEB"/>
<path d="M56.3179 156.592H48.2389V156.697H56.3179V156.592Z" fill="#EBEBEB"/>
<path d="M144.959 154.765H132.241V154.87H144.959V154.765Z" fill="#EBEBEB"/>
<path d="M156.84 154.765H148.706V154.87H156.84V154.765Z" fill="#EBEBEB"/>
<path d="M190.162 156.542H165.508V156.647H190.162V156.542Z" fill="#EBEBEB"/>
<path d="M100.527 130.553H19.2361C18.5993 130.552 17.9889 130.299 17.539 129.848C17.0891 129.397 16.8364 128.786 16.8364 128.15V13.8775C16.842 13.2443 17.0971 12.6389 17.5464 12.1927C17.9957 11.7466 18.6029 11.4957 19.2361 11.4946H100.527C101.165 11.4946 101.776 11.7479 102.227 12.1987C102.678 12.6495 102.931 13.261 102.931 13.8985V128.15C102.931 128.787 102.678 129.399 102.227 129.849C101.776 130.3 101.165 130.553 100.527 130.553ZM19.2361 11.5788C18.6272 11.5799 18.0436 11.8226 17.6134 12.2536C17.1833 12.6845 16.9417 13.2686 16.9417 13.8775V128.15C16.9417 128.758 17.1833 129.342 17.6134 129.773C18.0436 130.204 18.6272 130.447 19.2361 130.448H100.527C101.136 130.447 101.72 130.205 102.151 129.774C102.582 129.343 102.825 128.759 102.826 128.15V13.8775C102.825 13.2682 102.582 12.6842 102.151 12.2533C101.72 11.8225 101.136 11.5799 100.527 11.5788H19.2361Z" fill="#EBEBEB"/>
<path d="M191.594 130.553H110.298C109.661 130.552 109.05 130.299 108.6 129.848C108.149 129.398 107.896 128.787 107.895 128.15V13.8775C107.901 13.2439 108.157 12.6385 108.607 12.1925C109.057 11.7464 109.665 11.4957 110.298 11.4946H191.594C192.226 11.4968 192.832 11.7482 193.281 12.1942C193.729 12.6403 193.983 13.245 193.989 13.8775V128.15C193.989 128.786 193.737 129.396 193.288 129.846C192.839 130.297 192.23 130.551 191.594 130.553ZM110.298 11.5788C109.689 11.5799 109.105 11.8225 108.674 12.2533C108.243 12.6842 108.001 13.2682 108 13.8775V128.15C108.001 128.759 108.243 129.343 108.674 129.774C109.105 130.205 109.689 130.447 110.298 130.448H191.594C192.203 130.447 192.787 130.205 193.218 129.774C193.649 129.343 193.891 128.759 193.892 128.15V13.8775C193.891 13.2682 193.649 12.6842 193.218 12.2533C192.787 11.8225 192.203 11.5799 191.594 11.5788H110.298Z" fill="#EBEBEB"/>
<path d="M38.4336 91.5771L138.602 91.5771V28.8945L38.4336 28.8945L38.4336 91.5771Z" fill="#F0F0F0"/>
<path d="M136.64 88.6302V31.8415L40.3914 31.8415V88.6302H136.64Z" fill="#FAFAFA"/>
<path d="M123.973 88.6302L114.096 31.8415H106.817L116.689 88.6302H123.973Z" fill="white"/>
<path d="M115.009 88.6302L105.137 31.8415H101.883L111.755 88.6302H115.009Z" fill="white"/>
<path d="M99.0788 88.6302L89.2063 31.8415H81.9272L91.7997 88.6302H99.0788Z" fill="white"/>
<path d="M80.7274 88.6302L70.8508 31.8415H67.5964L77.4689 88.6302H80.7274Z" fill="white"/>
<path d="M111.351 88.6302V31.8415H110.854V88.6302H111.351Z" fill="#E0E0E0"/>
<path d="M136.64 88.6344V31.8457H136.144V88.6344H136.64Z" fill="#E0E0E0"/>
<path d="M113.313 88.6302V31.8415H111.351V88.6302H113.313Z" fill="#F0F0F0"/>
<path d="M87.0551 88.6302V31.8415H86.5583V88.6302H87.0551Z" fill="#E0E0E0"/>
<path d="M89.0127 88.6302V31.8415H87.0508V88.6302H89.0127Z" fill="#F0F0F0"/>
<path d="M62.7423 88.6302V31.8415H62.2455V88.6302H62.7423Z" fill="#E0E0E0"/>
<path d="M64.7041 88.6344V31.8457H62.7422V88.6344H64.7041Z" fill="#F0F0F0"/>
<path d="M38.4294 91.5773L38.4294 28.8947H37.9327L37.9327 91.5773H38.4294Z" fill="#E0E0E0"/>
<path d="M28.2539 24.592H143.048C143.221 24.592 143.388 24.5234 143.511 24.4011C143.634 24.2788 143.704 24.1129 143.705 23.9394C143.705 23.7652 143.636 23.5982 143.512 23.475C143.389 23.3518 143.222 23.2827 143.048 23.2827H28.2539C28.0804 23.2838 27.9144 23.3535 27.7922 23.4765C27.6699 23.5995 27.6013 23.766 27.6013 23.9394C27.6024 24.1121 27.6715 24.2775 27.7937 24.3996C27.9158 24.5218 28.0811 24.5909 28.2539 24.592Z" fill="#E0E0E0"/>
<g opacity="0.6">
<path opacity="0.6" d="M97.8873 136.393H141.444V22.0197H97.8873L97.8873 136.393Z" fill="#F5F5F5"/>
<path opacity="0.6" d="M124.372 137.327H128.022L126.999 22.9543H125.366L124.372 137.327Z" fill="#E6E6E6"/>
<path opacity="0.6" d="M132.426 137.327H134.19L133.693 22.9543H132.906L132.426 137.327Z" fill="#E6E6E6"/>
<path opacity="0.6" d="M113.788 137.327H115.548L115.056 22.9543H114.268L113.788 137.327Z" fill="#E6E6E6"/>
<path opacity="0.6" d="M104.821 137.327H106.581L106.088 22.9543H105.301L104.821 137.327Z" fill="#E6E6E6"/>
</g>
<g opacity="0.6">
<path opacity="0.6" d="M30.5021 136.393H52.2804L52.2804 22.0197H30.5021L30.5021 136.393Z" fill="#F5F5F5"/>
<path opacity="0.6" d="M43.7467 137.327H45.5696L45.0602 22.9543H44.2435L43.7467 137.327Z" fill="#E6E6E6"/>
<path opacity="0.6" d="M47.7715 137.327H48.6514L48.4072 22.9543H48.0115L47.7715 137.327Z" fill="#E6E6E6"/>
<path opacity="0.6" d="M38.4547 137.327H39.3346L39.0862 22.9543H38.6947L38.4547 137.327Z" fill="#E6E6E6"/>
<path opacity="0.6" d="M33.9711 137.327H34.851L34.6026 22.9543H34.2068L33.9711 137.327Z" fill="#E6E6E6"/>
</g>
<path d="M181.666 39.7016H152.773V75.7645H181.666V39.7016Z" fill="#E6E6E6"/>
<path d="M182.938 39.7016H153.207V75.7645H182.938V39.7016Z" fill="#F5F5F5"/>
<path d="M180.66 73.2048V42.2613H155.489V73.2048H180.66Z" fill="#FAFAFA"/>
<path d="M180.66 73.2048V42.2613H180.424V73.2048H180.66Z" fill="#E6E6E6"/>
<path d="M151.914 106.371H147.965V146.627H151.914V106.371Z" fill="#F0F0F0"/>
<path d="M189.03 103.963H147.005V106.371H189.03V103.963Z" fill="#F0F0F0"/>
<path d="M186.457 146.627H149.573V149.33H186.457V146.627Z" fill="#F0F0F0"/>
<path d="M188.07 106.371H151.914V146.627H188.07V106.371Z" fill="#FAFAFA"/>
<path d="M155.206 123.207H184.773V110.855H155.206V123.207Z" fill="#F0F0F0"/>
<path d="M155.206 141.373H184.773V129.021H155.206V141.373Z" fill="#F0F0F0"/>
<path d="M173.36 110.127H166.62C166.197 110.127 165.854 110.47 165.854 110.893V111.28C165.854 111.703 166.197 112.046 166.62 112.046H173.36C173.783 112.046 174.126 111.703 174.126 111.28V110.893C174.126 110.47 173.783 110.127 173.36 110.127Z" fill="#FAFAFA"/>
<path d="M173.36 128.297H166.62C166.197 128.297 165.854 128.64 165.854 129.063V129.45C165.854 129.874 166.197 130.217 166.62 130.217H173.36C173.783 130.217 174.126 129.874 174.126 129.45V129.063C174.126 128.64 173.783 128.297 173.36 128.297Z" fill="#FAFAFA"/>
<path d="M81.401 149.208C86.3492 148.405 89.7094 143.743 88.9062 138.795C88.103 133.846 83.4405 130.486 78.4923 131.289C73.5441 132.093 70.184 136.755 70.9872 141.703C71.7904 146.651 76.4528 150.012 81.401 149.208Z" fill="#EBEBEB"/>
<path d="M67.8187 149.182C73.9947 148.179 78.1887 142.36 77.1862 136.184C76.1837 130.008 70.3643 125.814 64.1882 126.816C58.0122 127.819 53.8182 133.638 54.8207 139.814C55.8232 145.99 61.6426 150.184 67.8187 149.182Z" fill="#F5F5F5"/>
<path d="M106 168.342C151.082 168.342 187.628 166.209 187.628 163.577C187.628 160.945 151.082 158.811 106 158.811C60.9183 158.811 24.3723 160.945 24.3723 163.577C24.3723 166.209 60.9183 168.342 106 168.342Z" fill="#F5F5F5"/>
<path d="M54.0528 71.5038C51.27 71.5038 49.9607 68.7042 49.906 68.5863C49.8584 68.4552 49.8617 68.3111 49.9154 68.1824C49.9691 68.0537 50.0693 67.9499 50.1959 67.8916C50.3226 67.8333 50.4666 67.8248 50.5992 67.8677C50.7319 67.9106 50.8436 68.0018 50.9122 68.1232C50.9122 68.1611 52.0194 70.4555 54.137 70.3966C54.2762 70.4044 54.4074 70.4643 54.5045 70.5644C54.6016 70.6644 54.6576 70.7973 54.6613 70.9367C54.665 71.076 54.6162 71.2117 54.5245 71.3168C54.4329 71.4218 54.3051 71.4886 54.1665 71.5038H54.0528Z" fill="#1CBA92"/>
<path d="M90.423 32.6245C90.1808 32.6256 89.9389 32.6101 89.6989 32.5782C89.627 32.5674 89.5579 32.5426 89.4957 32.5052C89.4334 32.4677 89.3791 32.4183 89.3359 32.3599C89.2927 32.3014 89.2615 32.2351 89.2439 32.1645C89.2264 32.094 89.2229 32.0207 89.2337 31.9488C89.2444 31.877 89.2693 31.8079 89.3067 31.7456C89.3442 31.6834 89.3936 31.6291 89.452 31.5859C89.5105 31.5427 89.5768 31.5114 89.6474 31.4939C89.7179 31.4763 89.7912 31.4729 89.8631 31.4836C89.8883 31.4836 92.4227 31.8415 93.5342 30.0354C93.572 29.9735 93.6217 29.9196 93.6804 29.8769C93.7391 29.8342 93.8056 29.8034 93.8762 29.7864C93.9468 29.7694 94.02 29.7665 94.0917 29.7778C94.1634 29.7891 94.2322 29.8144 94.2941 29.8523C94.356 29.8901 94.4099 29.9398 94.4526 29.9985C94.4953 30.0572 94.526 30.1237 94.543 30.1943C94.56 30.2648 94.563 30.3381 94.5517 30.4098C94.5404 30.4815 94.5151 30.5502 94.4772 30.6122C93.37 32.3635 91.4544 32.6245 90.423 32.6245Z" fill="#1CBA92"/>
<path opacity="0.6" d="M90.423 32.6245C90.1808 32.6256 89.9389 32.6101 89.6989 32.5782C89.627 32.5674 89.5579 32.5426 89.4957 32.5052C89.4334 32.4677 89.3791 32.4183 89.3359 32.3599C89.2927 32.3014 89.2615 32.2351 89.2439 32.1645C89.2264 32.094 89.2229 32.0207 89.2337 31.9488C89.2444 31.877 89.2693 31.8079 89.3067 31.7456C89.3442 31.6834 89.3936 31.6291 89.452 31.5859C89.5105 31.5427 89.5768 31.5114 89.6474 31.4939C89.7179 31.4763 89.7912 31.4729 89.8631 31.4836C89.8883 31.4836 92.4227 31.8415 93.5342 30.0354C93.572 29.9735 93.6217 29.9196 93.6804 29.8769C93.7391 29.8342 93.8056 29.8034 93.8762 29.7864C93.9468 29.7694 94.02 29.7665 94.0917 29.7778C94.1634 29.7891 94.2322 29.8144 94.2941 29.8523C94.356 29.8901 94.4099 29.9398 94.4526 29.9985C94.4953 30.0572 94.526 30.1237 94.543 30.1943C94.56 30.2648 94.563 30.3381 94.5517 30.4098C94.5404 30.4815 94.5151 30.5502 94.4772 30.6122C93.37 32.3635 91.4544 32.6245 90.423 32.6245Z" fill="white"/>
<path d="M27.9465 53.7082C26.8784 53.6719 25.8411 53.3411 24.949 52.7526C24.8861 52.7122 24.832 52.6595 24.7901 52.5977C24.7481 52.5358 24.7192 52.4661 24.7051 52.3927C24.6909 52.3193 24.6918 52.2438 24.7077 52.1707C24.7236 52.0977 24.7542 52.0287 24.7977 51.9678C24.8411 51.907 24.8964 51.8556 24.9603 51.8168C25.0242 51.778 25.0953 51.7526 25.1693 51.7421C25.2433 51.7317 25.3186 51.7363 25.3908 51.7559C25.4629 51.7754 25.5303 51.8094 25.5889 51.8558C25.61 51.8558 27.7318 53.2914 29.5211 52.1505C29.5824 52.106 29.6521 52.0744 29.726 52.0578C29.8 52.0412 29.8765 52.0398 29.951 52.0539C30.0254 52.0679 30.0962 52.0971 30.159 52.1395C30.2218 52.1819 30.2752 52.2367 30.3161 52.3005C30.3569 52.3644 30.3842 52.4359 30.3964 52.5107C30.4086 52.5854 30.4054 52.6619 30.3869 52.7354C30.3684 52.8089 30.3351 52.8778 30.289 52.938C30.243 52.9981 30.1851 53.0482 30.1189 53.0851C29.4703 53.4987 28.7157 53.7151 27.9465 53.7082Z" fill="#1CBA92"/>
<path opacity="0.6" d="M27.9465 53.7082C26.8784 53.6719 25.8411 53.3411 24.949 52.7526C24.8861 52.7122 24.832 52.6595 24.7901 52.5977C24.7481 52.5358 24.7192 52.4661 24.7051 52.3927C24.6909 52.3193 24.6918 52.2438 24.7077 52.1707C24.7236 52.0977 24.7542 52.0287 24.7977 51.9678C24.8411 51.907 24.8964 51.8556 24.9603 51.8168C25.0242 51.778 25.0953 51.7526 25.1693 51.7421C25.2433 51.7317 25.3186 51.7363 25.3908 51.7559C25.4629 51.7754 25.5303 51.8094 25.5889 51.8558C25.61 51.8558 27.7318 53.2914 29.5211 52.1505C29.5824 52.106 29.6521 52.0744 29.726 52.0578C29.8 52.0412 29.8765 52.0398 29.951 52.0539C30.0254 52.0679 30.0962 52.0971 30.159 52.1395C30.2218 52.1819 30.2752 52.2367 30.3161 52.3005C30.3569 52.3644 30.3842 52.4359 30.3964 52.5107C30.4086 52.5854 30.4054 52.6619 30.3869 52.7354C30.3684 52.8089 30.3351 52.8778 30.289 52.938C30.243 52.9981 30.1851 53.0482 30.1189 53.0851C29.4703 53.4987 28.7157 53.7151 27.9465 53.7082Z" fill="white"/>
<path d="M172.362 38.9437C171.296 38.915 170.258 38.5947 169.361 38.0175C169.24 37.9344 169.157 37.8067 169.131 37.6626C169.104 37.5185 169.136 37.3698 169.22 37.2492C169.303 37.1286 169.43 37.046 169.574 37.0196C169.719 36.9931 169.867 37.025 169.988 37.1082C170.009 37.1082 172.135 38.5396 173.924 37.4029C173.985 37.3639 174.053 37.3373 174.125 37.3247C174.196 37.3121 174.269 37.3136 174.34 37.3293C174.411 37.3449 174.478 37.3743 174.537 37.4159C174.597 37.4574 174.647 37.5102 174.686 37.5713C174.725 37.6324 174.752 37.7005 174.764 37.7719C174.777 37.8433 174.775 37.9164 174.76 37.9872C174.744 38.0579 174.715 38.1249 174.673 38.1843C174.632 38.2437 174.579 38.2943 174.518 38.3333C173.874 38.7415 173.125 38.9536 172.362 38.9437Z" fill="#1CBA92"/>
<path opacity="0.6" d="M172.362 38.9437C171.296 38.915 170.258 38.5947 169.361 38.0175C169.24 37.9344 169.157 37.8067 169.131 37.6626C169.104 37.5185 169.136 37.3698 169.22 37.2492C169.303 37.1286 169.43 37.046 169.574 37.0196C169.719 36.9931 169.867 37.025 169.988 37.1082C170.009 37.1082 172.135 38.5396 173.924 37.4029C173.985 37.3639 174.053 37.3373 174.125 37.3247C174.196 37.3121 174.269 37.3136 174.34 37.3293C174.411 37.3449 174.478 37.3743 174.537 37.4159C174.597 37.4574 174.647 37.5102 174.686 37.5713C174.725 37.6324 174.752 37.7005 174.764 37.7719C174.777 37.8433 174.775 37.9164 174.76 37.9872C174.744 38.0579 174.715 38.1249 174.673 38.1843C174.632 38.2437 174.579 38.2943 174.518 38.3333C173.874 38.7415 173.125 38.9536 172.362 38.9437Z" fill="white"/>
<path d="M104.657 82.4288C102.076 82.4288 100.67 79.9281 100.607 79.8144C100.536 79.686 100.519 79.5347 100.56 79.3938C100.6 79.2528 100.695 79.1338 100.824 79.0629C100.952 78.992 101.104 78.975 101.244 79.0157C101.385 79.0564 101.504 79.1513 101.575 79.2797C101.575 79.3134 102.838 81.5195 104.943 81.3047C105.084 81.2999 105.221 81.3486 105.328 81.4412C105.434 81.5337 105.501 81.6631 105.515 81.8032C105.53 81.9433 105.49 82.0836 105.405 82.1958C105.32 82.3081 105.196 82.3838 105.057 82.4078C104.931 82.4204 104.792 82.4288 104.657 82.4288Z" fill="#1CBA92"/>
<path opacity="0.6" d="M104.657 82.4288C102.076 82.4288 100.67 79.9281 100.607 79.8144C100.536 79.686 100.519 79.5347 100.56 79.3938C100.6 79.2528 100.695 79.1338 100.824 79.0629C100.952 78.992 101.104 78.975 101.244 79.0157C101.385 79.0564 101.504 79.1513 101.575 79.2797C101.575 79.3134 102.838 81.5195 104.943 81.3047C105.084 81.2999 105.221 81.3486 105.328 81.4412C105.434 81.5337 105.501 81.6631 105.515 81.8032C105.53 81.9433 105.49 82.0836 105.405 82.1958C105.32 82.3081 105.196 82.3838 105.057 82.4078C104.931 82.4204 104.792 82.4288 104.657 82.4288Z" fill="white"/>
<path d="M34.009 93.6737C33.8749 93.6726 33.7459 93.6227 33.646 93.5333C33.546 93.4439 33.4821 93.3211 33.4661 93.188C33.4501 93.0549 33.4831 92.9205 33.559 92.81C33.635 92.6995 33.7485 92.6204 33.8785 92.5875C33.9038 92.5875 36.375 91.935 36.7118 89.8384C36.7234 89.7668 36.749 89.6982 36.7872 89.6365C36.8253 89.5748 36.8752 89.5212 36.934 89.4788C36.9929 89.4364 37.0595 89.406 37.1301 89.3893C37.2007 89.3726 37.2738 89.37 37.3454 89.3816C37.417 89.3932 37.4856 89.4188 37.5473 89.457C37.609 89.4951 37.6626 89.545 37.7051 89.6038C37.7475 89.6627 37.7779 89.7293 37.7946 89.7999C37.8112 89.8705 37.8138 89.9436 37.8022 90.0152C37.3518 92.8401 34.2742 93.6274 34.1437 93.6611C34.0993 93.6695 34.0542 93.6737 34.009 93.6737Z" fill="#1CBA92"/>
<path opacity="0.6" d="M34.009 93.6737C33.8749 93.6726 33.7459 93.6227 33.646 93.5333C33.546 93.4439 33.4821 93.3211 33.4661 93.188C33.4501 93.0549 33.4831 92.9205 33.559 92.81C33.635 92.6995 33.7485 92.6204 33.8785 92.5875C33.9038 92.5875 36.375 91.935 36.7118 89.8384C36.7234 89.7668 36.749 89.6982 36.7872 89.6365C36.8253 89.5748 36.8752 89.5212 36.934 89.4788C36.9929 89.4364 37.0595 89.406 37.1301 89.3893C37.2007 89.3726 37.2738 89.37 37.3454 89.3816C37.417 89.3932 37.4856 89.4188 37.5473 89.457C37.609 89.4951 37.6626 89.545 37.7051 89.6038C37.7475 89.6627 37.7779 89.7293 37.7946 89.7999C37.8112 89.8705 37.8138 89.9436 37.8022 90.0152C37.3518 92.8401 34.2742 93.6274 34.1437 93.6611C34.0993 93.6695 34.0542 93.6737 34.009 93.6737Z" fill="black"/>
<path d="M156.941 55.2995C156.803 55.3042 156.669 55.2572 156.564 55.1677C156.459 55.0782 156.392 54.9527 156.375 54.816C156.358 54.6792 156.393 54.5411 156.473 54.4287C156.553 54.3164 156.672 54.2381 156.806 54.2091C156.832 54.2091 159.303 53.5608 159.64 51.4642C159.647 51.3883 159.669 51.3147 159.706 51.2478C159.742 51.181 159.792 51.1224 159.852 51.0757C159.913 51.029 159.982 50.9951 160.056 50.9763C160.129 50.9575 160.206 50.954 160.282 50.9662C160.357 50.9783 160.429 51.0058 160.493 51.0469C160.557 51.0881 160.612 51.142 160.655 51.2053C160.697 51.2686 160.726 51.3399 160.74 51.4149C160.753 51.4898 160.752 51.5668 160.734 51.641C160.28 54.4659 157.202 55.2532 157.071 55.2827C157.029 55.2945 156.985 55.3002 156.941 55.2995Z" fill="#1CBA92"/>
<path opacity="0.6" d="M156.941 55.2995C156.803 55.3042 156.669 55.2572 156.564 55.1677C156.459 55.0782 156.392 54.9527 156.375 54.816C156.358 54.6792 156.393 54.5411 156.473 54.4287C156.553 54.3164 156.672 54.2381 156.806 54.2091C156.832 54.2091 159.303 53.5608 159.64 51.4642C159.647 51.3883 159.669 51.3147 159.706 51.2478C159.742 51.181 159.792 51.1224 159.852 51.0757C159.913 51.029 159.982 50.9951 160.056 50.9763C160.129 50.9575 160.206 50.954 160.282 50.9662C160.357 50.9783 160.429 51.0058 160.493 51.0469C160.557 51.0881 160.612 51.142 160.655 51.2053C160.697 51.2686 160.726 51.3399 160.74 51.4149C160.753 51.4898 160.752 51.5668 160.734 51.641C160.28 54.4659 157.202 55.2532 157.071 55.2827C157.029 55.2945 156.985 55.3002 156.941 55.2995Z" fill="black"/>
<path d="M179.561 76.2905H179.469C179.334 76.2652 176.21 75.6927 175.566 72.9225C175.549 72.8512 175.547 72.7772 175.559 72.7049C175.571 72.6326 175.598 72.5635 175.637 72.5016C175.676 72.4396 175.727 72.3861 175.787 72.3442C175.847 72.3023 175.915 72.2727 175.987 72.2573C176.058 72.2412 176.132 72.2392 176.204 72.2517C176.276 72.2641 176.345 72.2906 176.407 72.3297C176.469 72.3688 176.522 72.4198 176.564 72.4796C176.606 72.5394 176.636 72.6069 176.652 72.6783C177.132 74.7412 179.641 75.2043 179.667 75.2043C179.799 75.2327 179.917 75.3085 179.997 75.4176C180.078 75.5267 180.116 75.6615 180.104 75.7965C180.092 75.9316 180.031 76.0577 179.933 76.151C179.834 76.2443 179.705 76.2984 179.57 76.3031L179.561 76.2905Z" fill="#1CBA92"/>
<path d="M169.693 96.587C168.729 96.6021 167.791 96.2721 167.049 95.6566C166.987 95.6124 166.935 95.5558 166.896 95.4905C166.857 95.4252 166.832 95.3525 166.823 95.2771C166.813 95.2016 166.819 95.125 166.841 95.052C166.862 94.9791 166.899 94.9113 166.947 94.8531C166.996 94.7949 167.057 94.7474 167.125 94.7136C167.193 94.6798 167.268 94.6606 167.344 94.6569C167.419 94.6533 167.495 94.6655 167.566 94.6926C167.638 94.7197 167.702 94.7612 167.756 94.8146C169.386 96.1702 171.672 95.0335 171.697 95.0209C171.828 94.9539 171.98 94.9415 172.119 94.9865C172.259 95.0315 172.375 95.1302 172.442 95.2608C172.509 95.3915 172.522 95.5434 172.477 95.6831C172.432 95.8229 172.333 95.939 172.202 96.006C171.418 96.3792 170.562 96.5774 169.693 96.587Z" fill="#1CBA92"/>
<path d="M143.89 27.4925C143.794 27.4933 143.7 27.4686 143.616 27.421C143.503 27.3578 140.754 25.7664 141.09 22.9247C141.107 22.779 141.181 22.6459 141.296 22.5547C141.411 22.4635 141.557 22.4217 141.703 22.4384C141.849 22.4552 141.982 22.5291 142.073 22.644C142.164 22.7589 142.206 22.9053 142.189 23.051C141.949 25.156 144.155 26.4485 144.176 26.4611C144.283 26.5217 144.367 26.6164 144.414 26.7301C144.462 26.8438 144.469 26.9701 144.436 27.0887C144.403 27.2074 144.332 27.3116 144.233 27.3847C144.134 27.4579 144.013 27.4959 143.89 27.4925Z" fill="#1CBA92"/>
<path d="M33.9206 29.7365C33.8482 29.7395 33.7759 29.7283 33.7078 29.7034C33.6397 29.6785 33.5772 29.6404 33.5238 29.5913C33.4705 29.5423 33.4273 29.4832 33.3968 29.4174C33.3663 29.3517 33.349 29.2806 33.3459 29.2081C33.3429 29.1357 33.3542 29.0634 33.3791 28.9953C33.404 28.9272 33.442 28.8647 33.4911 28.8114C33.5402 28.758 33.5993 28.7148 33.665 28.6843C33.7308 28.6538 33.8019 28.6365 33.8743 28.6335C35.9793 28.4482 36.8213 26.0317 36.8213 26.0064C36.8702 25.8721 36.9694 25.762 37.0979 25.6993C37.2264 25.6367 37.3742 25.6264 37.5102 25.6706C37.6461 25.7148 37.7596 25.8101 37.8266 25.9364C37.8937 26.0627 37.9091 26.21 37.8696 26.3474C37.8317 26.478 36.8213 29.4881 33.9711 29.7154L33.9206 29.7365Z" fill="#1CBA92"/>
<path d="M74.9975 46.3952C73.5029 47.0941 72.1852 50.4536 72.6146 55.2783C73.044 60.103 63.0495 56.7181 61.6897 62.1238C59.2352 71.9078 75.6921 77.7892 82.706 71.9078C87.0465 68.2704 91.126 56.2803 90.5282 49.7379C89.8883 42.703 78.9759 37.9836 74.9975 46.3952Z" fill="#2F3845"/>
<path d="M90.7893 58.739C90.9745 58.6843 91.244 58.6043 91.4755 58.5285L92.1997 58.2843C92.6838 58.1159 93.1637 57.9307 93.6395 57.7328C94.5873 57.3437 95.5122 56.9009 96.4097 56.4067C98.1684 55.4683 99.751 54.2319 101.087 52.7524C102.278 51.3378 103.133 49.4097 103.802 47.431C104.143 46.4374 104.43 45.4144 104.674 44.3745C104.918 43.3346 105.15 42.2695 105.326 41.2465L107.044 41.3517C107.047 43.6284 106.8 45.8986 106.307 48.1214C106.057 49.2604 105.718 50.378 105.293 51.4641C104.852 52.6106 104.262 53.6935 103.537 54.6848C102.054 56.5861 100.215 58.1805 98.1231 59.3789C97.115 59.9749 96.0686 60.5037 94.9909 60.9619C94.452 61.1892 93.9089 61.3829 93.3532 61.5892C93.0796 61.686 92.8017 61.7786 92.5112 61.8628C92.2207 61.947 91.9639 62.027 91.6187 62.1112L90.7893 58.739Z" fill="#EDD1C5"/>
<path d="M107.036 41.9285L107.751 39.3562L104.91 39.5751C104.91 39.5751 104.707 41.2591 105.688 42.2737L107.036 41.9285Z" fill="#EDD1C5"/>
<path d="M108.177 36.3629L105.583 37.0407L104.91 39.5751L107.751 39.3562L108.177 36.3629Z" fill="#EDD1C5"/>
<path d="M87.5728 59.3958C88.8821 58.2044 92.2038 57.2908 92.2038 57.2908L95.8454 62.7638C95.8454 62.7638 91.6901 65.5382 89.9262 64.8941C88.0906 64.2542 86.3519 60.5031 87.5728 59.3958Z" fill="#2265C6"/>
<path d="M75.5786 137.243L77.8478 139.735L84.3607 135.096L82.0915 132.603L75.5786 137.243Z" fill="#EDD1C5"/>
<path d="M62.7717 147.09L65.8156 148.601L70.2908 142.038L67.247 140.527L62.7717 147.09Z" fill="#EDD1C5"/>
<path d="M66.2997 148.227L63.9506 145.217C63.911 145.164 63.8537 145.128 63.7894 145.115C63.725 145.102 63.6581 145.112 63.6011 145.145L60.953 146.661C60.8875 146.701 60.8312 146.754 60.7879 146.818C60.7445 146.881 60.7151 146.953 60.7016 147.028C60.6881 147.104 60.6907 147.182 60.7094 147.256C60.7281 147.331 60.7623 147.4 60.8099 147.461C61.6519 148.496 62.1024 148.955 63.138 150.281C63.7695 151.094 65.0578 152.988 65.9335 154.112C66.8092 155.236 67.9711 154.432 67.7059 153.885C66.5187 151.431 66.4429 149.974 66.485 148.804C66.4934 148.595 66.4278 148.391 66.2997 148.227Z" fill="#2F3845"/>
<path d="M78.5255 139.782L76.9763 136.06C76.9489 135.993 76.9001 135.938 76.8376 135.902C76.7751 135.866 76.7024 135.852 76.631 135.862L73.3472 136.283C73.2691 136.291 73.194 136.318 73.1282 136.361C73.0624 136.404 73.0077 136.462 72.9687 136.53C72.9296 136.598 72.9074 136.675 72.9036 136.753C72.8999 136.832 72.9149 136.91 72.9473 136.982C73.5114 138.274 73.8524 138.876 74.5345 140.514C74.9555 141.52 75.9322 144.164 76.509 145.566C77.0857 146.968 78.5676 146.635 78.4582 146.021C77.9656 143.267 78.134 141.491 78.5424 140.409C78.5811 140.308 78.5995 140.201 78.5966 140.093C78.5937 139.986 78.5696 139.88 78.5255 139.782Z" fill="#2F3845"/>
<path opacity="0.2" d="M84.3564 135.096L81.001 137.487L78.4624 135.188L82.0872 132.603L84.3564 135.096Z" fill="black"/>
<path opacity="0.2" d="M67.247 140.527L70.2908 142.038L67.9795 145.423L64.9357 143.907L67.247 140.527Z" fill="black"/>
<path d="M92.1575 59.8209C92.1575 59.8209 92.2585 59.6694 90.4145 79.7847L76.6478 80.7488C76.4878 75.1327 76.9088 71.1669 74.286 59.6273C76.2202 59.2378 78.1803 58.9901 80.1505 58.8863C82.2368 58.7471 84.3304 58.7584 86.415 58.92C89.1052 59.1768 92.1575 59.8209 92.1575 59.8209Z" fill="#2265C6"/>
<path d="M75.3218 62.9615C74.2987 62.49 73.402 61.9848 72.4716 61.4501C71.5412 60.9155 70.6613 60.3429 69.7856 59.7367C68.0032 58.5266 66.3461 57.1417 64.8388 55.6025L64.2831 55.0004L64.14 54.8489C64.0579 54.7546 63.9806 54.6562 63.9084 54.5542C63.7783 54.3685 63.6655 54.1712 63.5716 53.9648C63.2929 53.3069 63.1497 52.5995 63.1506 51.885C63.16 50.7477 63.3128 49.6161 63.6053 48.517C64.1398 46.4601 64.8817 44.4627 65.8198 42.5557L67.428 43.1787C67.1796 44.1344 66.9438 45.128 66.7333 46.1005C66.5228 47.073 66.346 48.0539 66.2281 49.0138C66.0915 49.9164 66.0548 50.8313 66.1187 51.7419C66.1397 52.0571 66.2197 52.3655 66.3544 52.6512C66.3544 52.6807 66.3966 52.7144 66.4092 52.7186C66.4218 52.7228 66.4092 52.7186 66.4092 52.7186L66.5397 52.8407L67.0575 53.3333C68.5027 54.6421 70.0514 55.8318 71.6885 56.8907C72.5095 57.4338 73.3725 57.9306 74.2145 58.4316C75.0565 58.9326 75.9617 59.4083 76.7826 59.8251L75.3218 62.9615Z" fill="#EDD1C5"/>
<path d="M79.7044 60.3977C78.1425 58.2212 75.0734 58.2549 75.0734 58.2549L71.3728 63.7279C71.3728 63.7279 75.5028 66.5401 77.2668 65.9128C79.136 65.2477 80.6685 61.7365 79.7044 60.3977Z" fill="#2265C6"/>
<path d="M86.415 58.9201L80.1506 58.8865C79.1907 59.2738 78.635 61.7703 84.9921 63.8837C89.3999 61.3788 87.055 59.1517 86.415 58.9201Z" fill="white"/>
<path d="M80.8074 51.8346C81.1905 53.8512 81.5652 57.5476 80.1506 58.8863C80.1506 58.8863 80.6979 60.9366 84.9921 63.8836C88.0023 60.865 86.4151 58.92 86.4151 58.92C84.1712 58.3685 84.2385 56.7014 84.6385 55.131L80.8074 51.8346Z" fill="#EDD1C5"/>
<path d="M93.791 71.8574H93.7237C93.5016 71.8391 93.2959 71.7336 93.1515 71.564C93.0071 71.3943 92.9358 71.1743 92.9532 70.9522C93.1048 69.0746 91.6902 67.6558 90.0652 66.0097C88.2001 64.1278 86.0825 61.9934 85.9983 58.6717C85.9927 58.4484 86.0761 58.232 86.23 58.0701C86.384 57.9083 86.5959 57.8142 86.8193 57.8086C87.0426 57.803 87.259 57.8864 87.4208 58.0403C87.5827 58.1943 87.6767 58.4063 87.6823 58.6296C87.7497 61.2819 89.5347 63.0837 91.2608 64.8267C92.9869 66.5696 94.8435 68.4389 94.6288 71.087C94.6109 71.2969 94.5149 71.4925 94.3598 71.6352C94.2047 71.7778 94.0017 71.8571 93.791 71.8574Z" fill="#2F3845"/>
<path d="M81.4852 76.1179C81.417 76.1177 81.3492 76.1092 81.2831 76.0927C81.0665 76.0389 80.8802 75.9015 80.765 75.7104C80.6497 75.5194 80.615 75.2905 80.6684 75.0739C81.4809 71.7732 80.4158 69.1799 79.2875 66.4518C78.2771 64.0016 77.2331 61.4671 77.7383 58.5033C77.7819 58.2887 77.9074 58.0995 78.0882 57.9759C78.269 57.8523 78.4908 57.804 78.7066 57.8412C78.9224 57.8785 79.1152 57.9984 79.2441 58.1754C79.373 58.3525 79.4278 58.5728 79.397 58.7896C78.976 61.2735 79.8812 63.4795 80.841 65.8119C81.9693 68.5442 83.2449 71.6427 82.3019 75.4949C82.2536 75.6743 82.1473 75.8327 81.9996 75.9454C81.8518 76.0581 81.671 76.1188 81.4852 76.1179Z" fill="#2F3845"/>
<path opacity="0.2" d="M83.847 54.4363L82.163 54.6341C82.2445 55.0875 82.4071 55.5225 82.6429 55.9182C82.9755 56.4192 83.7165 56.6381 84.449 56.6592C84.4482 56.1383 84.519 55.6198 84.6595 55.1183L83.847 54.4363Z" fill="black"/>
<path d="M77.0815 49.8054C78.3151 52.9461 78.7655 54.3017 80.9168 55.4216C84.1501 57.1056 87.737 54.9121 87.4676 51.4684C87.2276 48.3656 85.2531 43.7514 81.7041 43.4904C80.9225 43.4295 80.1383 43.5693 79.4259 43.8965C78.7135 44.2237 78.0965 44.7275 77.6335 45.3601C77.1704 45.9927 76.8767 46.7331 76.7801 47.5111C76.6835 48.289 76.7872 49.0788 77.0815 49.8054Z" fill="#EDD1C5"/>
<path d="M80.4621 43.0356C82.8576 44.5091 80.8074 53.1775 76.7531 52.7186C72.6989 52.2597 76.9215 40.8591 80.4621 43.0356Z" fill="#2F3845"/>
<path d="M80.3738 43.0693C78.5677 44.2692 79.8012 46.3573 85.8889 45.1196C85.8889 45.1154 83.3713 41.0738 80.3738 43.0693Z" fill="#2F3845"/>
<path d="M77.5193 52.8577C77.7855 53.4526 78.2756 53.9186 78.8833 54.1544C79.6958 54.4575 80.1716 53.7334 80.0116 52.9461C79.8642 52.2262 79.2664 51.1947 78.4244 51.2368C78.2404 51.2492 78.0624 51.3074 77.9066 51.4061C77.7508 51.5047 77.622 51.6407 77.5321 51.8017C77.4422 51.9627 77.3939 52.1437 77.3917 52.3281C77.3894 52.5125 77.4333 52.6945 77.5193 52.8577Z" fill="#EDD1C5"/>
<path d="M90.423 79.7847C90.423 79.7847 97.7905 103.836 98.3841 114.185C98.9987 124.95 83.0134 137.723 83.0134 137.723L79.0349 133.357C79.0349 133.357 92.0228 122.327 90.2419 114.336C87.7791 103.323 80.319 80.492 80.319 80.492L90.423 79.7847Z" fill="#2F3845"/>
<path opacity="0.2" d="M85.8299 87.6574C85.1563 85.5524 83.6575 86.967 83.1355 89.1983C84.1754 92.5663 85.3794 96.5068 86.5245 100.452C86.9666 96.9573 87.1476 91.7832 85.8299 87.6574Z" fill="black"/>
<path d="M77.9572 133.147L83.0049 138.354L85.1605 137.163L79.8264 131.357L77.9572 133.147Z" fill="#2265C6"/>
<path d="M86.7813 80.0416C86.7813 80.0416 84.6763 103.618 82.5713 116.749C80.8663 127.358 69.2846 144.686 69.2846 144.686L65.0409 142.712C65.0409 142.712 72.8252 124.158 74.0377 116.946C77.9277 93.863 72.6736 87.2028 76.6521 80.7404L86.7813 80.0416Z" fill="#2F3845"/>
<path d="M64.7419 142.758L69.5287 145.107L71.0991 143.158L65.4997 140.518L64.7419 142.758Z" fill="#2265C6"/>
<path d="M76.3869 79.9573L75.8522 81.2203C75.8101 81.3171 75.928 81.4097 76.088 81.3971L90.5283 80.3867C90.6504 80.3867 90.7514 80.3109 90.7514 80.2309L90.7893 78.9679C90.7893 78.8837 90.6798 78.8206 90.5451 78.829L76.6016 79.8057C76.555 79.8074 76.5098 79.8226 76.4717 79.8495C76.4335 79.8764 76.4041 79.9139 76.3869 79.9573Z" fill="white"/>
<path d="M78.3655 81.3804L77.9951 81.4056C77.9193 81.4056 77.8604 81.3762 77.8604 81.3299L77.9235 79.7174C77.9235 79.6711 77.9909 79.6248 78.0624 79.6206L78.4371 79.5953C78.5129 79.5953 78.5718 79.6248 78.5676 79.6711L78.5045 81.2835C78.5045 81.3383 78.4413 81.3804 78.3655 81.3804Z" fill="#2F3845"/>
<path d="M89.4883 80.6058L89.1136 80.631C89.0379 80.631 88.9789 80.6016 88.9831 80.5553L89.0463 78.9428C89.0463 78.8965 89.1094 78.8544 89.1852 78.846L89.5557 78.8207C89.6315 78.8207 89.6904 78.8502 89.6904 78.8965L89.6272 80.5132C89.623 80.5595 89.5809 80.6016 89.4883 80.6058Z" fill="#2F3845"/>
<path d="M83.927 80.9971L83.5523 81.0224C83.4807 81.0224 83.4218 80.9929 83.4218 80.9466L83.4849 79.33C83.4849 79.2837 83.5481 79.2416 83.6238 79.2374L83.9985 79.2121C84.0701 79.2121 84.129 79.2416 84.129 79.2879L84.0659 80.9003C84.0659 80.9592 84.0027 80.9887 83.927 80.9971Z" fill="#2F3845"/>
<path d="M82.1546 48.6266C81.9525 48.694 81.8683 48.9971 81.9693 49.3086L82.7061 49.0729C82.605 48.7613 82.3566 48.5424 82.1546 48.6266Z" fill="#2F3845"/>
<path d="M85.371 47.6077C85.1647 47.675 85.0805 47.9824 85.1815 48.2939L85.9225 48.0539C85.792 47.7424 85.552 47.5445 85.371 47.6077Z" fill="#2F3845"/>
<path d="M85.2657 47.6541L85.9436 47.1995C85.9436 47.1995 85.7499 47.9067 85.2657 47.6541Z" fill="#2F3845"/>
<path d="M84.5289 48.8791C84.9522 49.399 85.4452 49.858 85.994 50.2431C85.8923 50.3812 85.7616 50.4954 85.611 50.5776C85.4605 50.6598 85.2937 50.708 85.1225 50.7189L84.5289 48.8791Z" fill="#C7A778"/>
<path d="M84.5794 52.0281C84.5918 52.0174 84.6007 52.0034 84.6052 51.9877C84.6097 51.972 84.6095 51.9553 84.6047 51.9397C84.598 51.9197 84.5836 51.9031 84.5646 51.8936C84.5457 51.8841 84.5238 51.8825 84.5037 51.8892C84.1816 52.0007 83.8379 52.0352 83.5001 51.9899C83.1623 51.9445 82.8399 51.8207 82.5586 51.6282C82.5512 51.6207 82.5423 51.6147 82.5326 51.6107C82.5228 51.6066 82.5124 51.6045 82.5018 51.6045C82.4912 51.6045 82.4808 51.6066 82.471 51.6107C82.4613 51.6147 82.4524 51.6207 82.445 51.6282C82.4369 51.6353 82.4304 51.6441 82.426 51.6539C82.4216 51.6637 82.4193 51.6743 82.4193 51.685C82.4193 51.6958 82.4216 51.7064 82.426 51.7162C82.4304 51.726 82.4369 51.7348 82.445 51.7419C82.7459 51.9575 83.0946 52.0969 83.4612 52.1482C83.8278 52.1995 84.2014 52.1612 84.55 52.0366L84.5794 52.0281Z" fill="#2F3845"/>
<path d="M81.0894 48.4372C81.1107 48.4194 81.1267 48.3961 81.1357 48.3699C81.1936 48.1739 81.2982 47.995 81.4404 47.8483C81.5827 47.7016 81.7584 47.5917 81.9525 47.5279C81.9729 47.5229 81.9922 47.5139 82.0092 47.5015C82.0262 47.4891 82.0406 47.4734 82.0515 47.4555C82.0624 47.4375 82.0697 47.4175 82.073 47.3967C82.0762 47.3759 82.0753 47.3547 82.0703 47.3342C82.0654 47.3138 82.0564 47.2945 82.044 47.2775C82.0316 47.2605 82.0159 47.2461 81.9979 47.2352C81.9799 47.2242 81.96 47.2169 81.9392 47.2137C81.9184 47.2105 81.8971 47.2114 81.8767 47.2163C81.6327 47.2932 81.4106 47.4273 81.229 47.6075C81.0473 47.7876 80.9114 48.0086 80.8326 48.252C80.8193 48.2922 80.8224 48.336 80.8414 48.3739C80.8603 48.4118 80.8935 48.4406 80.9336 48.4541C80.9587 48.4657 80.9864 48.4703 81.0139 48.4673C81.0413 48.4644 81.0674 48.454 81.0894 48.4372Z" fill="#2F3845"/>
<path d="M86.1331 46.3573C86.142 46.3525 86.1494 46.3452 86.1541 46.3362C86.1676 46.3197 86.1777 46.3007 86.1837 46.2803C86.1898 46.2599 86.1917 46.2384 86.1893 46.2173C86.1869 46.1961 86.1804 46.1756 86.17 46.157C86.1596 46.1384 86.1456 46.122 86.1288 46.1089C85.9319 45.946 85.6989 45.8323 85.4492 45.7774C85.1996 45.7225 84.9404 45.7279 84.6932 45.7931C84.6729 45.7998 84.654 45.8104 84.6379 45.8245C84.6217 45.8385 84.6085 45.8557 84.5991 45.8749C84.5896 45.8942 84.5842 45.9151 84.583 45.9365C84.5818 45.9579 84.585 45.9793 84.5922 45.9994C84.6066 46.0389 84.6355 46.0714 84.6731 46.0902C84.7107 46.109 84.7541 46.1127 84.7943 46.1005C84.9902 46.0501 85.1953 46.0476 85.3923 46.093C85.5894 46.1384 85.7727 46.2305 85.9268 46.3615C85.9561 46.3853 85.9929 46.3979 86.0307 46.3971C86.0684 46.3963 86.1047 46.3822 86.1331 46.3573Z" fill="#2F3845"/>
<path d="M65.4451 43.9324L64.9188 40.5644L68.3542 42.2484C68.2247 42.8154 67.932 43.332 67.5122 43.7345C67.3394 43.9313 67.1145 44.0752 66.8635 44.1497C66.6125 44.2241 66.3455 44.2262 66.0934 44.1555L65.4451 43.9324Z" fill="#EDD1C5"/>
<path d="M66.847 38.9142L68.6068 40.4593L68.3542 42.2275L64.9188 40.5603L66.847 38.9142Z" fill="#EDD1C5"/>
<path d="M67.4027 149.839C67.4384 149.814 67.4721 149.785 67.5037 149.755C67.5398 149.722 67.5663 149.68 67.5804 149.633C67.5945 149.587 67.5956 149.537 67.5837 149.49C67.4826 149.069 66.3207 148.648 66.1902 148.618C66.1758 148.612 66.1597 148.611 66.1445 148.615C66.1293 148.618 66.1158 148.627 66.106 148.639C66.0973 148.652 66.0927 148.668 66.0927 148.683C66.0927 148.699 66.0973 148.715 66.106 148.728C66.2954 149.149 66.6743 149.839 67.0995 149.911C67.206 149.926 67.3145 149.901 67.4027 149.839ZM66.3207 148.837C66.7796 149.01 67.3732 149.304 67.4279 149.528C67.4319 149.549 67.43 149.57 67.4226 149.59C67.4152 149.61 67.4025 149.628 67.3858 149.641C67.3537 149.682 67.3117 149.714 67.2638 149.734C67.2159 149.754 67.1637 149.761 67.1122 149.755C66.8806 149.713 66.5943 149.376 66.3207 148.837Z" fill="#2265C6"/>
<path d="M67.6173 148.715C67.6448 148.699 67.6691 148.677 67.6889 148.652C67.73 148.602 67.7524 148.54 67.7524 148.475C67.7524 148.411 67.73 148.348 67.6889 148.298C67.6576 148.245 67.615 148.199 67.5641 148.164C67.5131 148.13 67.4552 148.106 67.3942 148.096C66.9101 148.008 66.1312 148.606 66.1017 148.631C66.0908 148.64 66.0824 148.652 66.0773 148.665C66.0721 148.678 66.0704 148.693 66.0723 148.707C66.0746 148.72 66.08 148.733 66.0881 148.744C66.0961 148.755 66.1065 148.764 66.1186 148.77C66.6083 148.934 67.1409 148.914 67.6173 148.715ZM66.3543 148.652C66.6426 148.417 66.9976 148.278 67.369 148.256C67.4077 148.261 67.4447 148.275 67.4769 148.297C67.5092 148.319 67.5356 148.348 67.5542 148.383C67.6089 148.471 67.5837 148.517 67.5542 148.547C67.4026 148.728 66.7122 148.761 66.3291 148.665L66.3543 148.652Z" fill="#2265C6"/>
<path d="M78.6012 141.689C78.6868 141.952 78.8533 142.182 79.077 142.345C79.1399 142.383 79.2104 142.405 79.2832 142.412C79.356 142.418 79.4294 142.409 79.498 142.383C79.5389 142.372 79.5759 142.349 79.6049 142.318C79.6339 142.287 79.6537 142.248 79.6622 142.207C79.7506 141.786 78.6475 140.746 78.4244 140.523C78.4107 140.514 78.3946 140.509 78.3781 140.509C78.3616 140.509 78.3455 140.514 78.3318 140.523C78.3171 140.53 78.3054 140.543 78.2985 140.558C78.2917 140.573 78.2901 140.59 78.2939 140.607C78.356 140.978 78.4591 141.341 78.6012 141.689ZM79.4769 142.004C79.5008 142.053 79.511 142.107 79.5064 142.16C79.5064 142.181 79.5064 142.202 79.4474 142.219C79.3983 142.238 79.3455 142.246 79.293 142.241C79.2405 142.237 79.1897 142.221 79.1443 142.194C78.8875 142.042 78.6518 141.537 78.5002 140.821C78.8836 141.164 79.2129 141.563 79.4769 142.004Z" fill="#2265C6"/>
<path d="M78.3108 140.636C78.3096 140.645 78.3096 140.653 78.3108 140.661C78.6561 141.011 79.6875 141.575 80.0201 141.381C80.0917 141.339 80.1675 141.247 80.1085 141.045C79.8938 140.27 78.4245 140.514 78.3529 140.527C78.3382 140.529 78.3244 140.535 78.3131 140.545C78.3019 140.554 78.2938 140.567 78.2898 140.581C78.29 140.602 78.2975 140.621 78.3108 140.636ZM79.9528 141.036L79.9738 141.087C79.9738 141.171 79.9738 141.221 79.9738 141.242C79.7801 141.352 79.0013 140.99 78.5887 140.661C78.9339 140.624 79.7675 140.59 79.9528 141.036Z" fill="#2265C6"/>
<path d="M82.0704 48.673L82.7483 48.2141C82.7483 48.2141 82.5546 48.9256 82.0704 48.673Z" fill="#2F3845"/>
<path d="M137.108 158.958L133.845 158.962L132.965 151.41L136.228 151.406L137.108 158.958Z" fill="#D8AFA2"/>
<path d="M165.193 144.939L162.721 147.073L157.126 141.925L159.593 139.79L165.193 144.939Z" fill="#D8AFA2"/>
<path d="M162.241 146.989L165.247 144.388C165.296 144.347 165.358 144.325 165.422 144.325C165.486 144.325 165.548 144.347 165.597 144.388L167.887 146.215C167.943 146.262 167.988 146.32 168.018 146.387C168.049 146.453 168.065 146.525 168.065 146.598C168.065 146.671 168.049 146.743 168.018 146.809C167.988 146.875 167.943 146.934 167.887 146.981C166.906 147.802 166.153 148.353 164.94 149.406C164.191 150.054 161.993 152.092 160.957 152.989C159.922 153.885 158.941 152.938 159.273 152.475C160.831 150.404 161.799 148.568 161.951 147.478C161.988 147.286 162.091 147.114 162.241 146.989Z" fill="#2F3845"/>
<path d="M133.866 158.584H137.432C137.497 158.584 137.559 158.606 137.61 158.647C137.66 158.687 137.696 158.744 137.71 158.807L138.358 161.707C138.374 161.777 138.374 161.85 138.358 161.92C138.342 161.99 138.31 162.055 138.265 162.111C138.22 162.167 138.163 162.212 138.098 162.242C138.033 162.273 137.963 162.289 137.891 162.288C136.603 162.267 134.746 162.196 133.129 162.196C131.243 162.196 130.136 162.246 127.922 162.25C126.583 162.25 126.208 160.899 126.768 160.777C129.319 160.213 130.877 160.209 133.083 158.845C133.315 158.686 133.586 158.596 133.866 158.584Z" fill="#2F3845"/>
<path d="M123.261 65.1764C122.604 64.9238 122.04 64.6922 121.451 64.4228C120.861 64.1534 120.293 63.8881 119.72 63.6061C118.578 63.0447 117.455 62.4188 116.352 61.7284C115.242 61.0481 114.175 60.3001 113.157 59.4887C112.9 59.2782 112.639 59.0677 112.387 58.853L111.637 58.1667C111.389 57.9394 111.153 57.6784 110.913 57.4342C110.791 57.2995 110.686 57.2026 110.547 57.0427C110.408 56.8827 110.273 56.7269 110.151 56.5669C109.691 55.9583 109.3 55.3003 108.985 54.6051C108.692 53.9702 108.443 53.3162 108.24 52.6474C107.853 51.3846 107.571 50.092 107.398 48.7826C107.066 46.2621 107.002 43.7134 107.208 41.1794H109.658C109.827 42.3203 110.004 43.5201 110.235 44.6737C110.467 45.8272 110.711 46.9808 111.01 48.0922C111.293 49.1779 111.65 50.2427 112.079 51.2792C112.436 52.1956 112.937 53.0485 113.565 53.8052L113.772 54.0157C113.835 54.083 113.961 54.1841 114.054 54.2683C114.256 54.4409 114.441 54.6219 114.656 54.7861C115.077 55.1229 115.498 55.4555 115.969 55.7754C116.879 56.4069 117.839 57.009 118.84 57.5731C119.842 58.1373 120.866 58.6719 121.905 59.1771C122.427 59.4339 122.954 59.6865 123.48 59.9223C124.006 60.1581 124.558 60.4065 125.029 60.6085L123.261 65.1764Z" fill="#D8AFA2"/>
<path d="M123.783 67.9551C121.925 66.8002 120.17 65.4874 118.537 64.0314L119.838 57.3838C122.257 58.0718 124.716 58.609 127.202 58.992C131.306 59.5225 126.709 69.698 123.783 67.9551Z" fill="#2F3845"/>
<path d="M109.743 41.7519L109.974 37.5967L106.522 38.7039C106.522 38.7039 105.718 41.6804 107.958 42.4634L109.743 41.7519Z" fill="#D8AFA2"/>
<path d="M109.558 35.3612L106.707 36.5484L106.522 38.7039L109.974 37.5967L109.558 35.3612Z" fill="#D8AFA2"/>
<path opacity="0.2" d="M132.969 151.41L133.42 155.304L136.682 155.3L136.232 151.406L132.969 151.41Z" fill="black"/>
<path opacity="0.2" d="M159.597 139.79L157.126 141.925L160.014 144.577L162.481 142.442L159.597 139.79Z" fill="black"/>
<path d="M139.747 58.8574C139.755 58.6263 139.716 58.3961 139.634 58.18C139.552 57.9639 139.428 57.7662 139.269 57.5983C139.11 57.4304 138.919 57.2956 138.708 57.2018C138.497 57.1079 138.269 57.0567 138.038 57.0513C128.726 56.8787 122.667 59.4889 122.251 59.6573C122.095 59.72 121.958 59.8214 121.853 59.9517C121.748 60.0821 121.677 60.2373 121.649 60.4024C121.261 62.7348 120.162 72.5104 125.547 87.8095L142.808 85.3383C142.577 82.7912 139.36 71.1043 139.747 58.8574Z" fill="#2F3845"/>
<path d="M125.787 58.4826C124.764 59.8509 124.301 63.0042 127.69 65.3113C131.858 62.2001 134.005 58.8531 134.641 57.1102C131.65 57.2602 128.683 57.7201 125.787 58.4826Z" fill="white"/>
<path d="M125.012 59.7624C124.789 59.7624 124.575 59.6737 124.417 59.5158C124.259 59.3579 124.17 59.1437 124.17 58.9204C124.17 58.2257 124.772 57.6279 125.282 57.2364C126.991 55.9734 130.334 55.0093 134.544 56.226C134.751 56.2943 134.923 56.4401 135.025 56.6328C135.126 56.8255 135.149 57.0501 135.089 57.2594C135.028 57.4687 134.889 57.6464 134.7 57.7551C134.512 57.8639 134.288 57.8953 134.077 57.8426C129.193 56.4323 126.183 58.4362 125.859 59.013C125.836 59.2206 125.736 59.4123 125.58 59.5508C125.424 59.6893 125.221 59.7647 125.012 59.7624Z" fill="#2265C6"/>
<path d="M132.009 49.1069C131.883 51.536 132.039 55.9313 133.917 57.2701C132.814 58.7309 131.344 60.4444 128.553 60.9454C126.869 61.2443 126.292 60.6212 126.221 59.834C126.197 59.4542 126.281 59.0754 126.463 58.7411C126.644 58.4068 126.916 58.1304 127.248 57.9437C129.062 56.8912 128.7 55.1987 128.048 53.5989L132.009 49.1069Z" fill="#D8AFA2"/>
<path d="M124.756 79.0777C124.661 79.0773 124.567 79.0602 124.478 79.0272C124.267 78.9528 124.095 78.798 123.999 78.5967C123.902 78.3954 123.89 78.1641 123.964 77.9536C124.081 77.6591 124.135 77.3434 124.124 77.0267C124.112 76.71 124.035 76.3991 123.897 76.1139L123.808 75.8739C123.665 75.5911 123.474 75.3349 123.244 75.1161C122.752 74.721 122.411 74.1677 122.28 73.55C122.148 72.9323 122.235 72.2883 122.524 71.7271C122.628 71.4868 122.689 71.2304 122.705 70.9693C122.625 70.6694 122.496 70.3849 122.322 70.1273C121.975 69.6304 121.77 69.0482 121.729 68.4433C121.776 67.8107 122.006 67.2054 122.39 66.7003C122.534 66.5088 122.648 66.2957 122.726 66.0688C122.729 65.8346 122.684 65.6023 122.592 65.3868C122.389 64.9083 122.339 64.3791 122.449 63.8712C122.619 63.2985 122.971 62.7963 123.451 62.4398C123.586 62.3373 123.704 62.2137 123.8 62.0735C123.86 61.8702 123.86 61.6538 123.8 61.4504C123.672 60.9628 123.74 60.4445 123.989 60.0064C124.284 59.5433 124.255 59.4254 124.229 59.3286C124.187 59.181 124.168 59.0274 124.175 58.8739C124.175 58.6506 124.263 58.4364 124.421 58.2785C124.579 58.1206 124.793 58.0319 125.017 58.0319C125.24 58.0319 125.454 58.1206 125.612 58.2785C125.77 58.4364 125.859 58.6506 125.859 58.8739V58.8992C125.977 59.3749 126.01 59.9433 125.438 60.8737C125.445 60.9726 125.457 61.071 125.476 61.1684C125.602 61.6314 125.584 62.1223 125.422 62.5743C125.26 63.0262 124.963 63.4173 124.57 63.6944C124.301 63.9301 124.149 64.0733 124.09 64.2796C124.082 64.4741 124.121 64.6677 124.204 64.8437C124.383 65.294 124.454 65.7799 124.41 66.2625C124.317 66.7461 124.116 67.2024 123.821 67.597C123.626 67.8433 123.49 68.1315 123.425 68.439C123.493 68.7338 123.618 69.0125 123.792 69.26C124.094 69.7123 124.299 70.2228 124.394 70.7588C124.417 71.2655 124.329 71.7713 124.137 72.2407C124 72.54 123.935 72.8674 123.947 73.1963C124.08 73.4883 124.27 73.7504 124.507 73.9668C124.897 74.3477 125.206 74.8029 125.417 75.3056L125.492 75.5245C125.907 76.4657 125.933 77.5325 125.564 78.4925C125.509 78.6635 125.401 78.8125 125.256 78.9178C125.11 79.023 124.935 79.0791 124.756 79.0777Z" fill="#2265C6"/>
<path d="M139.592 58.7181C140.05 59.1391 140.434 59.4928 140.821 59.8969C141.208 60.3011 141.587 60.6926 141.962 61.0968C142.711 61.9051 143.418 62.7555 144.101 63.6228C145.521 65.4203 146.711 67.3891 147.641 69.4831C147.876 70.0432 148.081 70.6151 148.256 71.1966C148.344 71.4913 148.42 71.7986 148.492 72.1101L148.517 72.2238L148.555 72.4217C148.58 72.5522 148.593 72.6911 148.605 72.8427C148.625 73.1235 148.617 73.4056 148.58 73.6847C148.518 74.1878 148.365 74.6756 148.129 75.1245C147.933 75.4983 147.694 75.8486 147.418 76.1686C146.962 76.6897 146.436 77.1458 145.856 77.5242C144.866 78.1722 143.8 78.6953 142.682 79.0819C142.151 79.2756 141.617 79.4398 141.078 79.5787C140.539 79.7176 140.017 79.8481 139.432 79.945L138.674 77.6168C139.095 77.3811 139.545 77.1327 139.97 76.8801C140.396 76.6275 140.812 76.3622 141.233 76.097C142.016 75.6024 142.753 75.0388 143.435 74.413C143.697 74.1609 143.927 73.8782 144.122 73.571C144.269 73.331 144.256 73.1711 144.214 73.2216C144.211 73.2355 144.211 73.2498 144.214 73.2637L144.189 73.1879C144.126 72.9942 144.067 72.7964 143.983 72.5943C143.827 72.1834 143.648 71.7815 143.448 71.3902C143.025 70.5587 142.544 69.7582 142.008 68.9948C141.473 68.2033 140.884 67.4286 140.261 66.6708C139.638 65.913 138.998 65.1679 138.32 64.4311C137.988 64.0648 137.647 63.707 137.301 63.3533C136.956 62.9997 136.594 62.6292 136.287 62.3345L139.592 58.7181Z" fill="#D8AFA2"/>
<path d="M138.505 57.1226C140.408 57.4046 143.393 62.1746 143.393 62.1746L138.548 68.6706C138.548 68.6706 135.963 66.2077 135.209 64.0396C133.786 59.8801 134.767 56.5753 138.505 57.1226Z" fill="#2F3845"/>
<path d="M135.967 73.4742C135.821 73.4726 135.677 73.4329 135.551 73.3591C135.425 73.2852 135.32 73.1798 135.247 73.0532C134.958 72.487 134.832 71.8513 134.885 71.2176C134.907 70.9561 134.885 70.6926 134.818 70.4388C134.649 70.1773 134.437 69.9467 134.19 69.7568C133.706 69.3961 133.329 68.9099 133.1 68.3506C132.944 67.7359 132.972 67.0888 133.18 66.4898C133.256 66.2616 133.298 66.0231 133.302 65.7825C133.196 65.4937 133.042 65.2247 132.847 64.9868C132.414 64.541 132.159 63.9509 132.134 63.3294C132.108 62.7079 132.313 62.0988 132.708 61.6188C132.823 61.4473 132.915 61.262 132.982 61.0673C132.96 60.7478 132.883 60.4345 132.755 60.1411C132.514 59.6446 132.432 59.0861 132.519 58.5413C132.676 57.7664 133.067 57.0582 133.639 56.5121L133.694 56.4574C133.851 56.3081 134.059 56.2252 134.276 56.2259C134.493 56.2266 134.701 56.3108 134.857 56.461C135.013 56.6113 135.105 56.8159 135.115 57.0325C135.124 57.249 135.049 57.4607 134.906 57.6235L134.809 57.7204C134.465 58.0522 134.234 58.4836 134.148 58.9539C134.194 59.1652 134.257 59.3722 134.338 59.5728C134.558 60.0828 134.669 60.6337 134.662 61.1894C134.596 61.6504 134.425 62.0899 134.161 62.4735C133.978 62.722 133.859 63.0108 133.811 63.3155C133.911 63.576 134.053 63.8179 134.232 64.0312C134.573 64.4537 134.821 64.9427 134.961 65.4668C135.025 65.9552 134.978 66.4518 134.822 66.9192C134.715 67.2156 134.676 67.5321 134.708 67.8454C134.868 68.1035 135.075 68.3292 135.319 68.5106C135.747 68.8472 136.101 69.2686 136.358 69.7483C136.541 70.2214 136.615 70.729 136.577 71.2345C136.546 71.5623 136.588 71.893 136.699 72.2028C136.814 72.3943 136.847 72.6233 136.793 72.8396C136.738 73.0559 136.6 73.2417 136.409 73.3563C136.275 73.4356 136.122 73.4764 135.967 73.4742Z" fill="#2265C6"/>
<path opacity="0.2" d="M130.393 50.9381L128.052 53.5946C128.228 54.0027 128.369 54.4253 128.473 54.8576C129.458 54.5671 130.683 53.2662 130.641 52.1969C130.635 51.7658 130.55 51.3394 130.393 50.9381Z" fill="black"/>
<path d="M125.471 42.1982C124.431 44.0085 125.097 46.585 125.097 46.585C125.375 46.7664 125.698 46.8698 126.03 46.8846C126.363 46.8994 126.693 46.8251 126.987 46.6692L126.692 41.8698L125.471 42.1982Z" fill="#2F3845"/>
<path d="M133.668 46.7956C132.872 49.9363 132.565 51.8139 130.654 53.1401C127.778 55.1356 124.132 52.938 123.977 49.6248C123.834 46.6399 125.16 42.0089 128.511 41.3353C129.248 41.1826 130.012 41.221 130.73 41.4469C131.448 41.6729 132.097 42.0788 132.613 42.6261C133.13 43.1734 133.499 43.8438 133.683 44.5737C133.868 45.3035 133.863 46.0684 133.668 46.7956Z" fill="#D8AFA2"/>
<path d="M131.719 45.0695C131.719 43.8739 130.818 43.0024 127.812 43.234C125.358 43.4192 124.162 42.2741 124.865 40.6785C126.852 41.7141 126.524 40.3585 130.313 40.1943C134.102 40.0301 135.201 41.4573 135.601 43.676C137.92 47.1156 133.917 48.5428 133.917 48.5428L132.35 49.911C132.026 49.9848 131.688 49.9702 131.371 49.8687C131.054 49.7673 130.77 49.5827 130.549 49.3342C130.549 49.3342 130.241 46.543 131.719 45.0695Z" fill="#2F3845"/>
<path d="M134.068 50.6478C133.453 51.068 132.697 51.2312 131.963 51.1025C131.007 50.9173 131.007 49.949 131.668 49.2628C132.262 48.6439 133.479 47.9997 134.245 48.5344C135.011 49.0691 134.83 50.1216 134.068 50.6478Z" fill="#D8AFA2"/>
<path d="M132.195 154.555H137.718C137.718 154.555 136.851 134.911 135.66 124.815C135.297 121.742 135.689 117.532 135.727 112.829C135.777 106.906 136.051 100.452 136.321 95.3873C136.607 90.0533 136.847 86.2095 136.847 86.2095L125.547 87.822C125.547 87.822 124.427 115.789 126.183 125.59C128.01 135.77 132.195 154.555 132.195 154.555Z" fill="#2265C6"/>
<path opacity="0.2" d="M135.727 112.817C135.777 106.893 136.051 100.439 136.32 95.3747L134.636 93.1224C132.557 97.0166 134.001 107.386 135.727 112.817Z" fill="black"/>
<path d="M130.932 87.039C130.932 87.039 137.95 114.753 141.284 123.716C144.934 133.526 158.377 144.994 158.377 144.994L161.774 141.255C161.774 141.255 154.663 130.17 149.422 119.506C146.917 105.66 142.825 85.3381 142.825 85.3381L130.932 87.039Z" fill="#2265C6"/>
<path d="M157.922 145.558L163.248 140.956L161.871 139.369L155.83 144.409L157.922 145.558Z" fill="#2F3845"/>
<path d="M131.5 154.681L138.084 154.673L138.08 152.547L130.725 152.446L131.5 154.681Z" fill="#2F3845"/>
<path d="M128.818 46.1809C128.608 46.1177 128.359 46.3198 128.258 46.6355L129.008 46.8755C129.109 46.5598 129.025 46.2482 128.818 46.1809Z" fill="#2F3845"/>
<path d="M125.534 45.5619C125.32 45.5619 125.113 45.8061 125.113 46.1387L125.896 46.1892C125.909 45.8566 125.753 45.5956 125.534 45.5619Z" fill="#2F3845"/>
<path d="M126.667 46.522C126.208 47.254 125.652 47.9198 125.012 48.5007C125.166 48.6601 125.353 48.7842 125.559 48.8641C125.766 48.9441 125.987 48.9781 126.208 48.9638L126.667 46.522Z" fill="#C08480"/>
<path d="M129.888 45.8442C129.914 45.8505 129.941 45.8505 129.968 45.8442C130.006 45.8317 130.039 45.8043 130.058 45.7681C130.077 45.7319 130.081 45.6897 130.069 45.6506C130.003 45.4143 129.882 45.1972 129.715 45.0176C129.548 44.8381 129.34 44.7014 129.109 44.6191C129.089 44.6127 129.069 44.6104 129.049 44.6123C129.028 44.6143 129.009 44.6204 128.991 44.6302C128.973 44.6401 128.958 44.6536 128.945 44.6698C128.933 44.686 128.924 44.7046 128.919 44.7244C128.914 44.7437 128.912 44.764 128.914 44.7841C128.916 44.8042 128.922 44.8236 128.932 44.8413C128.942 44.8589 128.955 44.8744 128.971 44.8869C128.987 44.8993 129.005 44.9085 129.025 44.9138C129.208 44.9842 129.371 45.0974 129.501 45.2439C129.632 45.3904 129.725 45.5659 129.774 45.7558C129.785 45.7782 129.801 45.7978 129.821 45.8132C129.84 45.8285 129.863 45.8391 129.888 45.8442Z" fill="#2F3845"/>
<path d="M124.562 45.1198C124.587 45.1241 124.613 45.1221 124.637 45.114C124.661 45.106 124.683 45.092 124.701 45.0735C124.828 44.9274 124.987 44.8131 125.166 44.74C125.346 44.6668 125.539 44.6369 125.732 44.6525C125.773 44.6586 125.815 44.6482 125.848 44.6238C125.881 44.5993 125.903 44.5627 125.909 44.522C125.915 44.4824 125.905 44.442 125.882 44.4096C125.858 44.3773 125.822 44.3556 125.783 44.3494C125.539 44.3253 125.292 44.3601 125.065 44.451C124.837 44.5418 124.634 44.686 124.473 44.8714C124.459 44.8856 124.447 44.9026 124.439 44.9214C124.431 44.9402 124.427 44.9605 124.427 44.9809C124.427 45.0014 124.431 45.0216 124.439 45.0404C124.447 45.0592 124.459 45.0762 124.473 45.0904C124.5 45.1081 124.53 45.1183 124.562 45.1198Z" fill="#2F3845"/>
<path d="M161.778 148.143C161.993 147.947 162.185 147.728 162.351 147.49C162.359 147.478 162.364 147.463 162.364 147.448C162.364 147.433 162.359 147.419 162.351 147.406C162.344 147.392 162.333 147.381 162.32 147.374C162.306 147.367 162.29 147.365 162.275 147.368C162.14 147.368 160.941 147.566 160.785 147.949C160.768 147.991 160.762 148.037 160.767 148.082C160.773 148.127 160.791 148.17 160.818 148.206C160.858 148.271 160.914 148.325 160.98 148.362C161.046 148.4 161.121 148.42 161.197 148.421C161.417 148.398 161.623 148.3 161.778 148.143ZM162.115 147.554C161.766 148.004 161.429 148.265 161.202 148.265C161.15 148.264 161.1 148.249 161.055 148.223C161.011 148.196 160.974 148.158 160.949 148.113C160.939 148.098 160.934 148.081 160.934 148.063C160.934 148.045 160.939 148.027 160.949 148.012C161.008 147.815 161.635 147.638 162.115 147.554Z" fill="#2265C6"/>
<path d="M162.338 147.507C162.349 147.497 162.358 147.484 162.364 147.469C162.37 147.457 162.373 147.443 162.373 147.429C162.373 147.415 162.37 147.402 162.364 147.389C162.334 147.36 161.69 146.674 161.21 146.678C161.151 146.678 161.093 146.69 161.04 146.714C160.986 146.738 160.938 146.773 160.898 146.817C160.854 146.856 160.824 146.908 160.813 146.966C160.802 147.025 160.812 147.085 160.84 147.137C161.012 147.465 161.951 147.6 162.321 147.524L162.338 147.507ZM161.016 146.901C161.065 146.859 161.128 146.836 161.193 146.838C161.5 146.838 161.921 147.196 162.124 147.385C161.703 147.406 161.058 147.255 160.953 147.061C160.953 147.04 160.924 146.998 160.991 146.926L161.016 146.901Z" fill="#2265C6"/>
<path d="M133.546 159.038C133.56 159.034 133.572 159.025 133.58 159.014C133.589 159.003 133.595 158.989 133.597 158.975C133.6 158.96 133.598 158.943 133.592 158.929C133.585 158.914 133.573 158.902 133.559 158.895C133.407 158.819 132.098 158.154 131.702 158.377C131.664 158.397 131.632 158.427 131.609 158.463C131.586 158.499 131.573 158.541 131.572 158.584C131.563 158.653 131.572 158.724 131.598 158.79C131.623 158.855 131.665 158.913 131.719 158.958C132.077 159.274 133.011 159.144 133.538 159.038H133.546ZM131.803 158.499C132.052 158.415 132.763 158.685 133.281 158.92C132.561 159.043 132.018 159.013 131.82 158.832C131.785 158.802 131.758 158.763 131.742 158.72C131.725 158.676 131.72 158.63 131.727 158.584C131.727 158.567 131.732 158.551 131.741 158.536C131.75 158.522 131.763 158.511 131.778 158.504L131.803 158.499Z" fill="#2265C6"/>
<path d="M133.546 159.038H133.567C133.578 159.03 133.587 159.019 133.592 159.006C133.598 158.994 133.601 158.98 133.601 158.967C133.601 158.933 133.504 158.053 133.091 157.704C133.034 157.655 132.967 157.618 132.894 157.595C132.822 157.573 132.746 157.565 132.67 157.573C132.456 157.573 132.397 157.704 132.384 157.788C132.325 158.158 133.104 158.861 133.5 159.051C133.516 159.051 133.532 159.047 133.546 159.038ZM132.599 157.737H132.679C132.735 157.731 132.792 157.737 132.846 157.754C132.899 157.772 132.949 157.8 132.99 157.838C133.231 158.121 133.378 158.471 133.411 158.84C133.011 158.6 132.477 158.049 132.515 157.826C132.523 157.796 132.523 157.758 132.599 157.737Z" fill="#2265C6"/>
<path d="M139.07 77.398L135.929 78.3916L138.367 80.8165C138.367 80.8165 141.213 79.583 140.32 78.3284L139.07 77.398Z" fill="#D8AFA2"/>
<path d="M134.636 81.1619L136.872 82.5175L138.367 80.8167L135.929 78.3917L134.636 81.1619Z" fill="#D8AFA2"/>
</g>
<defs>
<clipPath id="clip0_20562_255277">
<rect width="210.5" height="185.338" fill="white" transform="translate(0.75)"/>
</clipPath>
</defs>
</svg>
